<svg width="419" height="388" viewBox="0 0 419 388" fill="none" xmlns="http://www.w3.org/2000/svg">
<g id="Card3" clip-path="url(#clip0_14_33)">
<g id="InvoicesTab">
<rect id="InvoicesRectangle" x="0.00012207" width="419.459" height="388" rx="10" fill="white"/>
<path id="InvoicesUpdated" d="M42.408 344.468H43.0245V347.838C43.0245 348.186 42.9425 348.497 42.7784 348.771C42.616 349.042 42.3865 349.257 42.0899 349.414C41.7932 349.57 41.4452 349.648 41.0458 349.648C40.6464 349.648 40.2984 349.57 40.0018 349.414C39.7052 349.257 39.4748 349.042 39.3107 348.771C39.1483 348.497 39.0671 348.186 39.0671 347.838V344.468H39.6836V347.789C39.6836 348.037 39.7383 348.259 39.8477 348.452C39.957 348.645 40.1128 348.796 40.315 348.907C40.5188 349.017 40.7624 349.071 41.0458 349.071C41.3292 349.071 41.5728 349.017 41.7766 348.907C41.9805 348.796 42.1363 348.645 42.244 348.452C42.3534 348.259 42.408 348.037 42.408 347.789V344.468ZM44.1761 350.99V345.74H44.7428V346.347H44.8124C44.8555 346.281 44.9152 346.196 44.9914 346.093C45.0693 345.989 45.1803 345.896 45.3245 345.815C45.4703 345.732 45.6675 345.691 45.9161 345.691C46.2376 345.691 46.521 345.771 46.7663 345.932C47.0115 346.093 47.2029 346.32 47.3405 346.615C47.478 346.91 47.5468 347.258 47.5468 347.659C47.5468 348.064 47.478 348.414 47.3405 348.711C47.2029 349.006 47.0124 349.235 46.7687 349.397C46.5251 349.558 46.2442 349.638 45.9261 349.638C45.6808 349.638 45.4844 349.598 45.3369 349.516C45.1894 349.433 45.0759 349.34 44.9964 349.235C44.9168 349.129 44.8555 349.042 44.8124 348.972H44.7627V350.99H44.1761ZM44.7528 347.65C44.7528 347.938 44.795 348.192 44.8795 348.413C44.9641 348.631 45.0875 348.803 45.2499 348.927C45.4123 349.05 45.6112 349.111 45.8465 349.111C46.0918 349.111 46.2964 349.047 46.4605 348.917C46.6262 348.786 46.7505 348.611 46.8334 348.39C46.9179 348.168 46.9602 347.921 46.9602 347.65C46.9602 347.381 46.9187 347.139 46.8359 346.924C46.7547 346.707 46.6312 346.535 46.4655 346.409C46.3014 346.281 46.0951 346.218 45.8465 346.218C45.6079 346.218 45.4074 346.278 45.245 346.399C45.0825 346.518 44.9599 346.686 44.8771 346.901C44.7942 347.115 44.7528 347.364 44.7528 347.65ZM49.8834 349.638C49.5653 349.638 49.2844 349.558 49.0408 349.397C48.7972 349.235 48.6066 349.006 48.469 348.711C48.3315 348.414 48.2627 348.064 48.2627 347.659C48.2627 347.258 48.3315 346.91 48.469 346.615C48.6066 346.32 48.798 346.093 49.0432 345.932C49.2885 345.771 49.5719 345.691 49.8934 345.691C50.142 345.691 50.3383 345.732 50.4825 345.815C50.6284 345.896 50.7394 345.989 50.8156 346.093C50.8935 346.196 50.954 346.281 50.9971 346.347H51.0468V344.468H51.6334V349.559H51.0667V348.972H50.9971C50.954 349.042 50.8927 349.129 50.8131 349.235C50.7336 349.34 50.6201 349.433 50.4726 349.516C50.3251 349.598 50.1287 349.638 49.8834 349.638ZM49.963 349.111C50.1983 349.111 50.3972 349.05 50.5596 348.927C50.722 348.803 50.8455 348.631 50.93 348.413C51.0145 348.192 51.0567 347.938 51.0567 347.65C51.0567 347.364 51.0153 347.115 50.9325 346.901C50.8496 346.686 50.727 346.518 50.5646 346.399C50.4022 346.278 50.2016 346.218 49.963 346.218C49.7144 346.218 49.5073 346.281 49.3415 346.409C49.1775 346.535 49.054 346.707 48.9712 346.924C48.89 347.139 48.8494 347.381 48.8494 347.65C48.8494 347.921 48.8908 348.168 48.9736 348.39C49.0582 348.611 49.1825 348.786 49.3465 348.917C49.5122 349.047 49.7177 349.111 49.963 349.111ZM53.9129 349.648C53.671 349.648 53.4514 349.603 53.2542 349.511C53.057 349.419 52.9004 349.285 52.7844 349.111C52.6684 348.935 52.6104 348.723 52.6104 348.475C52.6104 348.256 52.6535 348.079 52.7396 347.943C52.8258 347.805 52.941 347.698 53.0852 347.62C53.2293 347.542 53.3884 347.484 53.5624 347.446C53.7381 347.406 53.9146 347.374 54.0919 347.351C54.3239 347.321 54.512 347.299 54.6562 347.284C54.802 347.268 54.9081 347.24 54.9744 347.202C55.0423 347.164 55.0763 347.098 55.0763 347.003V346.983C55.0763 346.738 55.0092 346.547 54.8749 346.412C54.7423 346.276 54.541 346.208 54.2709 346.208C53.9908 346.208 53.7712 346.269 53.6121 346.392C53.4531 346.514 53.3412 346.645 53.2766 346.784L52.7197 346.586C52.8192 346.354 52.9517 346.173 53.1175 346.044C53.2848 345.913 53.4671 345.822 53.6643 345.77C53.8632 345.717 54.0588 345.691 54.251 345.691C54.3736 345.691 54.5145 345.706 54.6736 345.735C54.8343 345.764 54.9893 345.822 55.1384 345.912C55.2892 346.001 55.4143 346.136 55.5138 346.317C55.6132 346.498 55.6629 346.74 55.6629 347.043V349.559H55.0763V349.042H55.0464C55.0067 349.124 54.9404 349.213 54.8476 349.308C54.7548 349.402 54.6313 349.482 54.4772 349.549C54.3231 349.615 54.135 349.648 53.9129 349.648ZM54.0024 349.121C54.2344 349.121 54.43 349.076 54.5891 348.984C54.7498 348.893 54.8708 348.776 54.952 348.631C55.0348 348.487 55.0763 348.336 55.0763 348.176V347.64C55.0514 347.669 54.9967 347.697 54.9122 347.722C54.8294 347.745 54.7332 347.766 54.6239 347.784C54.5161 347.8 54.4109 347.815 54.3082 347.828C54.2071 347.84 54.125 347.85 54.0621 347.858C53.9096 347.878 53.7671 347.911 53.6345 347.955C53.5036 347.998 53.3975 348.064 53.3163 348.152C53.2368 348.238 53.197 348.355 53.197 348.505C53.197 348.708 53.2724 348.863 53.4232 348.967C53.5757 349.07 53.7687 349.121 54.0024 349.121ZM58.3942 345.74V346.238H56.4155V345.74H58.3942ZM56.9922 344.826H57.5788V348.465C57.5788 348.631 57.6029 348.755 57.6509 348.838C57.7007 348.919 57.7636 348.974 57.8399 349.002C57.9177 349.028 57.9998 349.042 58.086 349.042C58.1506 349.042 58.2036 349.038 58.245 349.032C58.2865 349.023 58.3196 349.017 58.3445 349.012L58.4638 349.539C58.424 349.554 58.3685 349.569 58.2972 349.583C58.226 349.6 58.1357 349.608 58.0263 349.608C57.8606 349.608 57.6982 349.573 57.5391 349.501C57.3816 349.43 57.2507 349.322 57.1463 349.176C57.0436 349.03 56.9922 348.846 56.9922 348.624V344.826ZM60.8365 349.638C60.4686 349.638 60.1512 349.557 59.8844 349.395C59.6193 349.23 59.4146 349.002 59.2704 348.708C59.1279 348.413 59.0567 348.07 59.0567 347.679C59.0567 347.288 59.1279 346.944 59.2704 346.645C59.4146 346.345 59.6151 346.112 59.872 345.944C60.1305 345.775 60.4321 345.691 60.7768 345.691C60.9757 345.691 61.1721 345.724 61.366 345.79C61.5599 345.856 61.7363 345.964 61.8954 346.113C62.0545 346.261 62.1813 346.456 62.2758 346.7C62.3702 346.944 62.4174 347.243 62.4174 347.6V347.848H59.4743V347.341H61.8209C61.8209 347.126 61.7778 346.934 61.6916 346.765C61.6071 346.596 61.4861 346.462 61.3287 346.364C61.1729 346.267 60.9889 346.218 60.7768 346.218C60.5432 346.218 60.341 346.276 60.1703 346.392C60.0013 346.506 59.8712 346.655 59.78 346.839C59.6889 347.023 59.6433 347.22 59.6433 347.431V347.769C59.6433 348.057 59.693 348.302 59.7924 348.502C59.8935 348.701 60.0336 348.853 60.2125 348.957C60.3915 349.06 60.5995 349.111 60.8365 349.111C60.9906 349.111 61.1298 349.09 61.2541 349.047C61.38 349.002 61.4886 348.935 61.5797 348.848C61.6709 348.758 61.7413 348.647 61.791 348.515L62.3578 348.674C62.2981 348.866 62.1979 349.035 62.057 349.181C61.9161 349.325 61.7421 349.438 61.535 349.519C61.3278 349.598 61.095 349.638 60.8365 349.638ZM64.7516 349.638C64.4334 349.638 64.1525 349.558 63.9089 349.397C63.6653 349.235 63.4747 349.006 63.3372 348.711C63.1996 348.414 63.1309 348.064 63.1309 347.659C63.1309 347.258 63.1996 346.91 63.3372 346.615C63.4747 346.32 63.6661 346.093 63.9114 345.932C64.1567 345.771 64.4401 345.691 64.7616 345.691C65.0101 345.691 65.2065 345.732 65.3507 345.815C65.4965 345.896 65.6076 345.989 65.6838 346.093C65.7617 346.196 65.8222 346.281 65.8652 346.347H65.915V344.468H66.5016V349.559H65.9349V348.972H65.8652C65.8222 349.042 65.7608 349.129 65.6813 349.235C65.6018 349.34 65.4882 349.433 65.3407 349.516C65.1933 349.598 64.9969 349.638 64.7516 349.638ZM64.8312 349.111C65.0665 349.111 65.2653 349.05 65.4277 348.927C65.5902 348.803 65.7136 348.631 65.7981 348.413C65.8826 348.192 65.9249 347.938 65.9249 347.65C65.9249 347.364 65.8835 347.115 65.8006 346.901C65.7178 346.686 65.5951 346.518 65.4327 346.399C65.2703 346.278 65.0698 346.218 64.8312 346.218C64.5826 346.218 64.3754 346.281 64.2097 346.409C64.0456 346.535 63.9222 346.707 63.8393 346.924C63.7581 347.139 63.7175 347.381 63.7175 347.65C63.7175 347.921 63.759 348.168 63.8418 348.39C63.9263 348.611 64.0506 348.786 64.2147 348.917C64.3804 349.047 64.5859 349.111 64.8312 349.111ZM71.2868 345.74V346.238H69.3081V345.74H71.2868ZM69.8848 344.826H70.4714V348.465C70.4714 348.631 70.4955 348.755 70.5435 348.838C70.5932 348.919 70.6562 348.974 70.7324 349.002C70.8103 349.028 70.8924 349.042 70.9785 349.042C71.0432 349.042 71.0962 349.038 71.1376 349.032C71.1791 349.023 71.2122 349.017 71.2371 349.012L71.3564 349.539C71.3166 349.554 71.2611 349.569 71.1898 349.583C71.1186 349.6 71.0282 349.608 70.9189 349.608C70.7532 349.608 70.5907 349.573 70.4317 349.501C70.2742 349.43 70.1433 349.322 70.0389 349.176C69.9362 349.03 69.8848 348.846 69.8848 348.624V344.826ZM73.6793 349.638C73.3346 349.638 73.0322 349.556 72.772 349.392C72.5135 349.228 72.3113 348.998 72.1655 348.703C72.0213 348.408 71.9492 348.064 71.9492 347.669C71.9492 347.272 72.0213 346.924 72.1655 346.628C72.3113 346.331 72.5135 346.101 72.772 345.937C73.0322 345.773 73.3346 345.691 73.6793 345.691C74.024 345.691 74.3257 345.773 74.5842 345.937C74.8444 346.101 75.0465 346.331 75.1907 346.628C75.3365 346.924 75.4095 347.272 75.4095 347.669C75.4095 348.064 75.3365 348.408 75.1907 348.703C75.0465 348.998 74.8444 349.228 74.5842 349.392C74.3257 349.556 74.024 349.638 73.6793 349.638ZM73.6793 349.111C73.9412 349.111 74.1566 349.044 74.3257 348.91C74.4947 348.776 74.6198 348.599 74.701 348.38C74.7822 348.162 74.8228 347.925 74.8228 347.669C74.8228 347.414 74.7822 347.176 74.701 346.956C74.6198 346.736 74.4947 346.557 74.3257 346.422C74.1566 346.286 73.9412 346.218 73.6793 346.218C73.4175 346.218 73.2021 346.286 73.033 346.422C72.864 346.557 72.7389 346.736 72.6577 346.956C72.5765 347.176 72.5359 347.414 72.5359 347.669C72.5359 347.925 72.5765 348.162 72.6577 348.38C72.7389 348.599 72.864 348.776 73.033 348.91C73.2021 349.044 73.4175 349.111 73.6793 349.111ZM77.7467 349.638C77.4285 349.638 77.1477 349.558 76.904 349.397C76.6604 349.235 76.4699 349.006 76.3323 348.711C76.1948 348.414 76.126 348.064 76.126 347.659C76.126 347.258 76.1948 346.91 76.3323 346.615C76.4699 346.32 76.6613 346.093 76.9065 345.932C77.1518 345.771 77.4352 345.691 77.7567 345.691C78.0053 345.691 78.2016 345.732 78.3458 345.815C78.4916 345.896 78.6027 345.989 78.6789 346.093C78.7568 346.196 78.8173 346.281 78.8604 346.347H78.9101V344.468H79.4967V349.559H78.93V348.972H78.8604C78.8173 349.042 78.756 349.129 78.6764 349.235C78.5969 349.34 78.4834 349.433 78.3359 349.516C78.1884 349.598 77.992 349.638 77.7467 349.638ZM77.8263 349.111C78.0616 349.111 78.2605 349.05 78.4229 348.927C78.5853 348.803 78.7087 348.631 78.7932 348.413C78.8778 348.192 78.92 347.938 78.92 347.65C78.92 347.364 78.8786 347.115 78.7957 346.901C78.7129 346.686 78.5902 346.518 78.4278 346.399C78.2654 346.278 78.0649 346.218 77.8263 346.218C77.5777 346.218 77.3705 346.281 77.2048 346.409C77.0408 346.535 76.9173 346.707 76.8344 346.924C76.7532 347.139 76.7126 347.381 76.7126 347.65C76.7126 347.921 76.7541 348.168 76.8369 348.39C76.9214 348.611 77.0457 348.786 77.2098 348.917C77.3755 349.047 77.581 349.111 77.8263 349.111ZM81.7762 349.648C81.5343 349.648 81.3147 349.603 81.1175 349.511C80.9203 349.419 80.7637 349.285 80.6477 349.111C80.5316 348.935 80.4736 348.723 80.4736 348.475C80.4736 348.256 80.5167 348.079 80.6029 347.943C80.6891 347.805 80.8043 347.698 80.9484 347.62C81.0926 347.542 81.2517 347.484 81.4257 347.446C81.6014 347.406 81.7779 347.374 81.9552 347.351C82.1872 347.321 82.3753 347.299 82.5195 347.284C82.6653 347.268 82.7714 347.24 82.8376 347.202C82.9056 347.164 82.9396 347.098 82.9396 347.003V346.983C82.9396 346.738 82.8724 346.547 82.7382 346.412C82.6056 346.276 82.4043 346.208 82.1342 346.208C81.8541 346.208 81.6345 346.269 81.4754 346.392C81.3163 346.514 81.2045 346.645 81.1398 346.784L80.583 346.586C80.6825 346.354 80.815 346.173 80.9807 346.044C81.1481 345.913 81.3304 345.822 81.5276 345.77C81.7265 345.717 81.922 345.691 82.1143 345.691C82.2369 345.691 82.3778 345.706 82.5369 345.735C82.6976 345.764 82.8526 345.822 83.0017 345.912C83.1525 346.001 83.2776 346.136 83.3771 346.317C83.4765 346.498 83.5262 346.74 83.5262 347.043V349.559H82.9396V349.042H82.9097C82.87 349.124 82.8037 349.213 82.7109 349.308C82.6181 349.402 82.4946 349.482 82.3405 349.549C82.1864 349.615 81.9983 349.648 81.7762 349.648ZM81.8657 349.121C82.0977 349.121 82.2932 349.076 82.4523 348.984C82.6131 348.893 82.7341 348.776 82.8153 348.631C82.8981 348.487 82.9396 348.336 82.9396 348.176V347.64C82.9147 347.669 82.86 347.697 82.7755 347.722C82.6926 347.745 82.5965 347.766 82.4871 347.784C82.3794 347.8 82.2742 347.815 82.1714 347.828C82.0704 347.84 81.9883 347.85 81.9254 347.858C81.7729 347.878 81.6304 347.911 81.4978 347.955C81.3669 347.998 81.2608 348.064 81.1796 348.152C81.1001 348.238 81.0603 348.355 81.0603 348.505C81.0603 348.708 81.1357 348.863 81.2865 348.967C81.439 349.07 81.632 349.121 81.8657 349.121ZM84.8381 350.99C84.7387 350.99 84.65 350.982 84.5721 350.966C84.4942 350.951 84.4404 350.936 84.4105 350.921L84.5597 350.404C84.7022 350.44 84.8281 350.453 84.9375 350.444C85.0469 350.434 85.1438 350.385 85.2284 350.297C85.3145 350.211 85.3932 350.071 85.4645 349.877L85.5739 349.578L84.1619 345.74H84.7983L85.8523 348.783H85.8921L86.946 345.74H87.5824L85.9617 350.115C85.8887 350.313 85.7984 350.476 85.6907 350.605C85.583 350.736 85.4579 350.833 85.3154 350.896C85.1745 350.959 85.0154 350.99 84.8381 350.99ZM91.4491 349.648C91.2071 349.648 90.9875 349.603 90.7903 349.511C90.5931 349.419 90.4365 349.285 90.3205 349.111C90.2045 348.935 90.1465 348.723 90.1465 348.475C90.1465 348.256 90.1896 348.079 90.2758 347.943C90.3619 347.805 90.4771 347.698 90.6213 347.62C90.7655 347.542 90.9246 347.484 91.0986 347.446C91.2742 347.406 91.4507 347.374 91.628 347.351C91.86 347.321 92.0481 347.299 92.1923 347.284C92.3381 347.268 92.4442 347.24 92.5105 347.202C92.5784 347.164 92.6124 347.098 92.6124 347.003V346.983C92.6124 346.738 92.5453 346.547 92.4111 346.412C92.2785 346.276 92.0771 346.208 91.807 346.208C91.5269 346.208 91.3074 346.269 91.1483 346.392C90.9892 346.514 90.8773 346.645 90.8127 346.784L90.2559 346.586C90.3553 346.354 90.4879 346.173 90.6536 346.044C90.821 345.913 91.0033 345.822 91.2005 345.77C91.3993 345.717 91.5949 345.691 91.7871 345.691C91.9098 345.691 92.0506 345.706 92.2097 345.735C92.3705 345.764 92.5254 345.822 92.6746 345.912C92.8254 346.001 92.9505 346.136 93.0499 346.317C93.1493 346.498 93.1991 346.74 93.1991 347.043V349.559H92.6124V349.042H92.5826C92.5428 349.124 92.4765 349.213 92.3837 349.308C92.2909 349.402 92.1675 349.482 92.0133 349.549C91.8592 349.615 91.6711 349.648 91.4491 349.648ZM91.5385 349.121C91.7706 349.121 91.9661 349.076 92.1252 348.984C92.2859 348.893 92.4069 348.776 92.4881 348.631C92.571 348.487 92.6124 348.336 92.6124 348.176V347.64C92.5875 347.669 92.5329 347.697 92.4483 347.722C92.3655 347.745 92.2694 347.766 92.16 347.784C92.0523 347.8 91.947 347.815 91.8443 347.828C91.7432 347.84 91.6612 347.85 91.5982 347.858C91.4457 347.878 91.3032 347.911 91.1706 347.955C91.0397 347.998 90.9337 348.064 90.8525 348.152C90.7729 348.238 90.7331 348.355 90.7331 348.505C90.7331 348.708 90.8085 348.863 90.9594 348.967C91.1118 349.07 91.3049 349.121 91.5385 349.121ZM95.9303 345.74V346.238H93.9516V345.74H95.9303ZM94.5283 344.826H95.115V348.465C95.115 348.631 95.139 348.755 95.1871 348.838C95.2368 348.919 95.2998 348.974 95.376 349.002C95.4539 349.028 95.5359 349.042 95.6221 349.042C95.6867 349.042 95.7397 349.038 95.7812 349.032C95.8226 349.023 95.8557 349.017 95.8806 349.012L95.9999 349.539C95.9602 349.554 95.9046 349.569 95.8334 349.583C95.7621 349.6 95.6718 349.608 95.5624 349.608C95.3967 349.608 95.2343 349.573 95.0752 349.501C94.9178 349.43 94.7869 349.322 94.6825 349.176C94.5797 349.03 94.5283 348.846 94.5283 348.624V344.826ZM102.401 349.628C102.026 349.628 101.707 349.526 101.444 349.322C101.18 349.117 100.979 348.819 100.84 348.43C100.701 348.039 100.631 347.567 100.631 347.013C100.631 346.463 100.701 345.993 100.84 345.604C100.981 345.213 101.183 344.914 101.446 344.709C101.711 344.502 102.03 344.398 102.401 344.398C102.772 344.398 103.089 344.502 103.353 344.709C103.618 344.914 103.82 345.213 103.959 345.604C104.1 345.993 104.171 346.463 104.171 347.013C104.171 347.567 104.101 348.039 103.962 348.43C103.823 348.819 103.621 349.117 103.358 349.322C103.094 349.526 102.775 349.628 102.401 349.628ZM102.401 349.081C102.772 349.081 103.06 348.902 103.266 348.544C103.471 348.186 103.574 347.676 103.574 347.013C103.574 346.572 103.527 346.197 103.432 345.887C103.34 345.577 103.205 345.341 103.03 345.179C102.856 345.016 102.646 344.935 102.401 344.935C102.033 344.935 101.745 345.116 101.538 345.479C101.331 345.841 101.228 346.352 101.228 347.013C101.228 347.454 101.274 347.828 101.367 348.137C101.46 348.445 101.593 348.679 101.767 348.84C101.943 349.001 102.154 349.081 102.401 349.081ZM105.138 349.559L107.415 345.054V345.015H104.79V344.468H108.051V345.044L105.784 349.559H105.138ZM109.176 348.907C109.053 348.907 108.948 348.863 108.86 348.776C108.772 348.688 108.728 348.583 108.728 348.46C108.728 348.337 108.772 348.232 108.86 348.144C108.948 348.056 109.053 348.012 109.176 348.012C109.299 348.012 109.404 348.056 109.492 348.144C109.579 348.232 109.623 348.337 109.623 348.46C109.623 348.541 109.603 348.616 109.561 348.684C109.521 348.752 109.468 348.806 109.4 348.848C109.333 348.887 109.259 348.907 109.176 348.907ZM109.176 346.332C109.053 346.332 108.948 346.288 108.86 346.2C108.772 346.112 108.728 346.007 108.728 345.885C108.728 345.762 108.772 345.657 108.86 345.569C108.948 345.481 109.053 345.437 109.176 345.437C109.299 345.437 109.404 345.481 109.492 345.569C109.579 345.657 109.623 345.762 109.623 345.885C109.623 345.966 109.603 346.04 109.561 346.108C109.521 346.176 109.468 346.231 109.4 346.272C109.333 346.312 109.259 346.332 109.176 346.332ZM112.386 349.628C112.058 349.628 111.766 349.572 111.509 349.459C111.254 349.346 111.051 349.19 110.9 348.989C110.751 348.787 110.669 348.553 110.656 348.286H111.283C111.296 348.45 111.352 348.592 111.452 348.711C111.551 348.829 111.681 348.92 111.842 348.984C112.003 349.049 112.181 349.081 112.376 349.081C112.595 349.081 112.789 349.043 112.958 348.967C113.127 348.891 113.26 348.785 113.356 348.649C113.452 348.513 113.5 348.355 113.5 348.176C113.5 347.989 113.454 347.824 113.361 347.682C113.268 347.538 113.132 347.425 112.953 347.344C112.774 347.263 112.555 347.222 112.297 347.222H111.889V346.675H112.297C112.499 346.675 112.676 346.639 112.829 346.566C112.983 346.493 113.103 346.39 113.189 346.257C113.277 346.125 113.321 345.969 113.321 345.79C113.321 345.618 113.283 345.468 113.207 345.34C113.13 345.213 113.023 345.113 112.883 345.042C112.746 344.971 112.583 344.935 112.396 344.935C112.221 344.935 112.055 344.967 111.899 345.032C111.745 345.095 111.619 345.187 111.521 345.308C111.423 345.427 111.37 345.571 111.362 345.74H110.766C110.775 345.474 110.856 345.24 111.007 345.039C111.157 344.837 111.355 344.68 111.598 344.567C111.844 344.454 112.113 344.398 112.406 344.398C112.721 344.398 112.991 344.462 113.217 344.589C113.442 344.715 113.615 344.882 113.736 345.089C113.857 345.296 113.918 345.52 113.918 345.76C113.918 346.047 113.842 346.291 113.691 346.494C113.542 346.696 113.339 346.836 113.082 346.914V346.953C113.404 347.007 113.655 347.143 113.836 347.364C114.016 347.582 114.106 347.853 114.106 348.176C114.106 348.453 114.031 348.702 113.88 348.922C113.731 349.141 113.527 349.313 113.269 349.439C113.01 349.565 112.716 349.628 112.386 349.628ZM116.784 349.628C116.409 349.628 116.09 349.526 115.827 349.322C115.563 349.117 115.362 348.819 115.223 348.43C115.083 348.039 115.014 347.567 115.014 347.013C115.014 346.463 115.083 345.993 115.223 345.604C115.363 345.213 115.566 344.914 115.829 344.709C116.094 344.502 116.412 344.398 116.784 344.398C117.155 344.398 117.472 344.502 117.736 344.709C118.001 344.914 118.203 345.213 118.342 345.604C118.483 345.993 118.554 346.463 118.554 347.013C118.554 347.567 118.484 348.039 118.345 348.43C118.206 348.819 118.004 349.117 117.741 349.322C117.477 349.526 117.158 349.628 116.784 349.628ZM116.784 349.081C117.155 349.081 117.443 348.902 117.649 348.544C117.854 348.186 117.957 347.676 117.957 347.013C117.957 346.572 117.91 346.197 117.815 345.887C117.722 345.577 117.588 345.341 117.413 345.179C117.239 345.016 117.029 344.935 116.784 344.935C116.416 344.935 116.128 345.116 115.921 345.479C115.714 345.841 115.61 346.352 115.61 347.013C115.61 347.454 115.657 347.828 115.75 348.137C115.842 348.445 115.976 348.679 116.15 348.84C116.325 349.001 116.537 349.081 116.784 349.081Z" fill="#9D9D9D"/>
<path id="PastDueInvoicesNumber" d="M271.782 307.117V299.844H274.239C274.809 299.844 275.276 299.947 275.638 300.153C276.003 300.357 276.273 300.633 276.448 300.981C276.623 301.329 276.711 301.717 276.711 302.146C276.711 302.574 276.623 302.963 276.448 303.314C276.275 303.664 276.007 303.944 275.645 304.152C275.283 304.358 274.819 304.461 274.253 304.461H272.492V303.68H274.225C274.615 303.68 274.929 303.612 275.166 303.477C275.403 303.342 275.574 303.16 275.681 302.93C275.79 302.698 275.844 302.437 275.844 302.146C275.844 301.854 275.79 301.594 275.681 301.364C275.574 301.135 275.401 300.955 275.162 300.825C274.923 300.692 274.606 300.626 274.211 300.626H272.662V307.117H271.782ZM278.129 307.117V299.844H279.01V306.336H282.391V307.117H278.129ZM289.521 299.844V307.117H288.669L284.706 301.407H284.635V307.117H283.754V299.844H284.606L288.584 305.569H288.655V299.844H289.521ZM293.712 299.844V307.117H292.832V300.768H292.789L291.014 301.947V301.052L292.832 299.844H293.712ZM298.361 299.844V307.117H297.48V300.768H297.438L295.662 301.947V301.052L297.48 299.844H298.361ZM301.287 306.123L301.23 306.506C301.19 306.776 301.128 307.065 301.046 307.373C300.965 307.681 300.881 307.971 300.793 308.243C300.706 308.515 300.634 308.732 300.577 308.893H299.938C299.968 308.741 300.009 308.541 300.058 308.293C300.108 308.044 300.158 307.766 300.208 307.458C300.26 307.153 300.302 306.84 300.335 306.521L300.378 306.123H301.287ZM305.073 299.745C305.371 299.747 305.669 299.804 305.967 299.915C306.266 300.027 306.538 300.211 306.784 300.469C307.03 300.725 307.228 301.074 307.377 301.517C307.526 301.96 307.601 302.515 307.601 303.182C307.601 303.829 307.539 304.403 307.416 304.905C307.296 305.404 307.12 305.826 306.891 306.169C306.663 306.512 306.386 306.773 306.06 306.95C305.735 307.128 305.369 307.217 304.959 307.217C304.552 307.217 304.188 307.136 303.869 306.975C303.552 306.812 303.291 306.586 303.087 306.297C302.886 306.006 302.757 305.668 302.7 305.285H303.567C303.645 305.619 303.8 305.894 304.032 306.112C304.266 306.328 304.575 306.435 304.959 306.435C305.52 306.435 305.963 306.19 306.287 305.7C306.614 305.21 306.777 304.518 306.777 303.623H306.72C306.588 303.822 306.43 303.993 306.248 304.138C306.066 304.282 305.863 304.393 305.641 304.472C305.418 304.55 305.181 304.589 304.931 304.589C304.514 304.589 304.132 304.486 303.784 304.28C303.438 304.071 303.161 303.786 302.953 303.424C302.747 303.059 302.644 302.643 302.644 302.174C302.644 301.729 302.743 301.322 302.942 300.952C303.143 300.581 303.425 300.285 303.787 300.065C304.152 299.844 304.58 299.738 305.073 299.745ZM305.073 300.526C304.774 300.526 304.506 300.601 304.266 300.75C304.03 300.897 303.842 301.096 303.702 301.347C303.565 301.595 303.496 301.871 303.496 302.174C303.496 302.477 303.562 302.753 303.695 303.001C303.83 303.248 304.013 303.444 304.245 303.591C304.48 303.735 304.746 303.807 305.044 303.807C305.269 303.807 305.479 303.764 305.673 303.676C305.867 303.586 306.036 303.464 306.181 303.31C306.327 303.154 306.442 302.978 306.525 302.781C306.608 302.582 306.649 302.375 306.649 302.16C306.649 301.876 306.581 301.609 306.443 301.361C306.308 301.112 306.121 300.911 305.882 300.757C305.645 300.603 305.376 300.526 305.073 300.526ZM311.554 299.844V307.117H310.674V300.768H310.631L308.855 301.947V301.052L310.674 299.844H311.554ZM316.018 307.217C315.483 307.217 315.027 307.071 314.651 306.78C314.274 306.486 313.987 306.061 313.788 305.505C313.589 304.946 313.49 304.271 313.49 303.481C313.49 302.695 313.589 302.024 313.788 301.467C313.989 300.909 314.278 300.482 314.654 300.189C315.033 299.893 315.488 299.745 316.018 299.745C316.548 299.745 317.002 299.893 317.378 300.189C317.757 300.482 318.046 300.909 318.245 301.467C318.446 302.024 318.546 302.695 318.546 303.481C318.546 304.271 318.447 304.946 318.248 305.505C318.049 306.061 317.762 306.486 317.385 306.78C317.009 307.071 316.553 307.217 316.018 307.217ZM316.018 306.435C316.548 306.435 316.96 306.18 317.254 305.668C317.547 305.157 317.694 304.428 317.694 303.481C317.694 302.851 317.627 302.315 317.492 301.872C317.359 301.429 317.167 301.092 316.917 300.86C316.668 300.628 316.368 300.512 316.018 300.512C315.492 300.512 315.082 300.771 314.786 301.29C314.49 301.806 314.342 302.536 314.342 303.481C314.342 304.11 314.408 304.646 314.541 305.086C314.673 305.526 314.864 305.861 315.113 306.091C315.363 306.32 315.665 306.435 316.018 306.435ZM320.267 307.174C320.092 307.174 319.941 307.111 319.816 306.986C319.691 306.86 319.628 306.71 319.628 306.535C319.628 306.36 319.691 306.209 319.816 306.084C319.941 305.958 320.092 305.896 320.267 305.896C320.442 305.896 320.593 305.958 320.718 306.084C320.843 306.209 320.906 306.36 320.906 306.535C320.906 306.651 320.877 306.757 320.817 306.854C320.761 306.951 320.684 307.03 320.587 307.089C320.492 307.146 320.385 307.174 320.267 307.174ZM324.514 307.217C323.979 307.217 323.523 307.071 323.147 306.78C322.771 306.486 322.483 306.061 322.284 305.505C322.085 304.946 321.986 304.271 321.986 303.481C321.986 302.695 322.085 302.024 322.284 301.467C322.485 300.909 322.774 300.482 323.151 300.189C323.529 299.893 323.984 299.745 324.514 299.745C325.044 299.745 325.498 299.893 325.874 300.189C326.253 300.482 326.542 300.909 326.741 301.467C326.942 302.024 327.043 302.695 327.043 303.481C327.043 304.271 326.943 304.946 326.744 305.505C326.545 306.061 326.258 306.486 325.881 306.78C325.505 307.071 325.049 307.217 324.514 307.217ZM324.514 306.435C325.044 306.435 325.456 306.18 325.75 305.668C326.044 305.157 326.19 304.428 326.19 303.481C326.19 302.851 326.123 302.315 325.988 301.872C325.855 301.429 325.664 301.092 325.413 300.86C325.164 300.628 324.865 300.512 324.514 300.512C323.989 300.512 323.578 300.771 323.282 301.29C322.986 301.806 322.838 302.536 322.838 303.481C322.838 304.11 322.904 304.646 323.037 305.086C323.169 305.526 323.36 305.861 323.609 306.091C323.86 306.32 324.161 306.435 324.514 306.435ZM330.764 307.217C330.229 307.217 329.773 307.071 329.397 306.78C329.021 306.486 328.733 306.061 328.534 305.505C328.335 304.946 328.236 304.271 328.236 303.481C328.236 302.695 328.335 302.024 328.534 301.467C328.735 300.909 329.024 300.482 329.401 300.189C329.779 299.893 330.234 299.745 330.764 299.745C331.294 299.745 331.748 299.893 332.124 300.189C332.503 300.482 332.792 300.909 332.991 301.467C333.192 302.024 333.293 302.695 333.293 303.481C333.293 304.271 333.193 304.946 332.994 305.505C332.795 306.061 332.508 306.486 332.131 306.78C331.755 307.071 331.299 307.217 330.764 307.217ZM330.764 306.435C331.294 306.435 331.706 306.18 332 305.668C332.294 305.157 332.44 304.428 332.44 303.481C332.44 302.851 332.373 302.315 332.238 301.872C332.105 301.429 331.914 301.092 331.663 300.86C331.414 300.628 331.115 300.512 330.764 300.512C330.239 300.512 329.828 300.771 329.532 301.29C329.236 301.806 329.088 302.536 329.088 303.481C329.088 304.11 329.154 304.646 329.287 305.086C329.419 305.526 329.61 305.861 329.859 306.091C330.11 306.32 330.411 306.435 330.764 306.435Z" fill="black"/>
<path id="InvoicesPastDue" d="M63.7996 305.369V298.097H66.257C66.8275 298.097 67.2939 298.2 67.6561 298.406C68.0207 298.609 68.2906 298.885 68.4658 299.233C68.641 299.581 68.7286 299.969 68.7286 300.398C68.7286 300.826 68.641 301.216 68.4658 301.566C68.293 301.916 68.0254 302.196 67.6632 302.404C67.301 302.61 66.837 302.713 66.2712 302.713H64.5098V301.932H66.2428C66.6334 301.932 66.9471 301.864 67.1838 301.729C67.4206 301.595 67.5922 301.412 67.6987 301.183C67.8076 300.951 67.8621 300.689 67.8621 300.398C67.8621 300.107 67.8076 299.846 67.6987 299.617C67.5922 299.387 67.4194 299.207 67.1803 299.077C66.9412 298.944 66.6239 298.878 66.2286 298.878H64.6803V305.369H63.7996ZM71.6387 305.497C71.2931 305.497 70.9794 305.432 70.6977 305.302C70.416 305.169 70.1922 304.979 70.0265 304.73C69.8608 304.479 69.7779 304.176 69.7779 303.821C69.7779 303.509 69.8395 303.255 69.9626 303.061C70.0857 302.865 70.2502 302.711 70.4562 302.599C70.6622 302.488 70.8894 302.405 71.138 302.351C71.389 302.294 71.6411 302.249 71.8944 302.216C72.2259 302.173 72.4946 302.141 72.7005 302.12C72.9089 302.096 73.0604 302.057 73.1551 302.003C73.2521 301.948 73.3007 301.854 73.3007 301.719V301.69C73.3007 301.34 73.2048 301.068 73.013 300.874C72.8236 300.68 72.536 300.582 72.1501 300.582C71.75 300.582 71.4363 300.67 71.209 300.845C70.9818 301.02 70.822 301.207 70.7296 301.406L69.9342 301.122C70.0762 300.791 70.2656 300.533 70.5024 300.348C70.7415 300.161 71.0019 300.031 71.2836 299.957C71.5677 299.882 71.8471 299.844 72.1217 299.844C72.2969 299.844 72.4981 299.865 72.7254 299.908C72.955 299.948 73.1764 300.032 73.3894 300.16C73.6049 300.288 73.7836 300.481 73.9257 300.739C74.0677 300.997 74.1387 301.342 74.1387 301.776V305.369H73.3007V304.631H73.258C73.2012 304.749 73.1065 304.876 72.974 305.011C72.8414 305.146 72.665 305.26 72.4448 305.355C72.2247 305.45 71.956 305.497 71.6387 305.497ZM71.7666 304.744C72.098 304.744 72.3774 304.679 72.6046 304.549C72.8343 304.419 73.0071 304.251 73.1231 304.045C73.2415 303.839 73.3007 303.622 73.3007 303.395V302.628C73.2652 302.671 73.187 302.71 73.0663 302.745C72.9479 302.778 72.8106 302.808 72.6544 302.834C72.5005 302.858 72.3501 302.879 72.2034 302.898C72.0589 302.914 71.9418 302.929 71.8518 302.94C71.634 302.969 71.4304 303.015 71.241 303.079C71.054 303.14 70.9025 303.234 70.7865 303.359C70.6728 303.483 70.616 303.651 70.616 303.864C70.616 304.155 70.7237 304.375 70.9392 304.524C71.157 304.671 71.4328 304.744 71.7666 304.744ZM79.532 301.136L78.7792 301.349C78.7318 301.224 78.662 301.102 78.5697 300.984C78.4797 300.863 78.3566 300.764 78.2003 300.685C78.0441 300.607 77.844 300.568 77.6002 300.568C77.2664 300.568 76.9882 300.645 76.7657 300.799C76.5455 300.951 76.4354 301.144 76.4354 301.378C76.4354 301.586 76.5112 301.751 76.6627 301.872C76.8142 301.992 77.051 302.093 77.3729 302.173L78.1826 302.372C78.6703 302.491 79.0337 302.672 79.2728 302.916C79.5119 303.157 79.6315 303.468 79.6315 303.849C79.6315 304.162 79.5415 304.441 79.3616 304.688C79.184 304.934 78.9354 305.128 78.6158 305.27C78.2962 305.412 77.9245 305.483 77.5008 305.483C76.9444 305.483 76.484 305.362 76.1194 305.121C75.7548 304.879 75.524 304.527 75.4269 304.063L76.2224 303.864C76.2981 304.157 76.4413 304.377 76.652 304.524C76.8651 304.671 77.1433 304.744 77.4866 304.744C77.8772 304.744 78.1873 304.662 78.417 304.496C78.649 304.328 78.765 304.126 78.765 303.892C78.765 303.703 78.6987 303.544 78.5661 303.416C78.4335 303.286 78.2299 303.189 77.9553 303.125L77.0462 302.912C76.5467 302.794 76.1797 302.61 75.9454 302.362C75.7134 302.111 75.5974 301.797 75.5974 301.421C75.5974 301.113 75.6838 300.841 75.8566 300.604C76.0318 300.367 76.2697 300.181 76.5704 300.046C76.8734 299.911 77.2167 299.844 77.6002 299.844C78.14 299.844 78.5637 299.962 78.8715 300.199C79.1816 300.436 79.4018 300.748 79.532 301.136ZM83.2652 299.915V300.625H80.4384V299.915H83.2652ZM81.2623 298.608H82.1004V303.807C82.1004 304.044 82.1347 304.221 82.2034 304.34C82.2744 304.456 82.3643 304.534 82.4732 304.574C82.5845 304.612 82.7017 304.631 82.8248 304.631C82.9171 304.631 82.9929 304.626 83.0521 304.617C83.1113 304.605 83.1586 304.595 83.1941 304.588L83.3646 305.341C83.3078 305.362 83.2285 305.384 83.1267 305.405C83.0249 305.429 82.8958 305.44 82.7396 305.44C82.5028 305.44 82.2708 305.39 82.0436 305.288C81.8187 305.186 81.6316 305.031 81.4825 304.823C81.3357 304.614 81.2623 304.351 81.2623 304.034V298.608ZM89.398 305.483C88.9434 305.483 88.5421 305.368 88.1941 305.139C87.8461 304.907 87.5739 304.58 87.3774 304.158C87.1809 303.735 87.0826 303.234 87.0826 302.656C87.0826 302.083 87.1809 301.586 87.3774 301.165C87.5739 300.743 87.8473 300.418 88.1977 300.188C88.5481 299.959 88.9529 299.844 89.4122 299.844C89.7673 299.844 90.0478 299.903 90.2538 300.021C90.4621 300.137 90.6207 300.27 90.7296 300.419C90.8409 300.566 90.9273 300.687 90.9889 300.781H91.0599V298.097H91.898V305.369H91.0883V304.531H90.9889C90.9273 304.631 90.8397 304.756 90.7261 304.908C90.6125 305.057 90.4503 305.191 90.2396 305.309C90.0289 305.425 89.7483 305.483 89.398 305.483ZM89.5116 304.73C89.8478 304.73 90.1319 304.643 90.3639 304.467C90.5959 304.29 90.7723 304.045 90.893 303.732C91.0137 303.417 91.0741 303.054 91.0741 302.642C91.0741 302.235 91.0149 301.879 90.8965 301.573C90.7782 301.265 90.603 301.026 90.371 300.856C90.139 300.683 89.8525 300.597 89.5116 300.597C89.1565 300.597 88.8606 300.688 88.6238 300.87C88.3894 301.05 88.2131 301.295 88.0947 301.605C87.9787 301.913 87.9207 302.259 87.9207 302.642C87.9207 303.03 87.9799 303.383 88.0982 303.7C88.219 304.015 88.3965 304.266 88.6309 304.453C88.8677 304.638 89.1612 304.73 89.5116 304.73ZM96.9867 303.139V299.915H97.8248V305.369H96.9867V304.446H96.9299C96.8021 304.723 96.6032 304.959 96.3333 305.153C96.0634 305.345 95.7225 305.44 95.3106 305.44C94.9697 305.44 94.6667 305.366 94.4015 305.217C94.1364 305.065 93.928 304.838 93.7765 304.535C93.625 304.229 93.5492 303.845 93.5492 303.381V299.915H94.3873V303.324C94.3873 303.722 94.4986 304.039 94.7211 304.276C94.946 304.512 95.2325 304.631 95.5805 304.631C95.7888 304.631 96.0007 304.577 96.2161 304.471C96.4339 304.364 96.6162 304.201 96.763 303.981C96.9122 303.761 96.9867 303.48 96.9867 303.139ZM101.647 305.483C101.121 305.483 100.668 305.367 100.287 305.135C99.9078 304.901 99.6155 304.574 99.4095 304.155C99.2059 303.733 99.1041 303.243 99.1041 302.685C99.1041 302.126 99.2059 301.634 99.4095 301.207C99.6155 300.779 99.9019 300.445 100.269 300.206C100.638 299.965 101.069 299.844 101.561 299.844C101.846 299.844 102.126 299.891 102.403 299.986C102.68 300.081 102.932 300.234 103.16 300.448C103.387 300.658 103.568 300.938 103.703 301.286C103.838 301.634 103.905 302.062 103.905 302.571V302.926H99.7007V302.202H103.053C103.053 301.894 102.991 301.619 102.868 301.378C102.748 301.136 102.575 300.946 102.35 300.806C102.127 300.666 101.865 300.597 101.561 300.597C101.228 300.597 100.939 300.68 100.695 300.845C100.454 301.009 100.268 301.222 100.137 301.484C100.007 301.747 99.9422 302.029 99.9422 302.33V302.813C99.9422 303.224 100.013 303.574 100.155 303.86C100.3 304.144 100.5 304.361 100.755 304.51C101.011 304.657 101.308 304.73 101.647 304.73C101.867 304.73 102.066 304.699 102.243 304.638C102.423 304.574 102.578 304.479 102.709 304.354C102.839 304.226 102.939 304.067 103.01 303.878L103.82 304.105C103.735 304.38 103.592 304.621 103.39 304.83C103.189 305.036 102.941 305.197 102.645 305.313C102.349 305.426 102.016 305.483 101.647 305.483Z" fill="#9D9D9D"/>
<rect id="PastDueRectangle" x="38.4504" y="300.613" width="10.4865" height="10.4865" rx="1" fill="#FF0099"/>
<line id="Divider2" x1="38.4507" y1="270.651" x2="381.009" y2="270.651" stroke="#D9D9D9" stroke-width="0.5"/>
<path id="OpenInvoicesNumber" d="M263.043 233.712V226.439H265.5C266.071 226.439 266.537 226.542 266.899 226.748C267.264 226.952 267.534 227.227 267.709 227.575C267.884 227.923 267.972 228.312 267.972 228.74C267.972 229.169 267.884 229.558 267.709 229.908C267.536 230.259 267.269 230.538 266.906 230.747C266.544 230.952 266.08 231.055 265.514 231.055H263.753V230.274H265.486C265.877 230.274 266.19 230.207 266.427 230.072C266.664 229.937 266.835 229.755 266.942 229.525C267.051 229.293 267.105 229.031 267.105 228.74C267.105 228.449 267.051 228.189 266.942 227.959C266.835 227.729 266.663 227.549 266.424 227.419C266.184 227.287 265.867 227.22 265.472 227.22H263.924V233.712H263.043ZM269.391 233.712V226.439H270.271V232.93H273.652V233.712H269.391ZM280.783 226.439V233.712H279.93L275.967 228.002H275.896V233.712H275.016V226.439H275.868L279.845 232.163H279.916V226.439H280.783ZM282.417 233.712V233.073L284.818 230.445C285.099 230.137 285.331 229.869 285.514 229.642C285.696 229.412 285.831 229.197 285.918 228.996C286.008 228.792 286.053 228.579 286.053 228.357C286.053 228.101 285.992 227.88 285.869 227.693C285.748 227.506 285.582 227.361 285.372 227.259C285.161 227.158 284.924 227.107 284.661 227.107C284.382 227.107 284.138 227.165 283.93 227.281C283.724 227.394 283.564 227.554 283.45 227.76C283.339 227.966 283.283 228.207 283.283 228.484H282.445C282.445 228.058 282.544 227.684 282.74 227.362C282.937 227.04 283.204 226.789 283.543 226.609C283.884 226.43 284.266 226.34 284.69 226.34C285.116 226.34 285.493 226.43 285.823 226.609C286.152 226.789 286.41 227.032 286.597 227.337C286.784 227.643 286.877 227.983 286.877 228.357C286.877 228.624 286.829 228.886 286.732 229.141C286.637 229.395 286.471 229.678 286.234 229.99C286 230.3 285.675 230.679 285.258 231.127L283.624 232.874V232.93H287.005V233.712H282.417ZM290.929 233.811C290.46 233.811 290.042 233.731 289.675 233.57C289.311 233.409 289.021 233.185 288.805 232.899C288.592 232.61 288.476 232.275 288.457 231.894H289.352C289.371 232.128 289.452 232.33 289.594 232.501C289.736 232.669 289.922 232.799 290.151 232.891C290.381 232.984 290.635 233.03 290.915 233.03C291.227 233.03 291.504 232.975 291.746 232.867C291.987 232.758 292.177 232.606 292.314 232.412C292.451 232.218 292.52 231.993 292.52 231.737C292.52 231.47 292.454 231.234 292.321 231.031C292.189 230.825 291.994 230.664 291.739 230.548C291.483 230.432 291.171 230.374 290.801 230.374H290.219V229.592H290.801C291.09 229.592 291.343 229.54 291.561 229.436C291.781 229.332 291.953 229.185 292.076 228.996C292.202 228.806 292.264 228.584 292.264 228.328C292.264 228.082 292.21 227.868 292.101 227.685C291.992 227.503 291.838 227.361 291.639 227.259C291.443 227.158 291.211 227.107 290.943 227.107C290.692 227.107 290.456 227.153 290.233 227.245C290.013 227.335 289.833 227.466 289.693 227.639C289.554 227.81 289.478 228.016 289.466 228.257H288.614C288.628 227.876 288.743 227.542 288.958 227.256C289.174 226.967 289.455 226.742 289.803 226.581C290.154 226.42 290.538 226.34 290.957 226.34C291.407 226.34 291.793 226.431 292.115 226.613C292.437 226.793 292.684 227.031 292.857 227.327C293.03 227.623 293.117 227.942 293.117 228.286C293.117 228.695 293.009 229.044 292.793 229.333C292.58 229.622 292.29 229.822 291.923 229.933V229.99C292.383 230.066 292.741 230.261 292.999 230.576C293.257 230.889 293.386 231.276 293.386 231.737C293.386 232.133 293.279 232.488 293.063 232.803C292.85 233.115 292.559 233.361 292.19 233.541C291.82 233.721 291.4 233.811 290.929 233.811ZM295.878 232.717L295.822 233.101C295.781 233.371 295.72 233.66 295.637 233.967C295.556 234.275 295.472 234.565 295.385 234.837C295.297 235.11 295.225 235.326 295.168 235.487H294.529C294.56 235.336 294.6 235.136 294.65 234.887C294.699 234.639 294.749 234.36 294.799 234.053C294.851 233.747 294.894 233.435 294.927 233.115L294.969 232.717H295.878ZM297.247 232.22V231.496L300.443 226.439H300.968V227.561H300.613L298.198 231.382V231.439H302.502V232.22H297.247ZM300.67 233.712V232V231.663V226.439H301.508V233.712H300.67ZM303.833 233.712V233.073L306.234 230.445C306.515 230.137 306.747 229.869 306.93 229.642C307.112 229.412 307.247 229.197 307.334 228.996C307.424 228.792 307.469 228.579 307.469 228.357C307.469 228.101 307.408 227.88 307.285 227.693C307.164 227.506 306.998 227.361 306.788 227.259C306.577 227.158 306.34 227.107 306.077 227.107C305.798 227.107 305.554 227.165 305.346 227.281C305.14 227.394 304.98 227.554 304.866 227.76C304.755 227.966 304.699 228.207 304.699 228.484H303.861C303.861 228.058 303.96 227.684 304.156 227.362C304.353 227.04 304.62 226.789 304.959 226.609C305.3 226.43 305.682 226.34 306.106 226.34C306.532 226.34 306.909 226.43 307.239 226.609C307.568 226.789 307.826 227.032 308.013 227.337C308.2 227.643 308.293 227.983 308.293 228.357C308.293 228.624 308.245 228.886 308.148 229.141C308.053 229.395 307.887 229.678 307.65 229.99C307.416 230.3 307.091 230.679 306.674 231.127L305.04 232.874V232.93H308.421V233.712H303.833ZM312.26 233.811C311.725 233.811 311.269 233.666 310.893 233.374C310.516 233.081 310.229 232.656 310.03 232.1C309.831 231.541 309.731 230.866 309.731 230.075C309.731 229.289 309.831 228.618 310.03 228.062C310.231 227.503 310.52 227.077 310.896 226.783C311.275 226.488 311.73 226.34 312.26 226.34C312.79 226.34 313.243 226.488 313.62 226.783C313.999 227.077 314.288 227.503 314.486 228.062C314.688 228.618 314.788 229.289 314.788 230.075C314.788 230.866 314.689 231.541 314.49 232.1C314.291 232.656 314.003 233.081 313.627 233.374C313.251 233.666 312.795 233.811 312.26 233.811ZM312.26 233.03C312.79 233.03 313.202 232.774 313.496 232.263C313.789 231.752 313.936 231.022 313.936 230.075C313.936 229.446 313.868 228.909 313.734 228.467C313.601 228.024 313.409 227.687 313.158 227.455C312.91 227.223 312.61 227.107 312.26 227.107C311.734 227.107 311.324 227.366 311.028 227.884C310.732 228.4 310.584 229.131 310.584 230.075C310.584 230.705 310.65 231.24 310.783 231.68C310.915 232.121 311.106 232.456 311.354 232.685C311.605 232.915 311.907 233.03 312.26 233.03ZM316.509 233.769C316.334 233.769 316.183 233.706 316.058 233.58C315.932 233.455 315.87 233.305 315.87 233.129C315.87 232.954 315.932 232.804 316.058 232.678C316.183 232.553 316.334 232.49 316.509 232.49C316.684 232.49 316.834 232.553 316.96 232.678C317.085 232.804 317.148 232.954 317.148 233.129C317.148 233.245 317.118 233.352 317.059 233.449C317.002 233.546 316.925 233.624 316.828 233.683C316.734 233.74 316.627 233.769 316.509 233.769ZM320.756 233.811C320.221 233.811 319.765 233.666 319.389 233.374C319.012 233.081 318.725 232.656 318.526 232.1C318.327 231.541 318.228 230.866 318.228 230.075C318.228 229.289 318.327 228.618 318.526 228.062C318.727 227.503 319.016 227.077 319.392 226.783C319.771 226.488 320.226 226.34 320.756 226.34C321.286 226.34 321.74 226.488 322.116 226.783C322.495 227.077 322.784 227.503 322.982 228.062C323.184 228.618 323.284 229.289 323.284 230.075C323.284 230.866 323.185 231.541 322.986 232.1C322.787 232.656 322.5 233.081 322.123 233.374C321.747 233.666 321.291 233.811 320.756 233.811ZM320.756 233.03C321.286 233.03 321.698 232.774 321.992 232.263C322.285 231.752 322.432 231.022 322.432 230.075C322.432 229.446 322.365 228.909 322.23 228.467C322.097 228.024 321.905 227.687 321.654 227.455C321.406 227.223 321.106 227.107 320.756 227.107C320.23 227.107 319.82 227.366 319.524 227.884C319.228 228.4 319.08 229.131 319.08 230.075C319.08 230.705 319.146 231.24 319.279 231.68C319.411 232.121 319.602 232.456 319.85 232.685C320.101 232.915 320.403 233.03 320.756 233.03ZM327.006 233.811C326.471 233.811 326.015 233.666 325.639 233.374C325.262 233.081 324.975 232.656 324.776 232.1C324.577 231.541 324.478 230.866 324.478 230.075C324.478 229.289 324.577 228.618 324.776 228.062C324.977 227.503 325.266 227.077 325.642 226.783C326.021 226.488 326.476 226.34 327.006 226.34C327.536 226.34 327.99 226.488 328.366 226.783C328.745 227.077 329.034 227.503 329.232 228.062C329.434 228.618 329.534 229.289 329.534 230.075C329.534 230.866 329.435 231.541 329.236 232.1C329.037 232.656 328.75 233.081 328.373 233.374C327.997 233.666 327.541 233.811 327.006 233.811ZM327.006 233.03C327.536 233.03 327.948 232.774 328.242 232.263C328.535 231.752 328.682 231.022 328.682 230.075C328.682 229.446 328.615 228.909 328.48 228.467C328.347 228.024 328.155 227.687 327.904 227.455C327.656 227.223 327.356 227.107 327.006 227.107C326.48 227.107 326.07 227.366 325.774 227.884C325.478 228.4 325.33 229.131 325.33 230.075C325.33 230.705 325.396 231.24 325.529 231.68C325.661 232.121 325.852 232.456 326.1 232.685C326.351 232.915 326.653 233.03 327.006 233.03Z" fill="black"/>
<path id="InvoicesOpen" d="M69.936 230.075C69.936 230.842 69.7975 231.505 69.5205 232.064C69.2435 232.623 68.8635 233.054 68.3806 233.357C67.8976 233.66 67.346 233.811 66.7257 233.811C66.1055 233.811 65.5539 233.66 65.0709 233.357C64.5879 233.054 64.208 232.623 63.931 232.064C63.654 231.505 63.5155 230.842 63.5155 230.075C63.5155 229.308 63.654 228.645 63.931 228.087C64.208 227.528 64.5879 227.097 65.0709 226.794C65.5539 226.491 66.1055 226.34 66.7257 226.34C67.346 226.34 67.8976 226.491 68.3806 226.794C68.8635 227.097 69.2435 227.528 69.5205 228.087C69.7975 228.645 69.936 229.308 69.936 230.075ZM69.0837 230.075C69.0837 229.446 68.9783 228.914 68.7676 228.481C68.5593 228.048 68.2764 227.72 67.9189 227.497C67.5638 227.275 67.1661 227.163 66.7257 227.163C66.2854 227.163 65.8865 227.275 65.529 227.497C65.1739 227.72 64.891 228.048 64.6803 228.481C64.4719 228.914 64.3678 229.446 64.3678 230.075C64.3678 230.705 64.4719 231.237 64.6803 231.67C64.891 232.103 65.1739 232.431 65.529 232.653C65.8865 232.876 66.2854 232.987 66.7257 232.987C67.1661 232.987 67.5638 232.876 67.9189 232.653C68.2764 232.431 68.5593 232.103 68.7676 231.67C68.9783 231.237 69.0837 230.705 69.0837 230.075ZM71.3031 235.757V228.257H72.1128V229.124H72.2122C72.2738 229.029 72.359 228.908 72.4679 228.761C72.5792 228.612 72.7378 228.48 72.9438 228.364C73.1521 228.245 73.4338 228.186 73.7889 228.186C74.2482 228.186 74.6531 228.301 75.0034 228.531C75.3538 228.76 75.6272 229.086 75.8237 229.507C76.0202 229.929 76.1185 230.426 76.1185 230.999C76.1185 231.576 76.0202 232.077 75.8237 232.501C75.6272 232.922 75.355 233.249 75.007 233.481C74.659 233.711 74.2577 233.825 73.8031 233.825C73.4528 233.825 73.1722 233.767 72.9615 233.651C72.7508 233.533 72.5887 233.399 72.475 233.25C72.3614 233.099 72.2738 232.973 72.2122 232.874H72.1412V235.757H71.3031ZM72.127 230.984C72.127 231.396 72.1874 231.76 72.3081 232.075C72.4289 232.387 72.6052 232.632 72.8372 232.81C73.0692 232.985 73.3533 233.073 73.6895 233.073C74.0399 233.073 74.3323 232.98 74.5666 232.796C74.8034 232.609 74.9809 232.358 75.0993 232.043C75.2201 231.725 75.2804 231.373 75.2804 230.984C75.2804 230.601 75.2212 230.255 75.1029 229.948C74.9869 229.637 74.8105 229.392 74.5737 229.212C74.3394 229.03 74.0446 228.939 73.6895 228.939C73.3486 228.939 73.0621 229.025 72.8301 229.198C72.5981 229.369 72.4229 229.608 72.3046 229.916C72.1862 230.221 72.127 230.577 72.127 230.984ZM79.6838 233.825C79.1583 233.825 78.7049 233.709 78.3237 233.477C77.945 233.243 77.6526 232.916 77.4466 232.497C77.243 232.076 77.1412 231.586 77.1412 231.027C77.1412 230.468 77.243 229.976 77.4466 229.55C77.6526 229.121 77.939 228.787 78.306 228.548C78.6753 228.307 79.1062 228.186 79.5986 228.186C79.8827 228.186 80.1632 228.234 80.4402 228.328C80.7172 228.423 80.9693 228.577 81.1966 228.79C81.4239 229.001 81.605 229.28 81.7399 229.628C81.8749 229.976 81.9424 230.404 81.9424 230.913V231.269H77.7378V230.544H81.0901C81.0901 230.236 81.0285 229.962 80.9054 229.72C80.7847 229.479 80.6119 229.288 80.387 229.149C80.1644 229.009 79.9016 228.939 79.5986 228.939C79.2648 228.939 78.976 229.022 78.7321 229.188C78.4906 229.351 78.3048 229.564 78.1746 229.827C78.0444 230.09 77.9793 230.371 77.9793 230.672V231.155C77.9793 231.567 78.0503 231.916 78.1924 232.202C78.3368 232.487 78.5368 232.703 78.7925 232.852C79.0482 232.999 79.3453 233.073 79.6838 233.073C79.904 233.073 80.1029 233.042 80.2804 232.98C80.4603 232.916 80.6154 232.822 80.7456 232.696C80.8758 232.568 80.9764 232.41 81.0475 232.22L81.8571 232.448C81.7719 232.722 81.6287 232.964 81.4274 233.172C81.2262 233.378 80.9776 233.539 80.6817 233.655C80.3858 233.769 80.0531 233.825 79.6838 233.825ZM84.0553 230.43V233.712H83.2172V228.257H84.0269V229.109H84.0979C84.2257 228.832 84.4199 228.61 84.6803 228.442C84.9407 228.271 85.2769 228.186 85.6888 228.186C86.0581 228.186 86.3813 228.262 86.6583 228.413C86.9353 228.563 87.1507 228.79 87.3046 229.095C87.4585 229.398 87.5354 229.782 87.5354 230.246V233.712H86.6973V230.303C86.6973 229.874 86.5861 229.54 86.3635 229.301C86.141 229.06 85.8356 228.939 85.4473 228.939C85.1798 228.939 84.9407 228.997 84.73 229.113C84.5217 229.229 84.3571 229.398 84.2364 229.621C84.1156 229.843 84.0553 230.113 84.0553 230.43Z" fill="#9D9D9D"/>
<rect id="OpenRectangle" x="38.4504" y="228.955" width="10.4865" height="10.4865" rx="1" fill="#FFC700"/>
<line id="Divider1" x1="38.4507" y1="198.993" x2="381.009" y2="198.993" stroke="#D9D9D9" stroke-width="0.5"/>
<path id="PaidInvoicesNumber" d="M263.043 162.054V154.781H265.5C266.071 154.781 266.537 154.884 266.899 155.09C267.264 155.294 267.534 155.57 267.709 155.918C267.884 156.266 267.972 156.654 267.972 157.082C267.972 157.511 267.884 157.9 267.709 158.251C267.536 158.601 267.269 158.881 266.906 159.089C266.544 159.295 266.08 159.398 265.514 159.398H263.753V158.617H265.486C265.877 158.617 266.19 158.549 266.427 158.414C266.664 158.279 266.835 158.097 266.942 157.867C267.051 157.635 267.105 157.374 267.105 157.082C267.105 156.791 267.051 156.531 266.942 156.301C266.835 156.072 266.663 155.892 266.424 155.761C266.184 155.629 265.867 155.563 265.472 155.563H263.924V162.054H263.043ZM269.391 162.054V154.781H270.271V161.273H273.652V162.054H269.391ZM280.783 154.781V162.054H279.93L275.967 156.344H275.896V162.054H275.016V154.781H275.868L279.845 160.506H279.916V154.781H280.783ZM284.874 162.153C284.406 162.153 283.988 162.073 283.621 161.912C283.256 161.751 282.966 161.527 282.751 161.241C282.538 160.952 282.422 160.617 282.403 160.236H283.298C283.317 160.47 283.397 160.673 283.539 160.843C283.681 161.011 283.867 161.141 284.097 161.234C284.326 161.326 284.581 161.372 284.86 161.372C285.173 161.372 285.45 161.318 285.691 161.209C285.933 161.1 286.122 160.948 286.259 160.754C286.397 160.56 286.465 160.335 286.465 160.08C286.465 159.812 286.399 159.577 286.266 159.373C286.134 159.167 285.94 159.006 285.684 158.89C285.428 158.774 285.116 158.716 284.747 158.716H284.164V157.935H284.747C285.035 157.935 285.289 157.883 285.506 157.778C285.727 157.674 285.898 157.528 286.021 157.338C286.147 157.149 286.21 156.926 286.21 156.671C286.21 156.424 286.155 156.21 286.046 156.028C285.937 155.845 285.783 155.703 285.585 155.602C285.388 155.5 285.156 155.449 284.889 155.449C284.638 155.449 284.401 155.495 284.178 155.587C283.958 155.677 283.778 155.809 283.639 155.982C283.499 156.152 283.423 156.358 283.411 156.6H282.559C282.573 156.218 282.688 155.885 282.903 155.598C283.119 155.309 283.401 155.084 283.749 154.923C284.099 154.762 284.484 154.682 284.903 154.682C285.353 154.682 285.738 154.773 286.06 154.955C286.382 155.135 286.63 155.373 286.803 155.669C286.975 155.965 287.062 156.285 287.062 156.628C287.062 157.037 286.954 157.387 286.739 157.675C286.526 157.964 286.236 158.164 285.869 158.276V158.332C286.328 158.408 286.687 158.604 286.945 158.918C287.203 159.231 287.332 159.618 287.332 160.08C287.332 160.475 287.224 160.83 287.009 161.145C286.796 161.457 286.504 161.704 286.135 161.884C285.766 162.064 285.345 162.153 284.874 162.153ZM288.614 160.563V159.838L291.81 154.781H292.335V155.903H291.98L289.565 159.725V159.781H293.869V160.563H288.614ZM292.037 162.054V160.342V160.005V154.781H292.875V162.054H292.037ZM296.123 161.06L296.066 161.443C296.026 161.713 295.964 162.002 295.881 162.31C295.801 162.617 295.717 162.908 295.629 163.18C295.541 163.452 295.469 163.669 295.412 163.83H294.773C294.804 163.678 294.844 163.478 294.894 163.229C294.944 162.981 294.993 162.703 295.043 162.395C295.095 162.09 295.138 161.777 295.171 161.457L295.213 161.06H296.123ZM297.491 160.563V159.838L300.687 154.781H301.212V155.903H300.857L298.442 159.725V159.781H302.746V160.563H297.491ZM300.914 162.054V160.342V160.005V154.781H301.752V162.054H300.914ZM306.449 162.153C305.914 162.153 305.459 162.008 305.082 161.717C304.706 161.423 304.418 160.998 304.219 160.442C304.02 159.883 303.921 159.208 303.921 158.418C303.921 157.632 304.02 156.961 304.219 156.404C304.42 155.845 304.709 155.419 305.086 155.126C305.464 154.83 305.919 154.682 306.449 154.682C306.98 154.682 307.433 154.83 307.809 155.126C308.188 155.419 308.477 155.845 308.676 156.404C308.877 156.961 308.978 157.632 308.978 158.418C308.978 159.208 308.878 159.883 308.679 160.442C308.481 160.998 308.193 161.423 307.816 161.717C307.44 162.008 306.984 162.153 306.449 162.153ZM306.449 161.372C306.98 161.372 307.392 161.117 307.685 160.605C307.979 160.094 308.125 159.365 308.125 158.418C308.125 157.788 308.058 157.252 307.923 156.809C307.79 156.366 307.599 156.029 307.348 155.797C307.099 155.565 306.8 155.449 306.449 155.449C305.924 155.449 305.513 155.708 305.217 156.227C304.921 156.743 304.773 157.473 304.773 158.418C304.773 159.047 304.839 159.582 304.972 160.023C305.105 160.463 305.295 160.798 305.544 161.028C305.795 161.257 306.097 161.372 306.449 161.372ZM312.699 162.153C312.164 162.153 311.709 162.008 311.332 161.717C310.956 161.423 310.668 160.998 310.469 160.442C310.27 159.883 310.171 159.208 310.171 158.418C310.171 157.632 310.27 156.961 310.469 156.404C310.67 155.845 310.959 155.419 311.336 155.126C311.714 154.83 312.169 154.682 312.699 154.682C313.23 154.682 313.683 154.83 314.059 155.126C314.438 155.419 314.727 155.845 314.926 156.404C315.127 156.961 315.228 157.632 315.228 158.418C315.228 159.208 315.128 159.883 314.929 160.442C314.731 160.998 314.443 161.423 314.066 161.717C313.69 162.008 313.234 162.153 312.699 162.153ZM312.699 161.372C313.23 161.372 313.642 161.117 313.935 160.605C314.229 160.094 314.375 159.365 314.375 158.418C314.375 157.788 314.308 157.252 314.173 156.809C314.04 156.366 313.849 156.029 313.598 155.797C313.349 155.565 313.05 155.449 312.699 155.449C312.174 155.449 311.763 155.708 311.467 156.227C311.171 156.743 311.023 157.473 311.023 158.418C311.023 159.047 311.089 159.582 311.222 160.023C311.355 160.463 311.545 160.798 311.794 161.028C312.045 161.257 312.347 161.372 312.699 161.372ZM316.948 162.111C316.773 162.111 316.623 162.048 316.497 161.923C316.372 161.797 316.309 161.647 316.309 161.472C316.309 161.296 316.372 161.146 316.497 161.021C316.623 160.895 316.773 160.832 316.948 160.832C317.123 160.832 317.274 160.895 317.399 161.021C317.525 161.146 317.587 161.296 317.587 161.472C317.587 161.588 317.558 161.694 317.499 161.791C317.442 161.888 317.365 161.966 317.268 162.026C317.173 162.082 317.067 162.111 316.948 162.111ZM321.195 162.153C320.66 162.153 320.205 162.008 319.828 161.717C319.452 161.423 319.164 160.998 318.965 160.442C318.766 159.883 318.667 159.208 318.667 158.418C318.667 157.632 318.766 156.961 318.965 156.404C319.166 155.845 319.455 155.419 319.832 155.126C320.211 154.83 320.665 154.682 321.195 154.682C321.726 154.682 322.179 154.83 322.555 155.126C322.934 155.419 323.223 155.845 323.422 156.404C323.623 156.961 323.724 157.632 323.724 158.418C323.724 159.208 323.624 159.883 323.425 160.442C323.227 160.998 322.939 161.423 322.563 161.717C322.186 162.008 321.73 162.153 321.195 162.153ZM321.195 161.372C321.726 161.372 322.138 161.117 322.431 160.605C322.725 160.094 322.872 159.365 322.872 158.418C322.872 157.788 322.804 157.252 322.669 156.809C322.537 156.366 322.345 156.029 322.094 155.797C321.845 155.565 321.546 155.449 321.195 155.449C320.67 155.449 320.259 155.708 319.963 156.227C319.667 156.743 319.519 157.473 319.519 158.418C319.519 159.047 319.586 159.582 319.718 160.023C319.851 160.463 320.041 160.798 320.29 161.028C320.541 161.257 320.843 161.372 321.195 161.372ZM327.445 162.153C326.91 162.153 326.455 162.008 326.078 161.717C325.702 161.423 325.414 160.998 325.215 160.442C325.016 159.883 324.917 159.208 324.917 158.418C324.917 157.632 325.016 156.961 325.215 156.404C325.416 155.845 325.705 155.419 326.082 155.126C326.461 154.83 326.915 154.682 327.445 154.682C327.976 154.682 328.429 154.83 328.805 155.126C329.184 155.419 329.473 155.845 329.672 156.404C329.873 156.961 329.974 157.632 329.974 158.418C329.974 159.208 329.874 159.883 329.675 160.442C329.477 160.998 329.189 161.423 328.813 161.717C328.436 162.008 327.98 162.153 327.445 162.153ZM327.445 161.372C327.976 161.372 328.388 161.117 328.681 160.605C328.975 160.094 329.122 159.365 329.122 158.418C329.122 157.788 329.054 157.252 328.919 156.809C328.787 156.366 328.595 156.029 328.344 155.797C328.095 155.565 327.796 155.449 327.445 155.449C326.92 155.449 326.509 155.708 326.213 156.227C325.917 156.743 325.769 157.473 325.769 158.418C325.769 159.047 325.836 159.582 325.968 160.023C326.101 160.463 326.291 160.798 326.54 161.028C326.791 161.257 327.093 161.372 327.445 161.372Z" fill="black"/>
<path id="InvoicedPaid" d="M63.7996 162.054V154.781H66.257C66.8275 154.781 67.2939 154.884 67.6561 155.09C68.0207 155.294 68.2906 155.57 68.4658 155.918C68.641 156.266 68.7286 156.654 68.7286 157.082C68.7286 157.511 68.641 157.9 68.4658 158.251C68.293 158.601 68.0254 158.881 67.6632 159.089C67.301 159.295 66.837 159.398 66.2712 159.398H64.5098V158.617H66.2428C66.6334 158.617 66.9471 158.549 67.1838 158.414C67.4206 158.279 67.5922 158.097 67.6987 157.867C67.8076 157.635 67.8621 157.374 67.8621 157.082C67.8621 156.791 67.8076 156.531 67.6987 156.301C67.5922 156.072 67.4194 155.892 67.1803 155.761C66.9412 155.629 66.6239 155.563 66.2286 155.563H64.6803V162.054H63.7996ZM71.6387 162.182C71.2931 162.182 70.9794 162.117 70.6977 161.987C70.416 161.854 70.1922 161.663 70.0265 161.415C69.8608 161.164 69.7779 160.861 69.7779 160.506C69.7779 160.193 69.8395 159.94 69.9626 159.746C70.0857 159.549 70.2502 159.395 70.4562 159.284C70.6622 159.173 70.8894 159.09 71.138 159.036C71.389 158.979 71.6411 158.934 71.8944 158.901C72.2259 158.858 72.4946 158.826 72.7005 158.805C72.9089 158.781 73.0604 158.742 73.1551 158.688C73.2521 158.633 73.3007 158.538 73.3007 158.403V158.375C73.3007 158.025 73.2048 157.752 73.013 157.558C72.8236 157.364 72.536 157.267 72.1501 157.267C71.75 157.267 71.4363 157.355 71.209 157.53C70.9818 157.705 70.822 157.892 70.7296 158.091L69.9342 157.807C70.0762 157.475 70.2656 157.217 70.5024 157.033C70.7415 156.846 71.0019 156.716 71.2836 156.642C71.5677 156.566 71.8471 156.528 72.1217 156.528C72.2969 156.528 72.4981 156.55 72.7254 156.592C72.955 156.633 73.1764 156.717 73.3894 156.845C73.6049 156.972 73.7836 157.165 73.9257 157.423C74.0677 157.681 74.1387 158.027 74.1387 158.46V162.054H73.3007V161.315H73.258C73.2012 161.434 73.1065 161.56 72.974 161.695C72.8414 161.83 72.665 161.945 72.4448 162.04C72.2247 162.135 71.956 162.182 71.6387 162.182ZM71.7666 161.429C72.098 161.429 72.3774 161.364 72.6046 161.234C72.8343 161.104 73.0071 160.935 73.1231 160.729C73.2415 160.524 73.3007 160.307 73.3007 160.08V159.313C73.2652 159.355 73.187 159.394 73.0663 159.43C72.9479 159.463 72.8106 159.492 72.6544 159.519C72.5005 159.542 72.3501 159.564 72.2034 159.582C72.0589 159.599 71.9418 159.613 71.8518 159.625C71.634 159.653 71.4304 159.7 71.241 159.764C71.054 159.825 70.9025 159.919 70.7865 160.044C70.6728 160.167 70.616 160.335 70.616 160.548C70.616 160.84 70.7237 161.06 70.9392 161.209C71.157 161.356 71.4328 161.429 71.7666 161.429ZM75.6684 162.054V156.6H76.5065V162.054H75.6684ZM76.0945 155.69C75.9312 155.69 75.7903 155.635 75.6719 155.524C75.5559 155.412 75.4979 155.278 75.4979 155.122C75.4979 154.966 75.5559 154.832 75.6719 154.721C75.7903 154.61 75.9312 154.554 76.0945 154.554C76.2579 154.554 76.3975 154.61 76.5136 154.721C76.6319 154.832 76.6911 154.966 76.6911 155.122C76.6911 155.278 76.6319 155.412 76.5136 155.524C76.3975 155.635 76.2579 155.69 76.0945 155.69ZM80.1011 162.168C79.6465 162.168 79.2453 162.053 78.8973 161.823C78.5492 161.591 78.277 161.265 78.0805 160.843C77.884 160.419 77.7857 159.919 77.7857 159.341C77.7857 158.768 77.884 158.271 78.0805 157.85C78.277 157.428 78.5504 157.103 78.9008 156.873C79.2512 156.643 79.656 156.528 80.1153 156.528C80.4704 156.528 80.7509 156.588 80.9569 156.706C81.1652 156.822 81.3239 156.955 81.4328 157.104C81.544 157.251 81.6304 157.371 81.692 157.466H81.763V154.781H82.6011V162.054H81.7914V161.216H81.692C81.6304 161.315 81.5428 161.441 81.4292 161.592C81.3156 161.742 81.1534 161.875 80.9427 161.994C80.732 162.11 80.4515 162.168 80.1011 162.168ZM80.2147 161.415C80.5509 161.415 80.835 161.327 81.067 161.152C81.299 160.975 81.4754 160.729 81.5961 160.417C81.7169 160.102 81.7772 159.739 81.7772 159.327C81.7772 158.92 81.718 158.563 81.5997 158.258C81.4813 157.95 81.3061 157.711 81.0741 157.541C80.8421 157.368 80.5556 157.281 80.2147 157.281C79.8596 157.281 79.5637 157.372 79.3269 157.555C79.0926 157.735 78.9162 157.98 78.7978 158.29C78.6818 158.598 78.6238 158.943 78.6238 159.327C78.6238 159.715 78.683 160.068 78.8014 160.385C78.9221 160.7 79.0997 160.951 79.334 161.138C79.5708 161.323 79.8643 161.415 80.2147 161.415Z" fill="#9D9D9D"/>
<rect id="PaidRectangle" x="38.4504" y="157.297" width="10.4865" height="10.4865" rx="1" fill="#28CB7D"/>
<rect id="PastDueBar" x="381.009" y="115.351" width="10.4865" height="342.559" rx="1" transform="rotate(90 381.009 115.351)" fill="#FF0099"/>
<rect id="OpenBar" x="314.595" y="115.351" width="10.4865" height="276.144" rx="1" transform="rotate(90 314.595 115.351)" fill="#FFC700"/>
<rect id="PaidBar" x="200.991" y="115.351" width="10.4865" height="162.541" rx="1" transform="rotate(90 200.991 115.351)" fill="#28CB7D"/>
<path id="TotalInvoicedNumber" d="M39.3541 83.6577V82.8906L42.2347 79.7372C42.5728 79.3679 42.8512 79.0469 43.07 78.7741C43.2887 78.4986 43.4507 78.24 43.5558 77.9986C43.6637 77.7542 43.7177 77.4986 43.7177 77.2315C43.7177 76.9247 43.6438 76.6591 43.4961 76.4346C43.3512 76.2102 43.1524 76.0369 42.8995 75.9148C42.6467 75.7926 42.3626 75.7315 42.0472 75.7315C41.712 75.7315 41.4194 75.8011 41.1694 75.9403C40.9222 76.0767 40.7305 76.2684 40.5941 76.5156C40.4606 76.7628 40.3938 77.0525 40.3938 77.3849H39.3882C39.3882 76.8736 39.5061 76.4247 39.7418 76.0383C39.9776 75.652 40.2987 75.3508 40.7049 75.1349C41.114 74.919 41.5728 74.8111 42.0813 74.8111C42.5927 74.8111 43.0458 74.919 43.4407 75.1349C43.8356 75.3508 44.1453 75.642 44.3697 76.0085C44.5941 76.375 44.7063 76.7827 44.7063 77.2315C44.7063 77.5525 44.6481 77.8665 44.5316 78.1733C44.418 78.4773 44.2191 78.8167 43.935 79.1917C43.6538 79.5639 43.2632 80.0184 42.7632 80.5554L40.8029 82.652V82.7202H44.8597V83.6577H39.3541ZM49.5686 83.777C49.0061 83.777 48.5046 83.6804 48.0643 83.4872C47.6268 83.294 47.2788 83.0256 47.0203 82.6818C46.7646 82.3352 46.6254 81.9332 46.6026 81.4758H47.6765C47.6992 81.7571 47.7958 82 47.9663 82.2045C48.1367 82.4062 48.3597 82.5625 48.6353 82.6733C48.9109 82.7841 49.2163 82.8395 49.5515 82.8395C49.9265 82.8395 50.2589 82.7741 50.5487 82.6434C50.8384 82.5128 51.0657 82.3309 51.2305 82.098C51.3953 81.865 51.4776 81.5952 51.4776 81.2883C51.4776 80.9673 51.3981 80.6846 51.239 80.4403C51.0799 80.1932 50.847 80 50.5401 79.8608C50.2333 79.7216 49.8583 79.652 49.4151 79.652H48.7163V78.7145H49.4151C49.7617 78.7145 50.0657 78.652 50.3271 78.527C50.5913 78.402 50.7972 78.2258 50.945 77.9986C51.0955 77.7713 51.1708 77.5042 51.1708 77.1974C51.1708 76.902 51.1055 76.6449 50.9748 76.4261C50.8441 76.2074 50.6595 76.0369 50.4208 75.9148C50.185 75.7926 49.9066 75.7315 49.5856 75.7315C49.2845 75.7315 49.0004 75.7869 48.7333 75.8977C48.4691 76.0057 48.2532 76.1633 48.0856 76.3707C47.918 76.5753 47.8271 76.8224 47.8129 77.1122H46.7901C46.8072 76.6548 46.945 76.2542 47.2035 75.9105C47.462 75.5639 47.8001 75.294 48.2177 75.1008C48.6382 74.9077 49.0998 74.8111 49.6026 74.8111C50.1424 74.8111 50.6055 74.9204 50.9918 75.1392C51.3782 75.3551 51.6751 75.6406 51.8825 75.9957C52.0899 76.3508 52.1936 76.7344 52.1936 77.1463C52.1936 77.6378 52.0643 78.0568 51.8058 78.4034C51.5501 78.75 51.2021 78.99 50.7617 79.1236V79.1917C51.3129 79.2827 51.7433 79.517 52.0529 79.8949C52.3626 80.2699 52.5174 80.7344 52.5174 81.2883C52.5174 81.7628 52.3882 82.1889 52.1296 82.5667C51.8739 82.9417 51.5245 83.2372 51.0813 83.4531C50.6382 83.669 50.1339 83.777 49.5686 83.777Z" fill="black"/>
<path id="InvoicedTitle" d="M40.0359 46.1482V52.6937H39.2433V46.1482H40.0359ZM42.2771 49.7406V52.6937H41.5228V47.7846H42.2515V48.5516H42.3154C42.4305 48.3024 42.6052 48.1021 42.8396 47.9508C43.074 47.7974 43.3765 47.7207 43.7473 47.7207C44.0796 47.7207 44.3705 47.7889 44.6198 47.9252C44.8691 48.0595 45.063 48.264 45.2015 48.5389C45.3399 48.8116 45.4092 49.1568 45.4092 49.5744V52.6937H44.6549V49.6255C44.6549 49.2399 44.5548 48.9394 44.3545 48.7242C44.1542 48.5069 43.8794 48.3982 43.5299 48.3982C43.2892 48.3982 43.074 48.4504 42.8843 48.5548C42.6968 48.6592 42.5488 48.8116 42.4401 49.0119C42.3314 49.2122 42.2771 49.4551 42.2771 49.7406ZM50.6259 47.7846L48.8106 52.6937H48.0435L46.2282 47.7846H47.0464L48.4015 51.6965H48.4526L49.8077 47.7846H50.6259ZM53.44 52.796C52.9968 52.796 52.608 52.6905 52.2735 52.4796C51.9411 52.2686 51.6811 51.9735 51.4936 51.5943C51.3083 51.215 51.2156 50.7718 51.2156 50.2647C51.2156 49.7534 51.3083 49.307 51.4936 48.9256C51.6811 48.5442 51.9411 48.248 52.2735 48.0371C52.608 47.8262 52.9968 47.7207 53.44 47.7207C53.8832 47.7207 54.271 47.8262 54.6034 48.0371C54.9379 48.248 55.1978 48.5442 55.3832 48.9256C55.5707 49.307 55.6644 49.7534 55.6644 50.2647C55.6644 50.7718 55.5707 51.215 55.3832 51.5943C55.1978 51.9735 54.9379 52.2686 54.6034 52.4796C54.271 52.6905 53.8832 52.796 53.44 52.796ZM53.44 52.1184C53.7766 52.1184 54.0536 52.0321 54.271 51.8595C54.4883 51.6869 54.6492 51.46 54.7536 51.1788C54.858 50.8975 54.9102 50.5928 54.9102 50.2647C54.9102 49.9366 54.858 49.6308 54.7536 49.3475C54.6492 49.0641 54.4883 48.835 54.271 48.6603C54.0536 48.4856 53.7766 48.3982 53.44 48.3982C53.1034 48.3982 52.8264 48.4856 52.609 48.6603C52.3917 48.835 52.2308 49.0641 52.1264 49.3475C52.022 49.6308 51.9698 49.9366 51.9698 50.2647C51.9698 50.5928 52.022 50.8975 52.1264 51.1788C52.2308 51.46 52.3917 51.6869 52.609 51.8595C52.8264 52.0321 53.1034 52.1184 53.44 52.1184ZM56.8158 52.6937V47.7846H57.5701V52.6937H56.8158ZM57.1993 46.9664C57.0523 46.9664 56.9255 46.9164 56.819 46.8162C56.7146 46.7161 56.6624 46.5957 56.6624 46.4551C56.6624 46.3144 56.7146 46.1941 56.819 46.0939C56.9255 45.9938 57.0523 45.9437 57.1993 45.9437C57.3463 45.9437 57.472 45.9938 57.5765 46.0939C57.683 46.1941 57.7363 46.3144 57.7363 46.4551C57.7363 46.5957 57.683 46.7161 57.5765 46.8162C57.472 46.9164 57.3463 46.9664 57.1993 46.9664ZM60.9459 52.796C60.4856 52.796 60.0893 52.6873 59.7569 52.47C59.4246 52.2526 59.1689 51.9533 58.9899 51.5719C58.8109 51.1905 58.7214 50.7548 58.7214 50.2647C58.7214 49.7661 58.813 49.3262 58.9963 48.9448C59.1817 48.5612 59.4395 48.2619 59.7697 48.0467C60.1021 47.8293 60.4899 47.7207 60.9331 47.7207C61.2782 47.7207 61.5893 47.7846 61.8663 47.9124C62.1433 48.0403 62.3702 48.2193 62.5471 48.4494C62.7239 48.6795 62.8336 48.948 62.8763 49.2548H62.122C62.0645 49.0311 61.9366 48.8329 61.7385 48.6603C61.5425 48.4856 61.2782 48.3982 60.9459 48.3982C60.6518 48.3982 60.394 48.4749 60.1724 48.6284C59.953 48.7796 59.7814 48.9938 59.6579 49.2708C59.5364 49.5456 59.4757 49.8684 59.4757 50.2391C59.4757 50.6184 59.5353 50.9487 59.6547 51.2299C59.7761 51.5112 59.9466 51.7296 60.166 51.8851C60.3876 52.0406 60.6476 52.1184 60.9459 52.1184C61.1419 52.1184 61.3198 52.0843 61.4796 52.0161C61.6394 51.948 61.7747 51.8499 61.8855 51.7221C61.9963 51.5943 62.0751 51.4409 62.122 51.2619H62.8763C62.8336 51.5516 62.7282 51.8127 62.5599 52.0449C62.3937 52.275 62.1731 52.4583 61.8983 52.5946C61.6255 52.7289 61.3081 52.796 60.9459 52.796ZM66.0371 52.796C65.5641 52.796 65.1561 52.6916 64.813 52.4828C64.4721 52.2718 64.209 51.9778 64.0236 51.6007C63.8404 51.2214 63.7488 50.7803 63.7488 50.2775C63.7488 49.7747 63.8404 49.3315 64.0236 48.948C64.209 48.5623 64.4668 48.2619 64.7971 48.0467C65.1295 47.8293 65.5172 47.7207 65.9604 47.7207C66.2161 47.7207 66.4686 47.7633 66.7179 47.8485C66.9672 47.9338 67.1941 48.0722 67.3986 48.264C67.6032 48.4536 67.7662 48.7051 67.8876 49.0183C68.0091 49.3315 68.0698 49.7171 68.0698 50.1752V50.4948H64.2857V49.8428H67.3027C67.3027 49.5659 67.2474 49.3187 67.1366 49.1014C67.0279 48.884 66.8724 48.7125 66.6699 48.5868C66.4697 48.4611 66.2331 48.3982 65.9604 48.3982C65.66 48.3982 65.4 48.4728 65.1806 48.622C64.9633 48.769 64.796 48.9607 64.6788 49.1972C64.5616 49.4338 64.503 49.6873 64.503 49.9579V50.3926C64.503 50.7633 64.567 51.0776 64.6948 51.3354C64.8248 51.5911 65.0048 51.786 65.2349 51.9203C65.465 52.0524 65.7324 52.1184 66.0371 52.1184C66.2353 52.1184 66.4143 52.0907 66.5741 52.0353C66.736 51.9778 66.8755 51.8926 66.9927 51.7796C67.1099 51.6646 67.2005 51.5218 67.2644 51.3514L67.9931 51.5559C67.9164 51.8031 67.7875 52.0204 67.6064 52.2079C67.4253 52.3933 67.2015 52.5382 66.9352 52.6426C66.6689 52.7448 66.3695 52.796 66.0371 52.796ZM72.6944 48.884L72.0169 49.0758C71.9743 48.9629 71.9114 48.8531 71.8283 48.7466C71.7474 48.6379 71.6366 48.5485 71.4959 48.4781C71.3553 48.4078 71.1753 48.3727 70.9558 48.3727C70.6554 48.3727 70.405 48.4419 70.2047 48.5804C70.0066 48.7168 69.9075 48.8904 69.9075 49.1014C69.9075 49.2889 69.9757 49.4369 70.1121 49.5456C70.2484 49.6543 70.4615 49.7448 70.7513 49.8173L71.4799 49.9963C71.9189 50.1028 72.2459 50.2658 72.4611 50.4852C72.6763 50.7026 72.7839 50.9828 72.7839 51.3258C72.7839 51.607 72.703 51.8585 72.541 52.0801C72.3812 52.3016 72.1575 52.4764 71.8699 52.6042C71.5822 52.732 71.2477 52.796 70.8663 52.796C70.3656 52.796 69.9512 52.6873 69.6231 52.47C69.2949 52.2526 69.0872 51.9352 68.9998 51.5176L69.7157 51.3386C69.7839 51.6028 69.9128 51.8009 70.1025 51.933C70.2942 52.0651 70.5446 52.1312 70.8535 52.1312C71.2051 52.1312 71.4842 52.0566 71.6909 51.9075C71.8997 51.7562 72.0041 51.5751 72.0041 51.3641C72.0041 51.1937 71.9444 51.0509 71.8251 50.9359C71.7058 50.8187 71.5226 50.7313 71.2754 50.6738L70.4572 50.482C70.0076 50.3755 69.6774 50.2104 69.4665 49.9867C69.2576 49.7608 69.1532 49.4785 69.1532 49.1397C69.1532 48.8627 69.231 48.6177 69.3866 48.4046C69.5442 48.1916 69.7584 48.0243 70.029 47.9029C70.3017 47.7814 70.6106 47.7207 70.9558 47.7207C71.4416 47.7207 71.823 47.8272 72.1 48.0403C72.3791 48.2534 72.5773 48.5346 72.6944 48.884Z" fill="black"/>
</g>
</g>
<defs>
<clipPath id="clip0_14_33">
<rect width="419" height="388" fill="white"/>
</clipPath>
</defs>
</svg>
