<svg width="419" height="388" viewBox="0 0 419 388" fill="none" xmlns="http://www.w3.org/2000/svg">
<g id="Card1" clip-path="url(#clip0_14_3)">
<g id="ReviewsTab">
<rect id="ReviewsRectangle" width="419" height="388" rx="10" fill="white"/>
<path id="ReviewsTabUpdated" d="M42.3657 344.468H42.9822V347.838C42.9822 348.186 42.9002 348.497 42.7361 348.771C42.5737 349.042 42.3442 349.257 42.0475 349.414C41.7509 349.57 41.4029 349.648 41.0035 349.648C40.6041 349.648 40.2561 349.57 39.9595 349.414C39.6628 349.257 39.4325 349.042 39.2684 348.771C39.106 348.497 39.0248 348.186 39.0248 347.838V344.468H39.6413V347.789C39.6413 348.037 39.696 348.259 39.8054 348.452C39.9147 348.645 40.0705 348.796 40.2727 348.907C40.4765 349.017 40.7201 349.071 41.0035 349.071C41.2869 349.071 41.5305 349.017 41.7343 348.907C41.9382 348.796 42.0939 348.645 42.2017 348.452C42.311 348.259 42.3657 348.037 42.3657 347.789V344.468ZM44.1337 350.99V345.74H44.7005V346.347H44.7701C44.8132 346.281 44.8729 346.196 44.9491 346.093C45.027 345.989 45.138 345.896 45.2822 345.815C45.428 345.732 45.6252 345.691 45.8738 345.691C46.1953 345.691 46.4787 345.771 46.7239 345.932C46.9692 346.093 47.1606 346.32 47.2982 346.615C47.4357 346.91 47.5045 347.258 47.5045 347.659C47.5045 348.064 47.4357 348.414 47.2982 348.711C47.1606 349.006 46.97 349.235 46.7264 349.397C46.4828 349.558 46.2019 349.638 45.8837 349.638C45.6385 349.638 45.4421 349.598 45.2946 349.516C45.1471 349.433 45.0336 349.34 44.9541 349.235C44.8745 349.129 44.8132 349.042 44.7701 348.972H44.7204V350.99H44.1337ZM44.7105 347.65C44.7105 347.938 44.7527 348.192 44.8372 348.413C44.9217 348.631 45.0452 348.803 45.2076 348.927C45.37 349.05 45.5689 349.111 45.8042 349.111C46.0495 349.111 46.2541 349.047 46.4182 348.917C46.5839 348.786 46.7082 348.611 46.7911 348.39C46.8756 348.168 46.9178 347.921 46.9178 347.65C46.9178 347.381 46.8764 347.139 46.7936 346.924C46.7123 346.707 46.5889 346.535 46.4232 346.409C46.2591 346.281 46.0528 346.218 45.8042 346.218C45.5656 346.218 45.365 346.278 45.2026 346.399C45.0402 346.518 44.9176 346.686 44.8347 346.901C44.7519 347.115 44.7105 347.364 44.7105 347.65ZM49.8411 349.638C49.523 349.638 49.2421 349.558 48.9985 349.397C48.7548 349.235 48.5643 349.006 48.4267 348.711C48.2892 348.414 48.2204 348.064 48.2204 347.659C48.2204 347.258 48.2892 346.91 48.4267 346.615C48.5643 346.32 48.7557 346.093 49.0009 345.932C49.2462 345.771 49.5296 345.691 49.8511 345.691C50.0997 345.691 50.296 345.732 50.4402 345.815C50.586 345.896 50.6971 345.989 50.7733 346.093C50.8512 346.196 50.9117 346.281 50.9548 346.347H51.0045V344.468H51.5911V349.559H51.0244V348.972H50.9548C50.9117 349.042 50.8504 349.129 50.7708 349.235C50.6913 349.34 50.5778 349.433 50.4303 349.516C50.2828 349.598 50.0864 349.638 49.8411 349.638ZM49.9207 349.111C50.156 349.111 50.3549 349.05 50.5173 348.927C50.6797 348.803 50.8031 348.631 50.8877 348.413C50.9722 348.192 51.0144 347.938 51.0144 347.65C51.0144 347.364 50.973 347.115 50.8901 346.901C50.8073 346.686 50.6846 346.518 50.5222 346.399C50.3598 346.278 50.1593 346.218 49.9207 346.218C49.6721 346.218 49.465 346.281 49.2992 346.409C49.1352 346.535 49.0117 346.707 48.9288 346.924C48.8476 347.139 48.807 347.381 48.807 347.65C48.807 347.921 48.8485 348.168 48.9313 348.39C49.0159 348.611 49.1401 348.786 49.3042 348.917C49.4699 349.047 49.6754 349.111 49.9207 349.111ZM53.8706 349.648C53.6287 349.648 53.4091 349.603 53.2119 349.511C53.0147 349.419 52.8581 349.285 52.7421 349.111C52.6261 348.935 52.5681 348.723 52.5681 348.475C52.5681 348.256 52.6111 348.079 52.6973 347.943C52.7835 347.805 52.8987 347.698 53.0428 347.62C53.187 347.542 53.3461 347.484 53.5201 347.446C53.6958 347.406 53.8723 347.374 54.0496 347.351C54.2816 347.321 54.4697 347.299 54.6139 347.284C54.7597 347.268 54.8658 347.24 54.932 347.202C55 347.164 55.034 347.098 55.034 347.003V346.983C55.034 346.738 54.9668 346.547 54.8326 346.412C54.7 346.276 54.4987 346.208 54.2286 346.208C53.9485 346.208 53.7289 346.269 53.5698 346.392C53.4107 346.514 53.2989 346.645 53.2342 346.784L52.6774 346.586C52.7769 346.354 52.9094 346.173 53.0752 346.044C53.2425 345.913 53.4248 345.822 53.622 345.77C53.8209 345.717 54.0164 345.691 54.2087 345.691C54.3313 345.691 54.4722 345.706 54.6313 345.735C54.792 345.764 54.947 345.822 55.0961 345.912C55.2469 346.001 55.372 346.136 55.4715 346.317C55.5709 346.498 55.6206 346.74 55.6206 347.043V349.559H55.034V349.042H55.0041C54.9644 349.124 54.8981 349.213 54.8053 349.308C54.7125 349.402 54.589 349.482 54.4349 349.549C54.2808 349.615 54.0927 349.648 53.8706 349.648ZM53.9601 349.121C54.1921 349.121 54.3877 349.076 54.5467 348.984C54.7075 348.893 54.8285 348.776 54.9097 348.631C54.9925 348.487 55.034 348.336 55.034 348.176V347.64C55.0091 347.669 54.9544 347.697 54.8699 347.722C54.787 347.745 54.6909 347.766 54.5815 347.784C54.4738 347.8 54.3686 347.815 54.2659 347.828C54.1648 347.84 54.0827 347.85 54.0198 347.858C53.8673 347.878 53.7248 347.911 53.5922 347.955C53.4613 347.998 53.3552 348.064 53.274 348.152C53.1945 348.238 53.1547 348.355 53.1547 348.505C53.1547 348.708 53.2301 348.863 53.3809 348.967C53.5334 349.07 53.7264 349.121 53.9601 349.121ZM58.3519 345.74V346.238H56.3732V345.74H58.3519ZM56.9499 344.826H57.5365V348.465C57.5365 348.631 57.5606 348.755 57.6086 348.838C57.6583 348.919 57.7213 348.974 57.7975 349.002C57.8754 349.028 57.9575 349.042 58.0436 349.042C58.1083 349.042 58.1613 349.038 58.2027 349.032C58.2442 349.023 58.2773 349.017 58.3022 349.012L58.4215 349.539C58.3817 349.554 58.3262 349.569 58.2549 349.583C58.1837 349.6 58.0934 349.608 57.984 349.608C57.8183 349.608 57.6559 349.573 57.4968 349.501C57.3393 349.43 57.2084 349.322 57.104 349.176C57.0013 349.03 56.9499 348.846 56.9499 348.624V344.826ZM60.7942 349.638C60.4263 349.638 60.1089 349.557 59.8421 349.395C59.577 349.23 59.3723 349.002 59.2281 348.708C59.0856 348.413 59.0143 348.07 59.0143 347.679C59.0143 347.288 59.0856 346.944 59.2281 346.645C59.3723 346.345 59.5728 346.112 59.8297 345.944C60.0882 345.775 60.3898 345.691 60.7345 345.691C60.9334 345.691 61.1298 345.724 61.3236 345.79C61.5175 345.856 61.694 345.964 61.8531 346.113C62.0122 346.261 62.139 346.456 62.2334 346.7C62.3279 346.944 62.3751 347.243 62.3751 347.6V347.848H59.432V347.341H61.7785C61.7785 347.126 61.7355 346.934 61.6493 346.765C61.5648 346.596 61.4438 346.462 61.2864 346.364C61.1306 346.267 60.9466 346.218 60.7345 346.218C60.5008 346.218 60.2987 346.276 60.128 346.392C59.9589 346.506 59.8289 346.655 59.7377 346.839C59.6466 347.023 59.601 347.22 59.601 347.431V347.769C59.601 348.057 59.6507 348.302 59.7501 348.502C59.8512 348.701 59.9913 348.853 60.1702 348.957C60.3492 349.06 60.5572 349.111 60.7942 349.111C60.9483 349.111 61.0875 349.09 61.2118 349.047C61.3377 349.002 61.4463 348.935 61.5374 348.848C61.6286 348.758 61.699 348.647 61.7487 348.515L62.3155 348.674C62.2558 348.866 62.1556 349.035 62.0147 349.181C61.8738 349.325 61.6998 349.438 61.4927 349.519C61.2855 349.598 61.0527 349.638 60.7942 349.638ZM64.7093 349.638C64.3911 349.638 64.1102 349.558 63.8666 349.397C63.623 349.235 63.4324 349.006 63.2949 348.711C63.1573 348.414 63.0886 348.064 63.0886 347.659C63.0886 347.258 63.1573 346.91 63.2949 346.615C63.4324 346.32 63.6238 346.093 63.8691 345.932C64.1144 345.771 64.3977 345.691 64.7192 345.691C64.9678 345.691 65.1642 345.732 65.3084 345.815C65.4542 345.896 65.5652 345.989 65.6415 346.093C65.7194 346.196 65.7798 346.281 65.8229 346.347H65.8727V344.468H66.4593V349.559H65.8925V348.972H65.8229C65.7798 349.042 65.7185 349.129 65.639 349.235C65.5594 349.34 65.4459 349.433 65.2984 349.516C65.1509 349.598 64.9546 349.638 64.7093 349.638ZM64.7888 349.111C65.0242 349.111 65.223 349.05 65.3854 348.927C65.5478 348.803 65.6713 348.631 65.7558 348.413C65.8403 348.192 65.8826 347.938 65.8826 347.65C65.8826 347.364 65.8412 347.115 65.7583 346.901C65.6754 346.686 65.5528 346.518 65.3904 346.399C65.228 346.278 65.0275 346.218 64.7888 346.218C64.5403 346.218 64.3331 346.281 64.1674 346.409C64.0033 346.535 63.8799 346.707 63.797 346.924C63.7158 347.139 63.6752 347.381 63.6752 347.65C63.6752 347.921 63.7166 348.168 63.7995 348.39C63.884 348.611 64.0083 348.786 64.1724 348.917C64.3381 349.047 64.5436 349.111 64.7888 349.111ZM71.2445 345.74V346.238H69.2658V345.74H71.2445ZM69.8425 344.826H70.4291V348.465C70.4291 348.631 70.4531 348.755 70.5012 348.838C70.5509 348.919 70.6139 348.974 70.6901 349.002C70.768 349.028 70.85 349.042 70.9362 349.042C71.0008 349.042 71.0539 349.038 71.0953 349.032C71.1367 349.023 71.1699 349.017 71.1947 349.012L71.3141 349.539C71.2743 349.554 71.2188 349.569 71.1475 349.583C71.0763 349.6 70.9859 349.608 70.8766 349.608C70.7108 349.608 70.5484 349.573 70.3893 349.501C70.2319 349.43 70.101 349.322 69.9966 349.176C69.8938 349.03 69.8425 348.846 69.8425 348.624V344.826ZM73.637 349.638C73.2923 349.638 72.9899 349.556 72.7297 349.392C72.4712 349.228 72.269 348.998 72.1232 348.703C71.979 348.408 71.9069 348.064 71.9069 347.669C71.9069 347.272 71.979 346.924 72.1232 346.628C72.269 346.331 72.4712 346.101 72.7297 345.937C72.9899 345.773 73.2923 345.691 73.637 345.691C73.9817 345.691 74.2833 345.773 74.5419 345.937C74.802 346.101 75.0042 346.331 75.1484 346.628C75.2942 346.924 75.3671 347.272 75.3671 347.669C75.3671 348.064 75.2942 348.408 75.1484 348.703C75.0042 348.998 74.802 349.228 74.5419 349.392C74.2833 349.556 73.9817 349.638 73.637 349.638ZM73.637 349.111C73.8989 349.111 74.1143 349.044 74.2833 348.91C74.4524 348.776 74.5775 348.599 74.6587 348.38C74.7399 348.162 74.7805 347.925 74.7805 347.669C74.7805 347.414 74.7399 347.176 74.6587 346.956C74.5775 346.736 74.4524 346.557 74.2833 346.422C74.1143 346.286 73.8989 346.218 73.637 346.218C73.3752 346.218 73.1598 346.286 72.9907 346.422C72.8217 346.557 72.6966 346.736 72.6154 346.956C72.5342 347.176 72.4936 347.414 72.4936 347.669C72.4936 347.925 72.5342 348.162 72.6154 348.38C72.6966 348.599 72.8217 348.776 72.9907 348.91C73.1598 349.044 73.3752 349.111 73.637 349.111ZM77.7044 349.638C77.3862 349.638 77.1053 349.558 76.8617 349.397C76.6181 349.235 76.4275 349.006 76.29 348.711C76.1525 348.414 76.0837 348.064 76.0837 347.659C76.0837 347.258 76.1525 346.91 76.29 346.615C76.4275 346.32 76.619 346.093 76.8642 345.932C77.1095 345.771 77.3929 345.691 77.7144 345.691C77.9629 345.691 78.1593 345.732 78.3035 345.815C78.4493 345.896 78.5604 345.989 78.6366 346.093C78.7145 346.196 78.775 346.281 78.8181 346.347H78.8678V344.468H79.4544V349.559H78.8877V348.972H78.8181C78.775 349.042 78.7136 349.129 78.6341 349.235C78.5546 349.34 78.441 349.433 78.2936 349.516C78.1461 349.598 77.9497 349.638 77.7044 349.638ZM77.784 349.111C78.0193 349.111 78.2181 349.05 78.3806 348.927C78.543 348.803 78.6664 348.631 78.7509 348.413C78.8355 348.192 78.8777 347.938 78.8777 347.65C78.8777 347.364 78.8363 347.115 78.7534 346.901C78.6706 346.686 78.5479 346.518 78.3855 346.399C78.2231 346.278 78.0226 346.218 77.784 346.218C77.5354 346.218 77.3282 346.281 77.1625 346.409C76.9985 346.535 76.875 346.707 76.7921 346.924C76.7109 347.139 76.6703 347.381 76.6703 347.65C76.6703 347.921 76.7118 348.168 76.7946 348.39C76.8791 348.611 77.0034 348.786 77.1675 348.917C77.3332 349.047 77.5387 349.111 77.784 349.111ZM81.7339 349.648C81.4919 349.648 81.2724 349.603 81.0752 349.511C80.8779 349.419 80.7213 349.285 80.6053 349.111C80.4893 348.935 80.4313 348.723 80.4313 348.475C80.4313 348.256 80.4744 348.079 80.5606 347.943C80.6468 347.805 80.7619 347.698 80.9061 347.62C81.0503 347.542 81.2094 347.484 81.3834 347.446C81.5591 347.406 81.7355 347.374 81.9129 347.351C82.1449 347.321 82.333 347.299 82.4771 347.284C82.623 347.268 82.729 347.24 82.7953 347.202C82.8633 347.164 82.8972 347.098 82.8972 347.003V346.983C82.8972 346.738 82.8301 346.547 82.6959 346.412C82.5633 346.276 82.362 346.208 82.0918 346.208C81.8118 346.208 81.5922 346.269 81.4331 346.392C81.274 346.514 81.1622 346.645 81.0975 346.784L80.5407 346.586C80.6401 346.354 80.7727 346.173 80.9384 346.044C81.1058 345.913 81.2881 345.822 81.4853 345.77C81.6842 345.717 81.8797 345.691 82.072 345.691C82.1946 345.691 82.3355 345.706 82.4945 345.735C82.6553 345.764 82.8102 345.822 82.9594 345.912C83.1102 346.001 83.2353 346.136 83.3347 346.317C83.4342 346.498 83.4839 346.74 83.4839 347.043V349.559H82.8972V349.042H82.8674C82.8276 349.124 82.7614 349.213 82.6686 349.308C82.5757 349.402 82.4523 349.482 82.2982 349.549C82.144 349.615 81.956 349.648 81.7339 349.648ZM81.8234 349.121C82.0554 349.121 82.2509 349.076 82.41 348.984C82.5708 348.893 82.6918 348.776 82.773 348.631C82.8558 348.487 82.8972 348.336 82.8972 348.176V347.64C82.8724 347.669 82.8177 347.697 82.7332 347.722C82.6503 347.745 82.5542 347.766 82.4448 347.784C82.3371 347.8 82.2319 347.815 82.1291 347.828C82.028 347.84 81.946 347.85 81.883 347.858C81.7306 347.878 81.5881 347.911 81.4555 347.955C81.3246 347.998 81.2185 348.064 81.1373 348.152C81.0578 348.238 81.018 348.355 81.018 348.505C81.018 348.708 81.0934 348.863 81.2442 348.967C81.3967 349.07 81.5897 349.121 81.8234 349.121ZM84.7958 350.99C84.6963 350.99 84.6077 350.982 84.5298 350.966C84.4519 350.951 84.398 350.936 84.3682 350.921L84.5174 350.404C84.6599 350.44 84.7858 350.453 84.8952 350.444C85.0046 350.434 85.1015 350.385 85.186 350.297C85.2722 350.211 85.3509 350.071 85.4222 349.877L85.5316 349.578L84.1196 345.74H84.756L85.81 348.783H85.8497L86.9037 345.74H87.5401L85.9193 350.115C85.8464 350.313 85.7561 350.476 85.6484 350.605C85.5407 350.736 85.4156 350.833 85.273 350.896C85.1322 350.959 84.9731 350.99 84.7958 350.99ZM91.4067 349.648C91.1648 349.648 90.9452 349.603 90.748 349.511C90.5508 349.419 90.3942 349.285 90.2782 349.111C90.1622 348.935 90.1042 348.723 90.1042 348.475C90.1042 348.256 90.1473 348.079 90.2334 347.943C90.3196 347.805 90.4348 347.698 90.579 347.62C90.7231 347.542 90.8822 347.484 91.0562 347.446C91.2319 347.406 91.4084 347.374 91.5857 347.351C91.8177 347.321 92.0058 347.299 92.15 347.284C92.2958 347.268 92.4019 347.24 92.4682 347.202C92.5361 347.164 92.5701 347.098 92.5701 347.003V346.983C92.5701 346.738 92.503 346.547 92.3687 346.412C92.2362 346.276 92.0348 346.208 91.7647 346.208C91.4846 346.208 91.2651 346.269 91.106 346.392C90.9469 346.514 90.835 346.645 90.7704 346.784L90.2136 346.586C90.313 346.354 90.4456 346.173 90.6113 346.044C90.7787 345.913 90.961 345.822 91.1582 345.77C91.357 345.717 91.5526 345.691 91.7448 345.691C91.8674 345.691 92.0083 345.706 92.1674 345.735C92.3281 345.764 92.4831 345.822 92.6322 345.912C92.783 346.001 92.9082 346.136 93.0076 346.317C93.107 346.498 93.1567 346.74 93.1567 347.043V349.559H92.5701V349.042H92.5403C92.5005 349.124 92.4342 349.213 92.3414 349.308C92.2486 349.402 92.1251 349.482 91.971 349.549C91.8169 349.615 91.6288 349.648 91.4067 349.648ZM91.4962 349.121C91.7282 349.121 91.9238 349.076 92.0829 348.984C92.2436 348.893 92.3646 348.776 92.4458 348.631C92.5287 348.487 92.5701 348.336 92.5701 348.176V347.64C92.5452 347.669 92.4905 347.697 92.406 347.722C92.3232 347.745 92.2271 347.766 92.1177 347.784C92.01 347.8 91.9047 347.815 91.802 347.828C91.7009 347.84 91.6189 347.85 91.5559 347.858C91.4034 347.878 91.2609 347.911 91.1283 347.955C90.9974 347.998 90.8914 348.064 90.8102 348.152C90.7306 348.238 90.6908 348.355 90.6908 348.505C90.6908 348.708 90.7662 348.863 90.917 348.967C91.0695 349.07 91.2626 349.121 91.4962 349.121ZM95.888 345.74V346.238H93.9093V345.74H95.888ZM94.486 344.826H95.0727V348.465C95.0727 348.631 95.0967 348.755 95.1448 348.838C95.1945 348.919 95.2574 348.974 95.3337 349.002C95.4116 349.028 95.4936 349.042 95.5798 349.042C95.6444 349.042 95.6974 349.038 95.7389 349.032C95.7803 349.023 95.8134 349.017 95.8383 349.012L95.9576 349.539C95.9178 349.554 95.8623 349.569 95.7911 349.583C95.7198 349.6 95.6295 349.608 95.5201 349.608C95.3544 349.608 95.192 349.573 95.0329 349.501C94.8755 349.43 94.7445 349.322 94.6401 349.176C94.5374 349.03 94.486 348.846 94.486 348.624V344.826ZM102.359 349.628C101.984 349.628 101.665 349.526 101.402 349.322C101.138 349.117 100.937 348.819 100.797 348.43C100.658 348.039 100.589 347.567 100.589 347.013C100.589 346.463 100.658 345.993 100.797 345.604C100.938 345.213 101.14 344.914 101.404 344.709C101.669 344.502 101.987 344.398 102.359 344.398C102.73 344.398 103.047 344.502 103.311 344.709C103.576 344.914 103.778 345.213 103.917 345.604C104.058 345.993 104.128 346.463 104.128 347.013C104.128 347.567 104.059 348.039 103.92 348.43C103.78 348.819 103.579 349.117 103.316 349.322C103.052 349.526 102.733 349.628 102.359 349.628ZM102.359 349.081C102.73 349.081 103.018 348.902 103.224 348.544C103.429 348.186 103.532 347.676 103.532 347.013C103.532 346.572 103.485 346.197 103.39 345.887C103.297 345.577 103.163 345.341 102.987 345.179C102.813 345.016 102.604 344.935 102.359 344.935C101.991 344.935 101.703 345.116 101.496 345.479C101.289 345.841 101.185 346.352 101.185 347.013C101.185 347.454 101.232 347.828 101.324 348.137C101.417 348.445 101.551 348.679 101.725 348.84C101.9 349.001 102.112 349.081 102.359 349.081ZM105.095 349.559L107.372 345.054V345.015H104.747V344.468H108.009V345.044L105.742 349.559H105.095ZM109.134 348.907C109.011 348.907 108.906 348.863 108.818 348.776C108.73 348.688 108.686 348.583 108.686 348.46C108.686 348.337 108.73 348.232 108.818 348.144C108.906 348.056 109.011 348.012 109.134 348.012C109.256 348.012 109.361 348.056 109.449 348.144C109.537 348.232 109.581 348.337 109.581 348.46C109.581 348.541 109.56 348.616 109.519 348.684C109.479 348.752 109.425 348.806 109.357 348.848C109.291 348.887 109.216 348.907 109.134 348.907ZM109.134 346.332C109.011 346.332 108.906 346.288 108.818 346.2C108.73 346.112 108.686 346.007 108.686 345.885C108.686 345.762 108.73 345.657 108.818 345.569C108.906 345.481 109.011 345.437 109.134 345.437C109.256 345.437 109.361 345.481 109.449 345.569C109.537 345.657 109.581 345.762 109.581 345.885C109.581 345.966 109.56 346.04 109.519 346.108C109.479 346.176 109.425 346.231 109.357 346.272C109.291 346.312 109.216 346.332 109.134 346.332ZM112.344 349.628C112.016 349.628 111.723 349.572 111.466 349.459C111.211 349.346 111.008 349.19 110.857 348.989C110.708 348.787 110.627 348.553 110.614 348.286H111.24C111.254 348.45 111.31 348.592 111.409 348.711C111.509 348.829 111.639 348.92 111.8 348.984C111.96 349.049 112.138 349.081 112.334 349.081C112.553 349.081 112.747 349.043 112.916 348.967C113.085 348.891 113.217 348.785 113.313 348.649C113.41 348.513 113.458 348.355 113.458 348.176C113.458 347.989 113.411 347.824 113.318 347.682C113.226 347.538 113.09 347.425 112.911 347.344C112.732 347.263 112.513 347.222 112.254 347.222H111.847V346.675H112.254C112.457 346.675 112.634 346.639 112.786 346.566C112.941 346.493 113.061 346.39 113.147 346.257C113.235 346.125 113.279 345.969 113.279 345.79C113.279 345.618 113.241 345.468 113.164 345.34C113.088 345.213 112.98 345.113 112.841 345.042C112.704 344.971 112.541 344.935 112.354 344.935C112.178 344.935 112.013 344.967 111.857 345.032C111.703 345.095 111.577 345.187 111.479 345.308C111.381 345.427 111.328 345.571 111.32 345.74H110.723C110.733 345.474 110.814 345.24 110.964 345.039C111.115 344.837 111.312 344.68 111.556 344.567C111.801 344.454 112.071 344.398 112.364 344.398C112.679 344.398 112.949 344.462 113.174 344.589C113.4 344.715 113.573 344.882 113.694 345.089C113.815 345.296 113.875 345.52 113.875 345.76C113.875 346.047 113.8 346.291 113.649 346.494C113.5 346.696 113.297 346.836 113.04 346.914V346.953C113.361 347.007 113.613 347.143 113.793 347.364C113.974 347.582 114.064 347.853 114.064 348.176C114.064 348.453 113.989 348.702 113.838 348.922C113.689 349.141 113.485 349.313 113.226 349.439C112.968 349.565 112.674 349.628 112.344 349.628ZM116.741 349.628C116.367 349.628 116.048 349.526 115.784 349.322C115.521 349.117 115.319 348.819 115.18 348.43C115.041 348.039 114.971 347.567 114.971 347.013C114.971 346.463 115.041 345.993 115.18 345.604C115.321 345.213 115.523 344.914 115.787 344.709C116.052 344.502 116.37 344.398 116.741 344.398C117.113 344.398 117.43 344.502 117.693 344.709C117.959 344.914 118.161 345.213 118.3 345.604C118.441 345.993 118.511 346.463 118.511 347.013C118.511 347.567 118.442 348.039 118.302 348.43C118.163 348.819 117.962 349.117 117.698 349.322C117.435 349.526 117.116 349.628 116.741 349.628ZM116.741 349.081C117.113 349.081 117.401 348.902 117.606 348.544C117.812 348.186 117.915 347.676 117.915 347.013C117.915 346.572 117.867 346.197 117.773 345.887C117.68 345.577 117.546 345.341 117.37 345.179C117.196 345.016 116.987 344.935 116.741 344.935C116.373 344.935 116.086 345.116 115.879 345.479C115.672 345.841 115.568 346.352 115.568 347.013C115.568 347.454 115.614 347.828 115.707 348.137C115.8 348.445 115.933 348.679 116.107 348.84C116.283 349.001 116.494 349.081 116.741 349.081Z" fill="#9D9D9D"/>
<path id="ReviewsGraphJune" d="M40.7251 311.26V316.351H40.1086V311.907H40.0788L38.8359 312.732V312.106L40.1086 311.26H40.7251ZM43.8199 316.421C43.4785 316.421 43.1769 316.36 42.9151 316.239C42.6549 316.117 42.4519 315.949 42.3061 315.735C42.1602 315.519 42.0881 315.274 42.0898 314.999C42.0881 314.784 42.1304 314.585 42.2166 314.402C42.3028 314.219 42.4204 314.065 42.5696 313.943C42.7204 313.818 42.8886 313.74 43.0742 313.706V313.677C42.8306 313.614 42.6367 313.477 42.4925 313.266C42.3483 313.054 42.2771 312.813 42.2787 312.543C42.2771 312.285 42.3425 312.053 42.4751 311.85C42.6077 311.646 42.79 311.485 43.022 311.367C43.2556 311.25 43.5216 311.191 43.8199 311.191C44.1149 311.191 44.3784 311.25 44.6104 311.367C44.8424 311.485 45.0247 311.646 45.1573 311.85C45.2915 312.053 45.3595 312.285 45.3611 312.543C45.3595 312.813 45.2857 313.054 45.1399 313.266C44.9957 313.477 44.8043 313.614 44.5657 313.677V313.706C44.7496 313.74 44.9153 313.818 45.0628 313.943C45.2103 314.065 45.328 314.219 45.4158 314.402C45.5036 314.585 45.5484 314.784 45.55 314.999C45.5484 315.274 45.4738 315.519 45.3263 315.735C45.1805 315.949 44.9775 316.117 44.7173 316.239C44.4588 316.36 44.1596 316.421 43.8199 316.421ZM43.8199 315.874C44.0503 315.874 44.2491 315.837 44.4165 315.762C44.5839 315.688 44.7131 315.582 44.8043 315.446C44.8954 315.311 44.9418 315.152 44.9435 314.969C44.9418 314.777 44.8921 314.607 44.7943 314.46C44.6966 314.312 44.5632 314.196 44.3941 314.112C44.2268 314.027 44.0354 313.985 43.8199 313.985C43.6028 313.985 43.4089 314.027 43.2382 314.112C43.0692 314.196 42.9358 314.312 42.838 314.46C42.7419 314.607 42.6947 314.777 42.6963 314.969C42.6947 315.152 42.7386 315.311 42.8281 315.446C42.9192 315.582 43.0493 315.688 43.2184 315.762C43.3874 315.837 43.5879 315.874 43.8199 315.874ZM43.8199 313.458C44.0022 313.458 44.1638 313.421 44.3046 313.348C44.4472 313.276 44.559 313.174 44.6402 313.043C44.7214 312.912 44.7629 312.759 44.7645 312.583C44.7629 312.411 44.7223 312.261 44.6427 312.133C44.5632 312.004 44.453 311.904 44.3121 311.835C44.1712 311.763 44.0072 311.728 43.8199 311.728C43.6293 311.728 43.4628 311.763 43.3203 311.835C43.1778 311.904 43.0675 312.004 42.9897 312.133C42.9118 312.261 42.8737 312.411 42.8753 312.583C42.8737 312.759 42.9126 312.912 42.9921 313.043C43.0733 313.174 43.1852 313.276 43.3277 313.348C43.4702 313.421 43.6343 313.458 43.8199 313.458ZM50.5098 311.26H51.1263V314.9C51.1263 315.224 51.0666 315.5 50.9473 315.727C50.828 315.954 50.6598 316.127 50.4427 316.244C50.2256 316.362 49.9696 316.421 49.6746 316.421C49.3962 316.421 49.1484 316.37 48.9313 316.269C48.7142 316.167 48.5435 316.021 48.4193 315.832C48.295 315.643 48.2328 315.418 48.2328 315.158H48.8394C48.8394 315.302 48.875 315.428 48.9462 315.536C49.0192 315.642 49.1186 315.725 49.2445 315.785C49.3705 315.844 49.5138 315.874 49.6746 315.874C49.8519 315.874 50.0027 315.837 50.127 315.762C50.2513 315.688 50.3458 315.578 50.4104 315.434C50.4767 315.288 50.5098 315.11 50.5098 314.9V311.26ZM54.6884 314.79V312.533H55.2751V316.351H54.6884V315.705H54.6487C54.5592 315.899 54.42 316.064 54.2311 316.2C54.0421 316.334 53.8035 316.401 53.5151 316.401C53.2765 316.401 53.0644 316.349 52.8788 316.244C52.6932 316.138 52.5473 315.979 52.4413 315.767C52.3352 315.553 52.2822 315.284 52.2822 314.959V312.533H52.8688V314.92C52.8688 315.198 52.9467 315.42 53.1025 315.586C53.2599 315.751 53.4605 315.834 53.7041 315.834C53.8499 315.834 53.9982 315.797 54.149 315.722C54.3015 315.648 54.4291 315.533 54.5318 315.379C54.6362 315.225 54.6884 315.029 54.6884 314.79ZM56.9362 314.054V316.351H56.3496V312.533H56.9163V313.13H56.966C57.0555 312.936 57.1914 312.78 57.3737 312.662C57.556 312.543 57.7913 312.483 58.0797 312.483C58.3382 312.483 58.5644 312.536 58.7583 312.643C58.9522 312.747 59.103 312.906 59.2107 313.12C59.3184 313.332 59.3723 313.6 59.3723 313.925V316.351H58.7856V313.965C58.7856 313.665 58.7078 313.431 58.552 313.264C58.3962 313.095 58.1824 313.01 57.9106 313.01C57.7234 313.01 57.556 313.051 57.4085 313.132C57.2627 313.213 57.1475 313.332 57.063 313.488C56.9785 313.643 56.9362 313.832 56.9362 314.054ZM62.0451 316.431C61.6773 316.431 61.3599 316.35 61.0931 316.187C60.8279 316.023 60.6233 315.795 60.4791 315.501C60.3366 315.206 60.2653 314.863 60.2653 314.472C60.2653 314.081 60.3366 313.736 60.4791 313.438C60.6233 313.138 60.8238 312.904 61.0807 312.737C61.3392 312.568 61.6408 312.483 61.9855 312.483C62.1844 312.483 62.3807 312.517 62.5746 312.583C62.7685 312.649 62.945 312.757 63.1041 312.906C63.2632 313.053 63.39 313.249 63.4844 313.493C63.5789 313.736 63.6261 314.036 63.6261 314.393V314.641H60.6829V314.134H63.0295C63.0295 313.919 62.9864 313.726 62.9003 313.557C62.8157 313.388 62.6948 313.255 62.5373 313.157C62.3816 313.059 62.1976 313.01 61.9855 313.01C61.7518 313.01 61.5496 313.068 61.379 313.184C61.2099 313.299 61.0798 313.448 60.9887 313.632C60.8975 313.816 60.852 314.013 60.852 314.223V314.562C60.852 314.85 60.9017 315.094 61.0011 315.295C61.1022 315.494 61.2422 315.645 61.4212 315.75C61.6002 315.853 61.8082 315.904 62.0451 315.904C62.1993 315.904 62.3385 315.882 62.4628 315.839C62.5887 315.795 62.6973 315.728 62.7884 315.64C62.8795 315.551 62.95 315.44 62.9997 315.307L63.5665 315.466C63.5068 315.659 63.4065 315.828 63.2657 315.973C63.1248 316.118 62.9508 316.23 62.7437 316.312C62.5365 316.391 62.3037 316.431 62.0451 316.431Z" fill="#9D9D9D"/>
<path id="ReviewsGraphToday" d="M344.267 311.807V311.26H348.085V311.807H346.485V316.351H345.868V311.807H344.267ZM349.955 316.431C349.61 316.431 349.308 316.349 349.047 316.185C348.789 316.021 348.587 315.791 348.441 315.496C348.297 315.201 348.225 314.857 348.225 314.462C348.225 314.064 348.297 313.717 348.441 313.421C348.587 313.124 348.789 312.894 349.047 312.73C349.308 312.565 349.61 312.483 349.955 312.483C350.299 312.483 350.601 312.565 350.86 312.73C351.12 312.894 351.322 313.124 351.466 313.421C351.612 313.717 351.685 314.064 351.685 314.462C351.685 314.857 351.612 315.201 351.466 315.496C351.322 315.791 351.12 316.021 350.86 316.185C350.601 316.349 350.299 316.431 349.955 316.431ZM349.955 315.904C350.217 315.904 350.432 315.837 350.601 315.703C350.77 315.568 350.895 315.392 350.976 315.173C351.058 314.954 351.098 314.717 351.098 314.462C351.098 314.207 351.058 313.969 350.976 313.749C350.895 313.528 350.77 313.35 350.601 313.214C350.432 313.078 350.217 313.01 349.955 313.01C349.693 313.01 349.477 313.078 349.308 313.214C349.139 313.35 349.014 313.528 348.933 313.749C348.852 313.969 348.811 314.207 348.811 314.462C348.811 314.717 348.852 314.954 348.933 315.173C349.014 315.392 349.139 315.568 349.308 315.703C349.477 315.837 349.693 315.904 349.955 315.904ZM354.022 316.431C353.704 316.431 353.423 316.35 353.179 316.19C352.936 316.027 352.745 315.799 352.608 315.504C352.47 315.207 352.401 314.857 352.401 314.452C352.401 314.051 352.47 313.703 352.608 313.408C352.745 313.113 352.937 312.885 353.182 312.725C353.427 312.564 353.711 312.483 354.032 312.483C354.281 312.483 354.477 312.525 354.621 312.608C354.767 312.689 354.878 312.782 354.954 312.886C355.032 312.989 355.093 313.073 355.136 313.14H355.185V311.26H355.772V316.351H355.205V315.765H355.136C355.093 315.834 355.031 315.922 354.952 316.028C354.872 316.133 354.759 316.226 354.611 316.309C354.464 316.39 354.267 316.431 354.022 316.431ZM354.102 315.904C354.337 315.904 354.536 315.843 354.698 315.72C354.861 315.596 354.984 315.424 355.069 315.205C355.153 314.985 355.195 314.731 355.195 314.442C355.195 314.157 355.154 313.908 355.071 313.694C354.988 313.479 354.866 313.311 354.703 313.192C354.541 313.071 354.34 313.01 354.102 313.01C353.853 313.01 353.646 313.074 353.48 313.202C353.316 313.328 353.193 313.499 353.11 313.716C353.029 313.932 352.988 314.174 352.988 314.442C352.988 314.714 353.029 314.961 353.112 315.183C353.197 315.403 353.321 315.579 353.485 315.71C353.651 315.839 353.856 315.904 354.102 315.904ZM358.052 316.441C357.81 316.441 357.59 316.395 357.393 316.304C357.196 316.211 357.039 316.078 356.923 315.904C356.807 315.728 356.749 315.516 356.749 315.268C356.749 315.049 356.792 314.871 356.878 314.736C356.964 314.598 357.08 314.49 357.224 314.412C357.368 314.335 357.527 314.277 357.701 314.238C357.877 314.199 358.053 314.167 358.231 314.144C358.463 314.114 358.651 314.092 358.795 314.077C358.941 314.06 359.047 314.033 359.113 313.995C359.181 313.957 359.215 313.89 359.215 313.796V313.776C359.215 313.531 359.148 313.34 359.014 313.204C358.881 313.068 358.68 313 358.41 313C358.129 313 357.91 313.062 357.751 313.184C357.592 313.307 357.48 313.438 357.415 313.577L356.858 313.378C356.958 313.146 357.09 312.966 357.256 312.836C357.424 312.705 357.606 312.614 357.803 312.563C358.002 312.51 358.197 312.483 358.39 312.483C358.512 312.483 358.653 312.498 358.812 312.528C358.973 312.556 359.128 312.615 359.277 312.705C359.428 312.794 359.553 312.929 359.652 313.11C359.752 313.29 359.802 313.532 359.802 313.836V316.351H359.215V315.834H359.185C359.145 315.917 359.079 316.006 358.986 316.1C358.893 316.195 358.77 316.275 358.616 316.341C358.462 316.408 358.274 316.441 358.052 316.441ZM358.141 315.914C358.373 315.914 358.569 315.868 358.728 315.777C358.888 315.686 359.009 315.568 359.091 315.424C359.174 315.28 359.215 315.128 359.215 314.969V314.432C359.19 314.462 359.135 314.489 359.051 314.514C358.968 314.538 358.872 314.558 358.763 314.576C358.655 314.593 358.55 314.608 358.447 314.621C358.346 314.633 358.264 314.643 358.201 314.651C358.048 314.671 357.906 314.703 357.773 314.748C357.642 314.791 357.536 314.857 357.455 314.944C357.375 315.031 357.336 315.148 357.336 315.297C357.336 315.501 357.411 315.655 357.562 315.76C357.714 315.862 357.907 315.914 358.141 315.914ZM361.113 317.783C361.014 317.783 360.925 317.775 360.847 317.758C360.77 317.743 360.716 317.728 360.686 317.714L360.835 317.196C360.978 317.233 361.104 317.246 361.213 317.236C361.322 317.226 361.419 317.177 361.504 317.09C361.59 317.003 361.669 316.863 361.74 316.67L361.849 316.371L360.437 312.533H361.074L362.128 315.576H362.167L363.221 312.533H363.858L362.237 316.908C362.164 317.105 362.074 317.269 361.966 317.398C361.858 317.529 361.733 317.626 361.591 317.689C361.45 317.752 361.291 317.783 361.113 317.783Z" fill="#9D9D9D"/>
<line id="ReviewsTabGraphUnderline" x1="38.4083" y1="296.867" x2="380.592" y2="296.867" stroke="#D9D9D9" stroke-width="0.5"/>
<path id="ReviewsTabTopNumber" d="M40.5262 131.16C40.2346 131.16 39.9719 131.102 39.7382 130.986C39.5046 130.87 39.3173 130.711 39.1765 130.508C39.0356 130.306 38.9585 130.076 38.9453 129.817H39.5419C39.5651 130.048 39.6695 130.238 39.8551 130.389C40.0423 130.538 40.2661 130.613 40.5262 130.613C40.735 130.613 40.9207 130.564 41.0831 130.466C41.2471 130.368 41.3756 130.234 41.4684 130.063C41.5628 129.891 41.61 129.696 41.61 129.479C41.61 129.257 41.5612 129.059 41.4634 128.885C41.3673 128.71 41.2347 128.571 41.0657 128.47C40.8966 128.369 40.7036 128.318 40.4865 128.316C40.3307 128.314 40.1708 128.338 40.0067 128.388C39.8426 128.436 39.7076 128.498 39.6015 128.574L39.0248 128.505L39.3331 125.999H41.9779V126.546H39.8501L39.6711 128.047H39.701C39.8054 127.965 39.9363 127.896 40.0937 127.841C40.2511 127.786 40.4152 127.759 40.5859 127.759C40.8975 127.759 41.175 127.834 41.4186 127.983C41.6639 128.13 41.8561 128.333 41.9953 128.589C42.1362 128.846 42.2066 129.14 42.2066 129.469C42.2066 129.794 42.1337 130.084 41.9879 130.339C41.8437 130.593 41.6448 130.793 41.3913 130.941C41.1377 131.087 40.8494 131.16 40.5262 131.16ZM44.8546 131.16C44.4801 131.16 44.1611 131.058 43.8976 130.854C43.6341 130.648 43.4328 130.351 43.2935 129.962C43.1543 129.57 43.0847 129.098 43.0847 128.545C43.0847 127.994 43.1543 127.525 43.2935 127.135C43.4344 126.744 43.6366 126.446 43.9001 126.24C44.1652 126.033 44.4834 125.93 44.8546 125.93C45.2258 125.93 45.5432 126.033 45.8067 126.24C46.0718 126.446 46.274 126.744 46.4132 127.135C46.5541 127.525 46.6245 127.994 46.6245 128.545C46.6245 129.098 46.5549 129.57 46.4157 129.962C46.2765 130.351 46.0752 130.648 45.8117 130.854C45.5482 131.058 45.2292 131.16 44.8546 131.16ZM44.8546 130.613C45.2258 130.613 45.5142 130.434 45.7197 130.076C45.9252 129.718 46.0279 129.208 46.0279 128.545C46.0279 128.104 45.9807 127.728 45.8862 127.419C45.7934 127.109 45.6592 126.873 45.4835 126.71C45.3095 126.548 45.0999 126.467 44.8546 126.467C44.4867 126.467 44.1992 126.648 43.9921 127.011C43.7849 127.372 43.6813 127.883 43.6813 128.545C43.6813 128.985 43.7277 129.36 43.8205 129.668C43.9133 129.976 44.0467 130.211 44.2208 130.372C44.3964 130.532 44.6077 130.613 44.8546 130.613ZM49.2296 131.16C48.8551 131.16 48.5361 131.058 48.2726 130.854C48.0091 130.648 47.8078 130.351 47.6685 129.962C47.5293 129.57 47.4597 129.098 47.4597 128.545C47.4597 127.994 47.5293 127.525 47.6685 127.135C47.8094 126.744 48.0116 126.446 48.2751 126.24C48.5402 126.033 48.8584 125.93 49.2296 125.93C49.6008 125.93 49.9182 126.033 50.1817 126.24C50.4468 126.446 50.649 126.744 50.7882 127.135C50.9291 127.525 50.9995 127.994 50.9995 128.545C50.9995 129.098 50.9299 129.57 50.7907 129.962C50.6515 130.351 50.4502 130.648 50.1867 130.854C49.9232 131.058 49.6042 131.16 49.2296 131.16ZM49.2296 130.613C49.6008 130.613 49.8892 130.434 50.0947 130.076C50.3002 129.718 50.4029 129.208 50.4029 128.545C50.4029 128.104 50.3557 127.728 50.2612 127.419C50.1684 127.109 50.0342 126.873 49.8585 126.71C49.6845 126.548 49.4749 126.467 49.2296 126.467C48.8617 126.467 48.5742 126.648 48.3671 127.011C48.1599 127.372 48.0563 127.883 48.0563 128.545C48.0563 128.985 48.1027 129.36 48.1955 129.668C48.2883 129.976 48.4217 130.211 48.5958 130.372C48.7714 130.532 48.9827 130.613 49.2296 130.613Z" fill="#9D9D9D"/>
<path id="ReviewsTabBottomNumber" d="M40.5958 277.97C40.2213 277.97 39.9023 277.869 39.6388 277.665C39.3753 277.459 39.174 277.162 39.0348 276.772C38.8956 276.381 38.826 275.909 38.826 275.355C38.826 274.805 38.8956 274.335 39.0348 273.946C39.1756 273.555 39.3778 273.257 39.6413 273.051C39.9064 272.844 40.2246 272.74 40.5958 272.74C40.9671 272.74 41.2844 272.844 41.5479 273.051C41.8131 273.257 42.0152 273.555 42.1544 273.946C42.2953 274.335 42.3657 274.805 42.3657 275.355C42.3657 275.909 42.2961 276.381 42.1569 276.772C42.0177 277.162 41.8164 277.459 41.5529 277.665C41.2894 277.869 40.9704 277.97 40.5958 277.97ZM40.5958 277.424C40.9671 277.424 41.2554 277.245 41.4609 276.887C41.6664 276.529 41.7691 276.018 41.7691 275.355C41.7691 274.915 41.7219 274.539 41.6274 274.229C41.5346 273.919 41.4004 273.683 41.2247 273.521C41.0507 273.359 40.8411 273.277 40.5958 273.277C40.2279 273.277 39.9404 273.459 39.7333 273.822C39.5261 274.183 39.4225 274.694 39.4225 275.355C39.4225 275.796 39.4689 276.171 39.5617 276.479C39.6546 276.787 39.788 277.022 39.962 277.182C40.1376 277.343 40.3489 277.424 40.5958 277.424Z" fill="#9D9D9D"/>
<path id="ReviewsNumberNew" d="M39.1072 81.8679V80.9986L42.9424 74.9304H43.5731V76.277H43.147L40.2492 80.8622V80.9304H45.414V81.8679H39.1072ZM43.2152 83.6577V81.6037V81.1988V74.9304H44.2208V83.6577H43.2152ZM47.2837 83.6577L51.1871 75.9361V75.8679H46.6871V74.9304H52.278V75.919L48.3917 83.6577H47.2837ZM53.8664 83.6577V82.8906L56.7471 79.7372C57.0852 79.3679 57.3636 79.0469 57.5823 78.7741C57.8011 78.4986 57.963 78.24 58.0681 77.9986C58.1761 77.7542 58.2301 77.4986 58.2301 77.2315C58.2301 76.9247 58.1562 76.6591 58.0085 76.4346C57.8636 76.2102 57.6647 76.0369 57.4119 75.9148C57.1591 75.7926 56.875 75.7315 56.5596 75.7315C56.2244 75.7315 55.9318 75.8011 55.6818 75.9403C55.4346 76.0767 55.2429 76.2684 55.1065 76.5156C54.973 76.7628 54.9062 77.0525 54.9062 77.3849H53.9005C53.9005 76.8736 54.0184 76.4247 54.2542 76.0383C54.49 75.652 54.811 75.3508 55.2173 75.1349C55.6264 74.919 56.0852 74.8111 56.5937 74.8111C57.1051 74.8111 57.5582 74.919 57.9531 75.1349C58.348 75.3508 58.6576 75.642 58.8821 76.0085C59.1065 76.375 59.2187 76.7827 59.2187 77.2315C59.2187 77.5525 59.1605 77.8665 59.044 78.1733C58.9304 78.4773 58.7315 78.8167 58.4474 79.1917C58.1662 79.5639 57.7755 80.0184 57.2755 80.5554L55.3153 82.652V82.7202H59.3721V83.6577H53.8664Z" fill="black"/>
<path id="ReviewsText" d="M39.201 52.6937V46.1482H41.4126C41.924 46.1482 42.3437 46.2356 42.6718 46.4103C43 46.5829 43.2429 46.8205 43.4005 47.123C43.5582 47.4256 43.637 47.7697 43.637 48.1553C43.637 48.541 43.5582 48.883 43.4005 49.1813C43.2429 49.4796 43.001 49.7139 42.675 49.8844C42.349 50.0527 41.9325 50.1369 41.4254 50.1369H39.6356V49.421H41.3998C41.7492 49.421 42.0305 49.3698 42.2436 49.2676C42.4588 49.1653 42.6143 49.0204 42.7102 48.8329C42.8082 48.6433 42.8572 48.4174 42.8572 48.1553C42.8572 47.8933 42.8082 47.6642 42.7102 47.4682C42.6122 47.2722 42.4556 47.1209 42.2404 47.0144C42.0252 46.9057 41.7407 46.8514 41.387 46.8514H39.9936V52.6937H39.201ZM42.2819 49.7534L43.8927 52.6937H42.9723L41.387 49.7534H42.2819ZM46.861 52.796C46.388 52.796 45.98 52.6916 45.6369 52.4828C45.296 52.2718 45.0329 51.9778 44.8475 51.6007C44.6643 51.2214 44.5727 50.7803 44.5727 50.2775C44.5727 49.7747 44.6643 49.3315 44.8475 48.948C45.0329 48.5623 45.2907 48.2619 45.621 48.0467C45.9534 47.8293 46.3411 47.7207 46.7843 47.7207C47.04 47.7207 47.2925 47.7633 47.5418 47.8485C47.7911 47.9338 48.018 48.0722 48.2225 48.264C48.4271 48.4536 48.5901 48.7051 48.7115 49.0183C48.833 49.3315 48.8937 49.7171 48.8937 50.1752V50.4948H45.1096V49.8428H48.1266C48.1266 49.5659 48.0712 49.3187 47.9605 49.1014C47.8518 48.884 47.6962 48.7125 47.4938 48.5868C47.2936 48.4611 47.057 48.3982 46.7843 48.3982C46.4839 48.3982 46.2239 48.4728 46.0045 48.622C45.7872 48.769 45.6199 48.9607 45.5027 49.1972C45.3855 49.4338 45.3269 49.6873 45.3269 49.9579V50.3926C45.3269 50.7633 45.3909 51.0776 45.5187 51.3354C45.6487 51.5911 45.8287 51.786 46.0588 51.9203C46.2889 52.0524 46.5563 52.1184 46.861 52.1184C47.0592 52.1184 47.2382 52.0907 47.398 52.0353C47.5599 51.9778 47.6994 51.8926 47.8166 51.7796C47.9338 51.6646 48.0244 51.5218 48.0883 51.3514L48.817 51.5559C48.7403 51.8031 48.6114 52.0204 48.4303 52.2079C48.2492 52.3933 48.0254 52.5382 47.7591 52.6426C47.4928 52.7448 47.1934 52.796 46.861 52.796ZM53.9059 47.7846L52.0905 52.6937H51.3235L49.5081 47.7846H50.3263L51.6814 51.6965H51.7326L53.0877 47.7846H53.9059ZM54.9014 52.6937V47.7846H55.6557V52.6937H54.9014ZM55.2849 46.9664C55.1379 46.9664 55.0111 46.9164 54.9046 46.8162C54.8002 46.7161 54.748 46.5957 54.748 46.4551C54.748 46.3144 54.8002 46.1941 54.9046 46.0939C55.0111 45.9938 55.1379 45.9437 55.2849 45.9437C55.432 45.9437 55.5577 45.9938 55.6621 46.0939C55.7686 46.1941 55.8219 46.3144 55.8219 46.4551C55.8219 46.5957 55.7686 46.7161 55.6621 46.8162C55.5577 46.9164 55.432 46.9664 55.2849 46.9664ZM59.0954 52.796C58.6224 52.796 58.2144 52.6916 57.8713 52.4828C57.5304 52.2718 57.2673 51.9778 57.0819 51.6007C56.8987 51.2214 56.807 50.7803 56.807 50.2775C56.807 49.7747 56.8987 49.3315 57.0819 48.948C57.2673 48.5623 57.5251 48.2619 57.8553 48.0467C58.1877 47.8293 58.5755 47.7207 59.0187 47.7207C59.2744 47.7207 59.5269 47.7633 59.7761 47.8485C60.0254 47.9338 60.2524 48.0722 60.4569 48.264C60.6614 48.4536 60.8244 48.7051 60.9459 49.0183C61.0673 49.3315 61.1281 49.7171 61.1281 50.1752V50.4948H57.344V49.8428H60.361C60.361 49.5659 60.3056 49.3187 60.1948 49.1014C60.0862 48.884 59.9306 48.7125 59.7282 48.5868C59.5279 48.4611 59.2914 48.3982 59.0187 48.3982C58.7183 48.3982 58.4583 48.4728 58.2389 48.622C58.0215 48.769 57.8543 48.9607 57.7371 49.1972C57.6199 49.4338 57.5613 49.6873 57.5613 49.9579V50.3926C57.5613 50.7633 57.6252 51.0776 57.7531 51.3354C57.883 51.5911 58.0631 51.786 58.2932 51.9203C58.5233 52.0524 58.7907 52.1184 59.0954 52.1184C59.2936 52.1184 59.4725 52.0907 59.6323 52.0353C59.7943 51.9778 59.9338 51.8926 60.051 51.7796C60.1682 51.6646 60.2587 51.5218 60.3227 51.3514L61.0514 51.5559C60.9747 51.8031 60.8458 52.0204 60.6646 52.2079C60.4835 52.3933 60.2598 52.5382 59.9935 52.6426C59.7271 52.7448 59.4278 52.796 59.0954 52.796ZM63.3877 52.6937L61.8919 47.7846H62.6845L63.7456 51.5431H63.7967L64.845 47.7846H65.6504L66.686 51.5303H66.7371L67.7982 47.7846H68.5908L67.095 52.6937H66.3536L65.2797 48.9224H65.203L64.1291 52.6937H63.3877ZM73.0652 48.884L72.3877 49.0758C72.345 48.9629 72.2822 48.8531 72.1991 48.7466C72.1181 48.6379 72.0073 48.5485 71.8667 48.4781C71.7261 48.4078 71.546 48.3727 71.3266 48.3727C71.0261 48.3727 70.7758 48.4419 70.5755 48.5804C70.3774 48.7168 70.2783 48.8904 70.2783 49.1014C70.2783 49.2889 70.3465 49.4369 70.4828 49.5456C70.6192 49.6543 70.8323 49.7448 71.122 49.8173L71.8507 49.9963C72.2896 50.1028 72.6167 50.2658 72.8319 50.4852C73.0471 50.7026 73.1547 50.9828 73.1547 51.3258C73.1547 51.607 73.0737 51.8585 72.9118 52.0801C72.752 52.3016 72.5283 52.4764 72.2406 52.6042C71.953 52.732 71.6185 52.796 71.2371 52.796C70.7364 52.796 70.322 52.6873 69.9938 52.47C69.6657 52.2526 69.458 51.9352 69.3706 51.5176L70.0865 51.3386C70.1547 51.6028 70.2836 51.8009 70.4732 51.933C70.665 52.0651 70.9154 52.1312 71.2243 52.1312C71.5759 52.1312 71.855 52.0566 72.0617 51.9075C72.2705 51.7562 72.3749 51.5751 72.3749 51.3641C72.3749 51.1937 72.3152 51.0509 72.1959 50.9359C72.0766 50.8187 71.8933 50.7313 71.6462 50.6738L70.828 50.482C70.3784 50.3755 70.0482 50.2104 69.8372 49.9867C69.6284 49.7608 69.524 49.4785 69.524 49.1397C69.524 48.8627 69.6018 48.6177 69.7573 48.4046C69.915 48.1916 70.1291 48.0243 70.3997 47.9029C70.6725 47.7814 70.9814 47.7207 71.3266 47.7207C71.8124 47.7207 72.1938 47.8272 72.4708 48.0403C72.7499 48.2534 72.948 48.5346 73.0652 48.884Z" fill="black"/>
<path id="ReviewsChange" d="M322.054 51.5943V47.2732H322.914V51.5943H322.054ZM320.325 49.862V49.0055H324.646V49.862H320.325ZM328.302 52.7832C327.863 52.7832 327.471 52.7075 327.126 52.5563C326.783 52.405 326.511 52.1951 326.311 51.9266C326.113 51.6561 326.006 51.3428 325.991 50.987H326.995C327.008 51.1809 327.073 51.3492 327.19 51.492C327.309 51.6326 327.465 51.7413 327.657 51.818C327.848 51.8947 328.061 51.933 328.296 51.933C328.554 51.933 328.782 51.8883 328.98 51.7988C329.18 51.7093 329.337 51.5847 329.449 51.4249C329.562 51.2629 329.619 51.0765 329.619 50.8656C329.619 50.6461 329.562 50.4533 329.449 50.2871C329.339 50.1188 329.176 49.9867 328.96 49.8908C328.747 49.7949 328.49 49.747 328.187 49.747H327.634V48.9416H328.187C328.43 48.9416 328.643 48.8979 328.826 48.8105C329.012 48.7232 329.157 48.6017 329.261 48.4462C329.365 48.2885 329.418 48.1042 329.418 47.8933C329.418 47.6909 329.372 47.5151 329.28 47.3659C329.191 47.2146 329.063 47.0964 328.897 47.0112C328.733 46.9259 328.539 46.8833 328.315 46.8833C328.102 46.8833 327.903 46.9227 327.717 47.0016C327.534 47.0783 327.385 47.1891 327.27 47.334C327.155 47.4767 327.093 47.6482 327.084 47.8485H326.129C326.139 47.4948 326.244 47.1838 326.442 46.9153C326.642 46.6468 326.907 46.4369 327.235 46.2857C327.563 46.1344 327.927 46.0588 328.328 46.0588C328.747 46.0588 329.11 46.1408 329.414 46.3048C329.721 46.4668 329.958 46.683 330.124 46.9536C330.292 47.2242 330.375 47.5204 330.373 47.8421C330.375 48.2086 330.273 48.5197 330.066 48.7754C329.862 49.0311 329.589 49.2026 329.248 49.2899V49.3411C329.683 49.4071 330.019 49.5797 330.258 49.8588C330.499 50.1379 330.618 50.4842 330.616 50.8975C330.618 51.2576 330.518 51.5804 330.316 51.8659C330.115 52.1514 329.842 52.3762 329.494 52.5403C329.147 52.7022 328.75 52.7832 328.302 52.7832ZM331.824 52.6937V51.9778L334.039 49.683C334.275 49.4338 334.47 49.2154 334.624 49.0279C334.779 48.8382 334.896 48.6582 334.972 48.4877C335.049 48.3173 335.087 48.1362 335.087 47.9444C335.087 47.7271 335.036 47.5396 334.934 47.3819C334.832 47.2221 334.692 47.0996 334.515 47.0144C334.338 46.927 334.139 46.8833 333.918 46.8833C333.683 46.8833 333.479 46.9313 333.304 47.0271C333.129 47.123 332.995 47.2583 332.901 47.433C332.807 47.6078 332.761 47.8123 332.761 48.0467H331.818C331.818 47.6482 331.909 47.2999 332.093 47.0016C332.276 46.7033 332.527 46.4721 332.847 46.308C333.166 46.1418 333.53 46.0588 333.937 46.0588C334.348 46.0588 334.71 46.1408 335.023 46.3048C335.339 46.4668 335.585 46.6884 335.762 46.9696C335.938 47.2487 336.027 47.5641 336.027 47.9156C336.027 48.1585 335.981 48.3961 335.889 48.6284C335.8 48.8606 335.643 49.1195 335.42 49.405C335.196 49.6884 334.885 50.0325 334.486 50.4373L333.186 51.7988V51.8467H336.132V52.6937H331.824ZM337.986 52.7544C337.811 52.7544 337.661 52.6926 337.535 52.5691C337.41 52.4433 337.347 52.2921 337.347 52.1152C337.347 51.9405 337.41 51.7914 337.535 51.6678C337.661 51.5421 337.811 51.4792 337.986 51.4792C338.161 51.4792 338.311 51.5421 338.437 51.6678C338.562 51.7914 338.625 51.9405 338.625 52.1152C338.625 52.2324 338.595 52.34 338.536 52.438C338.478 52.5339 338.402 52.6106 338.306 52.6681C338.21 52.7257 338.103 52.7544 337.986 52.7544ZM339.755 51.4153V50.6163L342.584 46.1482H343.213V47.3244H342.814L340.791 50.5268V50.5779H344.667V51.4153H339.755ZM342.858 52.6937V51.1724L342.865 50.808V46.1482H343.801V52.6937H342.858ZM349.198 51.4664V51.1213C349.198 50.8741 349.249 50.6482 349.351 50.4437C349.456 50.237 349.607 50.0719 349.805 49.9483C350.005 49.8226 350.247 49.7597 350.53 49.7597C350.82 49.7597 351.063 49.8215 351.259 49.9451C351.455 50.0687 351.603 50.2338 351.703 50.4405C351.806 50.6472 351.857 50.8741 351.857 51.1213V51.4664C351.857 51.7136 351.806 51.9405 351.703 52.1472C351.601 52.3517 351.451 52.5168 351.253 52.6426C351.057 52.7661 350.816 52.8279 350.53 52.8279C350.243 52.8279 350 52.7661 349.802 52.6426C349.604 52.5168 349.453 52.3517 349.351 52.1472C349.249 51.9405 349.198 51.7136 349.198 51.4664ZM349.942 51.1213V51.4664C349.942 51.6497 349.986 51.8159 350.073 51.965C350.161 52.1141 350.313 52.1887 350.53 52.1887C350.746 52.1887 350.896 52.1141 350.981 51.965C351.066 51.8159 351.109 51.6497 351.109 51.4664V51.1213C351.109 50.938 351.067 50.7718 350.984 50.6227C350.903 50.4735 350.752 50.399 350.53 50.399C350.317 50.399 350.166 50.4735 350.077 50.6227C349.987 50.7718 349.942 50.938 349.942 51.1213ZM345.906 47.7207V47.3755C345.906 47.1284 345.957 46.9014 346.059 46.6948C346.164 46.4881 346.315 46.323 346.513 46.1994C346.713 46.0758 346.955 46.014 347.239 46.014C347.528 46.014 347.771 46.0758 347.967 46.1994C348.163 46.323 348.311 46.4881 348.411 46.6948C348.512 46.9014 348.562 47.1284 348.562 47.3755V47.7207C348.562 47.9678 348.511 48.1948 348.408 48.4014C348.308 48.606 348.159 48.7711 347.961 48.8968C347.765 49.0204 347.524 49.0822 347.239 49.0822C346.949 49.0822 346.705 49.0204 346.507 48.8968C346.311 48.7711 346.161 48.606 346.059 48.4014C345.957 48.1948 345.906 47.9678 345.906 47.7207ZM346.654 47.3755V47.7207C346.654 47.9039 346.696 48.0701 346.782 48.2193C346.869 48.3684 347.021 48.443 347.239 48.443C347.452 48.443 347.601 48.3684 347.686 48.2193C347.773 48.0701 347.817 47.9039 347.817 47.7207V47.3755C347.817 47.1923 347.775 47.0261 347.692 46.8769C347.609 46.7278 347.458 46.6532 347.239 46.6532C347.025 46.6532 346.874 46.7278 346.785 46.8769C346.697 47.0261 346.654 47.1923 346.654 47.3755ZM346.209 52.6937L350.709 46.1482H351.473L346.973 52.6937H346.209Z" fill="#28CB7D"/>
<path id="ReviewsNumberOld" d="M348.564 87.7381C348.142 87.7381 347.766 87.6657 347.436 87.5208C347.108 87.3759 346.847 87.1746 346.653 86.9168C346.461 86.6568 346.357 86.3553 346.34 86.0123H347.145C347.162 86.2232 347.235 86.4054 347.362 86.5588C347.49 86.7101 347.658 86.8273 347.864 86.9104C348.071 86.9935 348.3 87.035 348.551 87.035C348.833 87.035 349.082 86.986 349.299 86.888C349.517 86.79 349.687 86.6536 349.811 86.4789C349.934 86.3042 349.996 86.1018 349.996 85.8717C349.996 85.6309 349.936 85.4189 349.817 85.2357C349.698 85.0503 349.523 84.9054 349.293 84.801C349.063 84.6966 348.782 84.6444 348.449 84.6444H347.925V83.9413H348.449C348.709 83.9413 348.937 83.8944 349.133 83.8006C349.331 83.7069 349.486 83.5748 349.597 83.4043C349.709 83.2339 349.766 83.0336 349.766 82.8035C349.766 82.5819 349.717 82.3891 349.619 82.225C349.521 82.0609 349.382 81.9331 349.203 81.8415C349.027 81.7499 348.818 81.704 348.577 81.704C348.351 81.704 348.138 81.7456 347.938 81.8287C347.74 81.9097 347.578 82.0279 347.452 82.1835C347.326 82.3369 347.258 82.5222 347.247 82.7396H346.48C346.493 82.3965 346.597 82.0961 346.79 81.8383C346.984 81.5783 347.238 81.3759 347.551 81.231C347.866 81.0862 348.213 81.0137 348.59 81.0137C348.995 81.0137 349.342 81.0957 349.632 81.2598C349.921 81.4217 350.144 81.6359 350.3 81.9022C350.455 82.1685 350.533 82.4562 350.533 82.7651C350.533 83.1337 350.436 83.448 350.242 83.708C350.05 83.9679 349.789 84.1479 349.459 84.2481V84.2992C349.872 84.3674 350.195 84.5432 350.427 84.8266C350.66 85.1078 350.776 85.4562 350.776 85.8717C350.776 86.2275 350.679 86.5471 350.485 86.8305C350.293 87.1117 350.031 87.3333 349.699 87.4952C349.366 87.6572 348.988 87.7381 348.564 87.7381ZM354.256 87.7381C353.988 87.7339 353.719 87.6827 353.451 87.5847C353.182 87.4867 352.937 87.3216 352.716 87.0893C352.494 86.855 352.316 86.5386 352.182 86.1401C352.048 85.7396 351.981 85.2367 351.981 84.6316C351.981 84.0521 352.035 83.5386 352.144 83.0911C352.252 82.6415 352.41 82.2634 352.617 81.9565C352.823 81.6476 353.073 81.4132 353.365 81.2534C353.659 81.0936 353.99 81.0137 354.359 81.0137C354.725 81.0137 355.051 81.0872 355.337 81.2342C355.624 81.3791 355.859 81.5815 356.04 81.8415C356.221 82.1014 356.338 82.4008 356.391 82.7396H355.611C355.539 82.4455 355.398 82.2016 355.19 82.0077C354.981 81.8138 354.704 81.7168 354.359 81.7168C353.851 81.7168 353.452 81.9374 353.16 82.3784C352.87 82.8195 352.724 83.4384 352.722 84.2353H352.773C352.893 84.0542 353.034 83.8997 353.198 83.7719C353.365 83.6419 353.548 83.5418 353.748 83.4714C353.948 83.4011 354.16 83.366 354.384 83.366C354.759 83.366 355.102 83.4597 355.413 83.6472C355.724 83.8326 355.974 84.0893 356.161 84.4175C356.349 84.7435 356.442 85.1174 356.442 85.5393C356.442 85.9441 356.352 86.3148 356.171 86.6515C355.99 86.986 355.735 87.2523 355.407 87.4505C355.081 87.6465 354.697 87.7424 354.256 87.7381ZM354.256 87.035C354.525 87.035 354.766 86.9679 354.979 86.8337C355.194 86.6994 355.363 86.5194 355.487 86.2935C355.612 86.0677 355.675 85.8163 355.675 85.5393C355.675 85.2687 355.615 85.0226 355.493 84.801C355.374 84.5773 355.209 84.3994 354.998 84.2673C354.789 84.1352 354.55 84.0691 354.282 84.0691C354.079 84.0691 353.891 84.1096 353.716 84.1906C353.541 84.2694 353.388 84.3781 353.256 84.5165C353.126 84.655 353.024 84.8138 352.949 84.9928C352.875 85.1696 352.837 85.356 352.837 85.5521C352.837 85.812 352.898 86.0549 353.019 86.2808C353.143 86.5066 353.311 86.6888 353.524 86.8273C353.74 86.9658 353.984 87.035 354.256 87.035ZM359.873 87.7381C359.604 87.7339 359.336 87.6827 359.067 87.5847C358.799 87.4867 358.554 87.3216 358.332 87.0893C358.11 86.855 357.933 86.5386 357.798 86.1401C357.664 85.7396 357.597 85.2367 357.597 84.6316C357.597 84.0521 357.651 83.5386 357.76 83.0911C357.869 82.6415 358.026 82.2634 358.233 81.9565C358.44 81.6476 358.689 81.4132 358.981 81.2534C359.275 81.0936 359.606 81.0137 359.975 81.0137C360.341 81.0137 360.667 81.0872 360.953 81.2342C361.24 81.3791 361.475 81.5815 361.656 81.8415C361.837 82.1014 361.954 82.4008 362.007 82.7396H361.228C361.155 82.4455 361.015 82.2016 360.806 82.0077C360.597 81.8138 360.32 81.7168 359.975 81.7168C359.468 81.7168 359.068 81.9374 358.776 82.3784C358.487 82.8195 358.341 83.4384 358.338 84.2353H358.39C358.509 84.0542 358.651 83.8997 358.815 83.7719C358.981 83.6419 359.164 83.5418 359.364 83.4714C359.565 83.4011 359.777 83.366 360 83.366C360.375 83.366 360.718 83.4597 361.029 83.6472C361.341 83.8326 361.59 84.0893 361.777 84.4175C361.965 84.7435 362.059 85.1174 362.059 85.5393C362.059 85.9441 361.968 86.3148 361.787 86.6515C361.606 86.986 361.351 87.2523 361.023 87.4505C360.697 87.6465 360.314 87.7424 359.873 87.7381ZM359.873 87.035C360.141 87.035 360.382 86.9679 360.595 86.8337C360.81 86.6994 360.979 86.5194 361.103 86.2935C361.229 86.0677 361.292 85.8163 361.292 85.5393C361.292 85.2687 361.231 85.0226 361.109 84.801C360.99 84.5773 360.825 84.3994 360.614 84.2673C360.405 84.1352 360.167 84.0691 359.898 84.0691C359.696 84.0691 359.507 84.1096 359.332 84.1906C359.158 84.2694 359.004 84.3781 358.872 84.5165C358.742 84.655 358.64 84.8138 358.565 84.9928C358.491 85.1696 358.453 85.356 358.453 85.5521C358.453 85.812 358.514 86.0549 358.636 86.2808C358.759 86.5066 358.928 86.6888 359.141 86.8273C359.356 86.9658 359.6 87.035 359.873 87.035Z" fill="#9D9D9D"/>
<path id="ReviewsDiagramOld" d="M99.5125 297.117L160.617 250.802L212.119 200.117L273.223 245.559L322.979 235.072L376.227 194.874" stroke="#D6D6D6" stroke-width="0.5"/>
<path id="ReviewsDiagramNew" d="M65.4688 297.117L123.954 241.189L173.71 228.955L215.61 279.64L263.621 207.108H316.869L375.354 152.054" stroke="#499FDD"/>
</g>
</g>
<defs>
<clipPath id="clip0_14_3">
<rect width="419" height="388" fill="white"/>
</clipPath>
</defs>
</svg>
