<svg width="419" height="388" viewBox="0 0 419 388" fill="none" xmlns="http://www.w3.org/2000/svg">
<g id="Card2" clip-path="url(#clip0_14_18)">
<g id="TenantsTab">
<rect id="TenantsRectangle" width="419" height="388" rx="10" fill="white"/>
<path id="JanuaryText" d="M60.1778 309.513H60.7943V313.152C60.7943 313.477 60.7347 313.753 60.6153 313.98C60.496 314.207 60.3278 314.379 60.1107 314.497C59.8936 314.614 59.6376 314.673 59.3426 314.673C59.0642 314.673 58.8164 314.623 58.5994 314.522C58.3823 314.419 58.2116 314.273 58.0873 314.084C57.963 313.895 57.9008 313.671 57.9008 313.41H58.5074C58.5074 313.555 58.543 313.681 58.6143 313.788C58.6872 313.894 58.7866 313.977 58.9126 314.037C59.0385 314.097 59.1819 314.126 59.3426 314.126C59.5199 314.126 59.6707 314.089 59.795 314.015C59.9193 313.94 60.0138 313.831 60.0784 313.686C60.1447 313.541 60.1778 313.362 60.1778 313.152V309.513ZM63.0738 314.693C62.8318 314.693 62.6123 314.648 62.4151 314.556C62.2178 314.464 62.0612 314.33 61.9452 314.156C61.8292 313.981 61.7712 313.768 61.7712 313.52C61.7712 313.301 61.8143 313.124 61.9005 312.988C61.9867 312.85 62.1018 312.743 62.246 312.665C62.3902 312.587 62.5493 312.529 62.7233 312.491C62.899 312.451 63.0754 312.419 63.2528 312.396C63.4848 312.366 63.6729 312.344 63.817 312.329C63.9629 312.313 64.0689 312.285 64.1352 312.247C64.2032 312.209 64.2371 312.143 64.2371 312.048V312.028C64.2371 311.783 64.17 311.593 64.0358 311.457C63.9032 311.321 63.7019 311.253 63.4317 311.253C63.1517 311.253 62.9321 311.314 62.773 311.437C62.6139 311.559 62.5021 311.69 62.4374 311.829L61.8806 311.631C61.98 311.399 62.1126 311.218 62.2783 311.089C62.4457 310.958 62.628 310.867 62.8252 310.815C63.0241 310.762 63.2196 310.736 63.4119 310.736C63.5345 310.736 63.6754 310.751 63.8344 310.78C63.9952 310.809 64.1501 310.867 64.2993 310.957C64.4501 311.046 64.5752 311.182 64.6746 311.362C64.7741 311.543 64.8238 311.785 64.8238 312.088V314.604H64.2371V314.087H64.2073C64.1675 314.169 64.1013 314.258 64.0084 314.353C63.9156 314.447 63.7922 314.527 63.6381 314.594C63.4839 314.66 63.2959 314.693 63.0738 314.693ZM63.1633 314.166C63.3953 314.166 63.5908 314.121 63.7499 314.029C63.9107 313.938 64.0316 313.821 64.1129 313.676C64.1957 313.532 64.2371 313.381 64.2371 313.222V312.685C64.2123 312.714 64.1576 312.742 64.0731 312.767C63.9902 312.79 63.8941 312.811 63.7847 312.829C63.677 312.845 63.5718 312.86 63.469 312.874C63.3679 312.885 63.2859 312.895 63.2229 312.903C63.0705 312.923 62.928 312.956 62.7954 313C62.6645 313.043 62.5584 313.109 62.4772 313.197C62.3977 313.283 62.3579 313.401 62.3579 313.55C62.3579 313.753 62.4333 313.908 62.5841 314.012C62.7365 314.115 62.9296 314.166 63.1633 314.166ZM66.4812 312.307V314.604H65.8945V310.785H66.4613V311.382H66.511C66.6005 311.188 66.7364 311.032 66.9187 310.915C67.101 310.795 67.3363 310.736 67.6247 310.736C67.8832 310.736 68.1094 310.789 68.3033 310.895C68.4972 310.999 68.648 311.158 68.7557 311.372C68.8634 311.584 68.9173 311.853 68.9173 312.178V314.604H68.3306V312.217C68.3306 311.917 68.2527 311.684 68.097 311.516C67.9412 311.347 67.7274 311.263 67.4556 311.263C67.2684 311.263 67.101 311.303 66.9535 311.385C66.8077 311.466 66.6925 311.584 66.608 311.74C66.5235 311.896 66.4812 312.085 66.4812 312.307ZM72.3955 313.043V310.785H72.9822V314.604H72.3955V313.957H72.3557C72.2663 314.151 72.1271 314.316 71.9381 314.452C71.7492 314.586 71.5106 314.653 71.2222 314.653C70.9836 314.653 70.7715 314.601 70.5859 314.497C70.4003 314.391 70.2544 314.232 70.1484 314.019C70.0423 313.806 69.9893 313.536 69.9893 313.212V310.785H70.5759V313.172C70.5759 313.45 70.6538 313.672 70.8096 313.838C70.967 314.004 71.1675 314.087 71.4111 314.087C71.557 314.087 71.7053 314.049 71.8561 313.975C72.0086 313.9 72.1362 313.786 72.2389 313.632C72.3433 313.478 72.3955 313.281 72.3955 313.043ZM75.1802 314.693C74.9383 314.693 74.7187 314.648 74.5215 314.556C74.3243 314.464 74.1677 314.33 74.0517 314.156C73.9357 313.981 73.8777 313.768 73.8777 313.52C73.8777 313.301 73.9208 313.124 74.0069 312.988C74.0931 312.85 74.2083 312.743 74.3525 312.665C74.4966 312.587 74.6557 312.529 74.8297 312.491C75.0054 312.451 75.1819 312.419 75.3592 312.396C75.5912 312.366 75.7793 312.344 75.9235 312.329C76.0693 312.313 76.1754 312.285 76.2417 312.247C76.3096 312.209 76.3436 312.143 76.3436 312.048V312.028C76.3436 311.783 76.2765 311.593 76.1422 311.457C76.0097 311.321 75.8083 311.253 75.5382 311.253C75.2581 311.253 75.0385 311.314 74.8795 311.437C74.7204 311.559 74.6085 311.69 74.5439 311.829L73.9871 311.631C74.0865 311.399 74.2191 311.218 74.3848 311.089C74.5522 310.958 74.7344 310.867 74.9317 310.815C75.1305 310.762 75.3261 310.736 75.5183 310.736C75.6409 310.736 75.7818 310.751 75.9409 310.78C76.1016 310.809 76.2566 310.867 76.4057 310.957C76.5565 311.046 76.6817 311.182 76.7811 311.362C76.8805 311.543 76.9302 311.785 76.9302 312.088V314.604H76.3436V314.087H76.3138C76.274 314.169 76.2077 314.258 76.1149 314.353C76.0221 314.447 75.8986 314.527 75.7445 314.594C75.5904 314.66 75.4023 314.693 75.1802 314.693ZM75.2697 314.166C75.5017 314.166 75.6973 314.121 75.8564 314.029C76.0171 313.938 76.1381 313.821 76.2193 313.676C76.3022 313.532 76.3436 313.381 76.3436 313.222V312.685C76.3187 312.714 76.264 312.742 76.1795 312.767C76.0967 312.79 76.0005 312.811 75.8912 312.829C75.7835 312.845 75.6782 312.86 75.5755 312.874C75.4744 312.885 75.3924 312.895 75.3294 312.903C75.1769 312.923 75.0344 312.956 74.9018 313C74.7709 313.043 74.6648 313.109 74.5836 313.197C74.5041 313.283 74.4643 313.401 74.4643 313.55C74.4643 313.753 74.5397 313.908 74.6905 314.012C74.843 314.115 75.0361 314.166 75.2697 314.166ZM78.001 314.604V310.785H78.5678V311.362H78.6075C78.6771 311.173 78.8031 311.02 78.9854 310.902C79.1677 310.785 79.3731 310.726 79.6018 310.726C79.6449 310.726 79.6988 310.727 79.7634 310.728C79.828 310.73 79.8769 310.732 79.9101 310.736V311.332C79.8902 311.327 79.8446 311.32 79.7734 311.31C79.7038 311.298 79.63 311.293 79.5521 311.293C79.3665 311.293 79.2008 311.332 79.055 311.409C78.9108 311.486 78.7964 311.592 78.7119 311.728C78.6291 311.862 78.5876 312.015 78.5876 312.187V314.604H78.001ZM81.0995 316.035C81.0001 316.035 80.9114 316.027 80.8336 316.011C80.7557 315.996 80.7018 315.981 80.672 315.966L80.8211 315.449C80.9636 315.485 81.0896 315.499 81.199 315.489C81.3083 315.479 81.4053 315.43 81.4898 315.342C81.576 315.256 81.6547 315.116 81.726 314.922L81.8353 314.624L80.4234 310.785H81.0598L82.1137 313.828H82.1535L83.2075 310.785H83.8439L82.2231 315.16C82.1502 315.358 82.0599 315.521 81.9522 315.65C81.8444 315.781 81.7193 315.878 81.5768 315.941C81.4359 316.004 81.2769 316.035 81.0995 316.035Z" fill="#9D9D9D"/>
<path id="FebruaryText" d="M121.079 314.604V309.513H124.132V310.06H121.695V311.78H123.903V312.327H121.695V314.604H121.079ZM126.428 314.683C126.061 314.683 125.743 314.602 125.476 314.44C125.211 314.276 125.007 314.047 124.862 313.753C124.72 313.459 124.649 313.115 124.649 312.724C124.649 312.333 124.72 311.989 124.862 311.69C125.007 311.39 125.207 311.157 125.464 310.989C125.722 310.82 126.024 310.736 126.369 310.736C126.568 310.736 126.764 310.769 126.958 310.835C127.152 310.901 127.328 311.009 127.487 311.158C127.646 311.306 127.773 311.501 127.868 311.745C127.962 311.989 128.009 312.289 128.009 312.645V312.893H125.066V312.386H127.413C127.413 312.171 127.37 311.979 127.284 311.81C127.199 311.641 127.078 311.507 126.921 311.409C126.765 311.312 126.581 311.263 126.369 311.263C126.135 311.263 125.933 311.321 125.762 311.437C125.593 311.551 125.463 311.7 125.372 311.884C125.281 312.068 125.235 312.265 125.235 312.476V312.814C125.235 313.102 125.285 313.347 125.384 313.547C125.485 313.746 125.625 313.898 125.804 314.002C125.983 314.105 126.191 314.156 126.428 314.156C126.583 314.156 126.722 314.135 126.846 314.092C126.972 314.047 127.081 313.981 127.172 313.893C127.263 313.803 127.333 313.692 127.383 313.56L127.95 313.719C127.89 313.911 127.79 314.08 127.649 314.226C127.508 314.37 127.334 314.483 127.127 314.564C126.92 314.643 126.687 314.683 126.428 314.683ZM128.981 314.604V309.513H129.568V311.392H129.618C129.661 311.326 129.72 311.241 129.797 311.138C129.875 311.034 129.986 310.941 130.13 310.86C130.276 310.777 130.473 310.736 130.721 310.736C131.043 310.736 131.326 310.816 131.572 310.977C131.817 311.138 132.008 311.365 132.146 311.66C132.283 311.955 132.352 312.303 132.352 312.704C132.352 313.109 132.283 313.459 132.146 313.756C132.008 314.051 131.818 314.28 131.574 314.442C131.33 314.603 131.05 314.683 130.731 314.683C130.486 314.683 130.29 314.643 130.142 314.561C129.995 314.479 129.881 314.385 129.802 314.28C129.722 314.174 129.661 314.087 129.618 314.017H129.548V314.604H128.981ZM129.558 312.695C129.558 312.983 129.6 313.237 129.685 313.458C129.769 313.676 129.893 313.848 130.055 313.972C130.218 314.095 130.416 314.156 130.652 314.156C130.897 314.156 131.102 314.092 131.266 313.962C131.431 313.831 131.556 313.656 131.639 313.435C131.723 313.213 131.765 312.966 131.765 312.695C131.765 312.426 131.724 312.184 131.641 311.969C131.56 311.752 131.436 311.58 131.271 311.454C131.107 311.327 130.9 311.263 130.652 311.263C130.413 311.263 130.213 311.323 130.05 311.444C129.888 311.564 129.765 311.731 129.682 311.946C129.599 312.16 129.558 312.41 129.558 312.695ZM133.249 314.604V310.785H133.816V311.362H133.856C133.926 311.173 134.052 311.02 134.234 310.902C134.416 310.785 134.622 310.726 134.85 310.726C134.893 310.726 134.947 310.727 135.012 310.728C135.076 310.73 135.125 310.732 135.159 310.736V311.332C135.139 311.327 135.093 311.32 135.022 311.31C134.952 311.298 134.878 311.293 134.801 311.293C134.615 311.293 134.449 311.332 134.303 311.409C134.159 311.486 134.045 311.592 133.96 311.728C133.878 311.862 133.836 312.015 133.836 312.187V314.604H133.249ZM138.26 313.043V310.785H138.847V314.604H138.26V313.957H138.22C138.131 314.151 137.992 314.316 137.803 314.452C137.614 314.586 137.375 314.653 137.087 314.653C136.848 314.653 136.636 314.601 136.451 314.497C136.265 314.391 136.119 314.232 136.013 314.019C135.907 313.806 135.854 313.536 135.854 313.212V310.785H136.441V313.172C136.441 313.45 136.518 313.672 136.674 313.838C136.832 314.004 137.032 314.087 137.276 314.087C137.422 314.087 137.57 314.049 137.721 313.975C137.873 313.9 138.001 313.786 138.104 313.632C138.208 313.478 138.26 313.281 138.26 313.043ZM141.045 314.693C140.803 314.693 140.583 314.648 140.386 314.556C140.189 314.464 140.032 314.33 139.916 314.156C139.8 313.981 139.742 313.768 139.742 313.52C139.742 313.301 139.785 313.124 139.872 312.988C139.958 312.85 140.073 312.743 140.217 312.665C140.361 312.587 140.52 312.529 140.694 312.491C140.87 312.451 141.047 312.419 141.224 312.396C141.456 312.366 141.644 312.344 141.788 312.329C141.934 312.313 142.04 312.285 142.106 312.247C142.174 312.209 142.208 312.143 142.208 312.048V312.028C142.208 311.783 142.141 311.593 142.007 311.457C141.874 311.321 141.673 311.253 141.403 311.253C141.123 311.253 140.903 311.314 140.744 311.437C140.585 311.559 140.473 311.69 140.409 311.829L139.852 311.631C139.951 311.399 140.084 311.218 140.249 311.089C140.417 310.958 140.599 310.867 140.796 310.815C140.995 310.762 141.191 310.736 141.383 310.736C141.506 310.736 141.646 310.751 141.806 310.78C141.966 310.809 142.121 310.867 142.27 310.957C142.421 311.046 142.546 311.182 142.646 311.362C142.745 311.543 142.795 311.785 142.795 312.088V314.604H142.208V314.087H142.178C142.139 314.169 142.072 314.258 141.98 314.353C141.887 314.447 141.763 314.527 141.609 314.594C141.455 314.66 141.267 314.693 141.045 314.693ZM141.134 314.166C141.366 314.166 141.562 314.121 141.721 314.029C141.882 313.938 142.003 313.821 142.084 313.676C142.167 313.532 142.208 313.381 142.208 313.222V312.685C142.183 312.714 142.129 312.742 142.044 312.767C141.961 312.79 141.865 312.811 141.756 312.829C141.648 312.845 141.543 312.86 141.44 312.874C141.339 312.885 141.257 312.895 141.194 312.903C141.042 312.923 140.899 312.956 140.766 313C140.636 313.043 140.529 313.109 140.448 313.197C140.369 313.283 140.329 313.401 140.329 313.55C140.329 313.753 140.404 313.908 140.555 314.012C140.708 314.115 140.901 314.166 141.134 314.166ZM143.866 314.604V310.785H144.432V311.362H144.472C144.542 311.173 144.668 311.02 144.85 310.902C145.032 310.785 145.238 310.726 145.466 310.726C145.51 310.726 145.563 310.727 145.628 310.728C145.693 310.73 145.742 310.732 145.775 310.736V311.332C145.755 311.327 145.709 311.32 145.638 311.31C145.568 311.298 145.495 311.293 145.417 311.293C145.231 311.293 145.065 311.332 144.92 311.409C144.775 311.486 144.661 311.592 144.577 311.728C144.494 311.862 144.452 312.015 144.452 312.187V314.604H143.866ZM146.964 316.035C146.865 316.035 146.776 316.027 146.698 316.011C146.62 315.996 146.566 315.981 146.537 315.966L146.686 315.449C146.828 315.485 146.954 315.499 147.064 315.489C147.173 315.479 147.27 315.43 147.354 315.342C147.441 315.256 147.519 315.116 147.591 314.922L147.7 314.624L146.288 310.785H146.924L147.978 313.828H148.018L149.072 310.785H149.709L148.088 315.16C148.015 315.358 147.925 315.521 147.817 315.65C147.709 315.781 147.584 315.878 147.441 315.941C147.301 316.004 147.142 316.035 146.964 316.035Z" fill="#9D9D9D"/>
<path id="MatchText" d="M192.658 309.513H193.394L195.124 313.739H195.184L196.914 309.513H197.65V314.604H197.073V310.736H197.023L195.432 314.604H194.875L193.285 310.736H193.235V314.604H192.658V309.513ZM199.93 314.693C199.688 314.693 199.468 314.648 199.271 314.556C199.074 314.464 198.917 314.33 198.801 314.156C198.685 313.981 198.627 313.768 198.627 313.52C198.627 313.301 198.67 313.124 198.756 312.988C198.843 312.85 198.958 312.743 199.102 312.665C199.246 312.587 199.405 312.529 199.579 312.491C199.755 312.451 199.931 312.419 200.109 312.396C200.341 312.366 200.529 312.344 200.673 312.329C200.819 312.313 200.925 312.285 200.991 312.247C201.059 312.209 201.093 312.143 201.093 312.048V312.028C201.093 311.783 201.026 311.593 200.892 311.457C200.759 311.321 200.558 311.253 200.288 311.253C200.008 311.253 199.788 311.314 199.629 311.437C199.47 311.559 199.358 311.69 199.293 311.829L198.737 311.631C198.836 311.399 198.969 311.218 199.134 311.089C199.302 310.958 199.484 310.867 199.681 310.815C199.88 310.762 200.076 310.736 200.268 310.736C200.39 310.736 200.531 310.751 200.69 310.78C200.851 310.809 201.006 310.867 201.155 310.957C201.306 311.046 201.431 311.182 201.531 311.362C201.63 311.543 201.68 311.785 201.68 312.088V314.604H201.093V314.087H201.063C201.023 314.169 200.957 314.258 200.864 314.353C200.772 314.447 200.648 314.527 200.494 314.594C200.34 314.66 200.152 314.693 199.93 314.693ZM200.019 314.166C200.251 314.166 200.447 314.121 200.606 314.029C200.767 313.938 200.888 313.821 200.969 313.676C201.052 313.532 201.093 313.381 201.093 313.222V312.685C201.068 312.714 201.014 312.742 200.929 312.767C200.846 312.79 200.75 312.811 200.641 312.829C200.533 312.845 200.428 312.86 200.325 312.874C200.224 312.885 200.142 312.895 200.079 312.903C199.926 312.923 199.784 312.956 199.651 313C199.52 313.043 199.414 313.109 199.333 313.197C199.254 313.283 199.214 313.401 199.214 313.55C199.214 313.753 199.289 313.908 199.44 314.012C199.592 314.115 199.786 314.166 200.019 314.166ZM202.75 314.604V310.785H203.317V311.362H203.357C203.427 311.173 203.553 311.02 203.735 310.902C203.917 310.785 204.123 310.726 204.351 310.726C204.394 310.726 204.448 310.727 204.513 310.728C204.578 310.73 204.626 310.732 204.66 310.736V311.332C204.64 311.327 204.594 311.32 204.523 311.31C204.453 311.298 204.38 311.293 204.302 311.293C204.116 311.293 203.95 311.332 203.804 311.409C203.66 311.486 203.546 311.592 203.461 311.728C203.379 311.862 203.337 312.015 203.337 312.187V314.604H202.75ZM206.79 314.683C206.432 314.683 206.124 314.599 205.865 314.43C205.607 314.261 205.408 314.028 205.269 313.731C205.129 313.434 205.06 313.096 205.06 312.714C205.06 312.327 205.131 311.984 205.274 311.688C205.418 311.39 205.618 311.157 205.875 310.989C206.134 310.82 206.435 310.736 206.78 310.736C207.048 310.736 207.29 310.785 207.506 310.885C207.721 310.984 207.898 311.124 208.035 311.303C208.173 311.481 208.258 311.69 208.291 311.929H207.705C207.66 311.755 207.56 311.601 207.406 311.467C207.254 311.331 207.048 311.263 206.79 311.263C206.561 311.263 206.361 311.322 206.188 311.442C206.018 311.559 205.884 311.726 205.788 311.941C205.694 312.155 205.646 312.406 205.646 312.695C205.646 312.99 205.693 313.246 205.786 313.465C205.88 313.684 206.013 313.854 206.183 313.975C206.356 314.096 206.558 314.156 206.79 314.156C206.942 314.156 207.081 314.13 207.205 314.077C207.329 314.024 207.435 313.947 207.521 313.848C207.607 313.749 207.668 313.629 207.705 313.49H208.291C208.258 313.715 208.176 313.918 208.045 314.099C207.916 314.278 207.744 314.421 207.531 314.527C207.319 314.631 207.072 314.683 206.79 314.683ZM209.736 312.307V314.604H209.149V309.513H209.736V311.382H209.785C209.875 311.185 210.009 311.028 210.188 310.912C210.369 310.795 210.609 310.736 210.909 310.736C211.169 310.736 211.397 310.788 211.592 310.892C211.788 310.995 211.94 311.153 212.047 311.367C212.157 311.579 212.211 311.849 212.211 312.178V314.604H211.625V312.217C211.625 311.914 211.546 311.68 211.389 311.514C211.233 311.346 211.017 311.263 210.74 311.263C210.548 311.263 210.375 311.303 210.223 311.385C210.072 311.466 209.953 311.584 209.865 311.74C209.779 311.896 209.736 312.085 209.736 312.307Z" fill="#9D9D9D"/>
<path id="AprilText" d="M262.7 314.604H262.054L263.923 309.513H264.56L266.429 314.604H265.783L264.261 310.318H264.222L262.7 314.604ZM262.939 312.615H265.544V313.162H262.939V312.615ZM267.142 316.035V310.785H267.709V311.392H267.779C267.822 311.326 267.882 311.241 267.958 311.138C268.036 311.034 268.147 310.941 268.291 310.86C268.437 310.777 268.634 310.736 268.882 310.736C269.204 310.736 269.487 310.816 269.733 310.977C269.978 311.138 270.169 311.365 270.307 311.66C270.444 311.955 270.513 312.303 270.513 312.704C270.513 313.109 270.444 313.459 270.307 313.756C270.169 314.051 269.979 314.28 269.735 314.442C269.491 314.603 269.211 314.683 268.892 314.683C268.647 314.683 268.451 314.643 268.303 314.561C268.156 314.479 268.042 314.385 267.963 314.28C267.883 314.174 267.822 314.087 267.779 314.017H267.729V316.035H267.142ZM267.719 312.695C267.719 312.983 267.761 313.237 267.846 313.458C267.93 313.676 268.054 313.848 268.216 313.972C268.379 314.095 268.578 314.156 268.813 314.156C269.058 314.156 269.263 314.092 269.427 313.962C269.593 313.831 269.717 313.656 269.8 313.435C269.884 313.213 269.926 312.966 269.926 312.695C269.926 312.426 269.885 312.184 269.802 311.969C269.721 311.752 269.598 311.58 269.432 311.454C269.268 311.327 269.061 311.263 268.813 311.263C268.574 311.263 268.374 311.323 268.211 311.444C268.049 311.564 267.926 311.731 267.843 311.946C267.761 312.16 267.719 312.41 267.719 312.695ZM271.408 314.604V310.785H271.975V311.362H272.015C272.084 311.173 272.21 311.02 272.392 310.902C272.575 310.785 272.78 310.726 273.009 310.726C273.052 310.726 273.106 310.727 273.17 310.728C273.235 310.73 273.284 310.732 273.317 310.736V311.332C273.297 311.327 273.252 311.32 273.18 311.31C273.111 311.298 273.037 311.293 272.959 311.293C272.774 311.293 272.608 311.332 272.462 311.409C272.318 311.486 272.203 311.592 272.119 311.728C272.036 311.862 271.995 312.015 271.995 312.187V314.604H271.408ZM274.013 314.604V310.785H274.599V314.604H274.013ZM274.311 310.149C274.196 310.149 274.098 310.11 274.015 310.032C273.934 309.954 273.893 309.861 273.893 309.751C273.893 309.642 273.934 309.548 274.015 309.47C274.098 309.393 274.196 309.354 274.311 309.354C274.425 309.354 274.523 309.393 274.604 309.47C274.687 309.548 274.728 309.642 274.728 309.751C274.728 309.861 274.687 309.954 274.604 310.032C274.523 310.11 274.425 310.149 274.311 310.149ZM276.26 309.513V314.604H275.674V309.513H276.26Z" fill="#9D9D9D"/>
<path id="MayText" d="M328.833 311.26H329.569L331.299 315.486H331.359L333.089 311.26H333.825V316.351H333.248V312.483H333.198L331.607 316.351H331.05L329.46 312.483H329.41V316.351H328.833V311.26ZM336.105 316.441C335.863 316.441 335.643 316.395 335.446 316.304C335.249 316.211 335.092 316.078 334.976 315.904C334.86 315.728 334.802 315.516 334.802 315.268C334.802 315.049 334.845 314.871 334.931 314.736C335.018 314.598 335.133 314.49 335.277 314.412C335.421 314.335 335.58 314.277 335.754 314.238C335.93 314.199 336.106 314.167 336.284 314.144C336.516 314.114 336.704 314.092 336.848 314.077C336.994 314.06 337.1 314.033 337.166 313.995C337.234 313.957 337.268 313.89 337.268 313.796V313.776C337.268 313.531 337.201 313.34 337.067 313.204C336.934 313.068 336.733 313 336.463 313C336.183 313 335.963 313.062 335.804 313.184C335.645 313.307 335.533 313.438 335.468 313.577L334.912 313.378C335.011 313.146 335.144 312.966 335.309 312.836C335.477 312.705 335.659 312.614 335.856 312.563C336.055 312.51 336.251 312.483 336.443 312.483C336.565 312.483 336.706 312.498 336.865 312.528C337.026 312.556 337.181 312.615 337.33 312.705C337.481 312.794 337.606 312.929 337.706 313.11C337.805 313.29 337.855 313.532 337.855 313.836V316.351H337.268V315.834H337.238C337.198 315.917 337.132 316.006 337.039 316.1C336.947 316.195 336.823 316.275 336.669 316.341C336.515 316.408 336.327 316.441 336.105 316.441ZM336.194 315.914C336.426 315.914 336.622 315.868 336.781 315.777C336.942 315.686 337.063 315.568 337.144 315.424C337.227 315.28 337.268 315.128 337.268 314.969V314.432C337.243 314.462 337.189 314.489 337.104 314.514C337.021 314.538 336.925 314.558 336.816 314.576C336.708 314.593 336.603 314.608 336.5 314.621C336.399 314.633 336.317 314.643 336.254 314.651C336.101 314.671 335.959 314.703 335.826 314.748C335.695 314.791 335.589 314.857 335.508 314.944C335.429 315.031 335.389 315.148 335.389 315.297C335.389 315.501 335.464 315.655 335.615 315.76C335.767 315.862 335.961 315.914 336.194 315.914ZM339.167 317.783C339.067 317.783 338.978 317.775 338.901 317.758C338.823 317.743 338.769 317.728 338.739 317.714L338.888 317.196C339.031 317.233 339.157 317.246 339.266 317.236C339.375 317.226 339.472 317.177 339.557 317.09C339.643 317.003 339.722 316.863 339.793 316.67L339.902 316.371L338.49 312.533H339.127L340.181 315.576H340.221L341.275 312.533H341.911L340.29 316.908C340.217 317.105 340.127 317.269 340.019 317.398C339.911 317.529 339.786 317.626 339.644 317.689C339.503 317.752 339.344 317.783 339.167 317.783Z" fill="#9D9D9D"/>
<path id="TenantsUpdated" d="M42.3657 344.468H42.9822V347.838C42.9822 348.186 42.9002 348.497 42.7361 348.771C42.5737 349.042 42.3442 349.257 42.0475 349.414C41.7509 349.57 41.4029 349.648 41.0035 349.648C40.6041 349.648 40.2561 349.57 39.9595 349.414C39.6628 349.257 39.4325 349.042 39.2684 348.771C39.106 348.497 39.0248 348.186 39.0248 347.838V344.468H39.6413V347.789C39.6413 348.037 39.696 348.259 39.8054 348.452C39.9147 348.645 40.0705 348.796 40.2727 348.907C40.4765 349.017 40.7201 349.071 41.0035 349.071C41.2869 349.071 41.5305 349.017 41.7343 348.907C41.9382 348.796 42.0939 348.645 42.2017 348.452C42.311 348.259 42.3657 348.037 42.3657 347.789V344.468ZM44.1337 350.99V345.74H44.7005V346.347H44.7701C44.8132 346.281 44.8729 346.196 44.9491 346.093C45.027 345.989 45.138 345.896 45.2822 345.815C45.428 345.732 45.6252 345.691 45.8738 345.691C46.1953 345.691 46.4787 345.771 46.7239 345.932C46.9692 346.093 47.1606 346.32 47.2982 346.615C47.4357 346.91 47.5045 347.258 47.5045 347.659C47.5045 348.064 47.4357 348.414 47.2982 348.711C47.1606 349.006 46.97 349.235 46.7264 349.397C46.4828 349.558 46.2019 349.638 45.8837 349.638C45.6385 349.638 45.4421 349.598 45.2946 349.516C45.1471 349.433 45.0336 349.34 44.9541 349.235C44.8745 349.129 44.8132 349.042 44.7701 348.972H44.7204V350.99H44.1337ZM44.7105 347.65C44.7105 347.938 44.7527 348.192 44.8372 348.413C44.9217 348.631 45.0452 348.803 45.2076 348.927C45.37 349.05 45.5689 349.111 45.8042 349.111C46.0495 349.111 46.2541 349.047 46.4182 348.917C46.5839 348.786 46.7082 348.611 46.7911 348.39C46.8756 348.168 46.9178 347.921 46.9178 347.65C46.9178 347.381 46.8764 347.139 46.7936 346.924C46.7123 346.707 46.5889 346.535 46.4232 346.409C46.2591 346.281 46.0528 346.218 45.8042 346.218C45.5656 346.218 45.365 346.278 45.2026 346.399C45.0402 346.518 44.9176 346.686 44.8347 346.901C44.7519 347.115 44.7105 347.364 44.7105 347.65ZM49.8411 349.638C49.523 349.638 49.2421 349.558 48.9985 349.397C48.7548 349.235 48.5643 349.006 48.4267 348.711C48.2892 348.414 48.2204 348.064 48.2204 347.659C48.2204 347.258 48.2892 346.91 48.4267 346.615C48.5643 346.32 48.7557 346.093 49.0009 345.932C49.2462 345.771 49.5296 345.691 49.8511 345.691C50.0997 345.691 50.296 345.732 50.4402 345.815C50.586 345.896 50.6971 345.989 50.7733 346.093C50.8512 346.196 50.9117 346.281 50.9548 346.347H51.0045V344.468H51.5911V349.559H51.0244V348.972H50.9548C50.9117 349.042 50.8504 349.129 50.7708 349.235C50.6913 349.34 50.5778 349.433 50.4303 349.516C50.2828 349.598 50.0864 349.638 49.8411 349.638ZM49.9207 349.111C50.156 349.111 50.3549 349.05 50.5173 348.927C50.6797 348.803 50.8031 348.631 50.8877 348.413C50.9722 348.192 51.0144 347.938 51.0144 347.65C51.0144 347.364 50.973 347.115 50.8901 346.901C50.8073 346.686 50.6846 346.518 50.5222 346.399C50.3598 346.278 50.1593 346.218 49.9207 346.218C49.6721 346.218 49.465 346.281 49.2992 346.409C49.1352 346.535 49.0117 346.707 48.9288 346.924C48.8476 347.139 48.807 347.381 48.807 347.65C48.807 347.921 48.8485 348.168 48.9313 348.39C49.0159 348.611 49.1401 348.786 49.3042 348.917C49.4699 349.047 49.6754 349.111 49.9207 349.111ZM53.8706 349.648C53.6287 349.648 53.4091 349.603 53.2119 349.511C53.0147 349.419 52.8581 349.285 52.7421 349.111C52.6261 348.935 52.5681 348.723 52.5681 348.475C52.5681 348.256 52.6111 348.079 52.6973 347.943C52.7835 347.805 52.8987 347.698 53.0428 347.62C53.187 347.542 53.3461 347.484 53.5201 347.446C53.6958 347.406 53.8723 347.374 54.0496 347.351C54.2816 347.321 54.4697 347.299 54.6139 347.284C54.7597 347.268 54.8658 347.24 54.932 347.202C55 347.164 55.034 347.098 55.034 347.003V346.983C55.034 346.738 54.9668 346.547 54.8326 346.412C54.7 346.276 54.4987 346.208 54.2286 346.208C53.9485 346.208 53.7289 346.269 53.5698 346.392C53.4107 346.514 53.2989 346.645 53.2342 346.784L52.6774 346.586C52.7769 346.354 52.9094 346.173 53.0752 346.044C53.2425 345.913 53.4248 345.822 53.622 345.77C53.8209 345.717 54.0164 345.691 54.2087 345.691C54.3313 345.691 54.4722 345.706 54.6313 345.735C54.792 345.764 54.947 345.822 55.0961 345.912C55.2469 346.001 55.372 346.136 55.4715 346.317C55.5709 346.498 55.6206 346.74 55.6206 347.043V349.559H55.034V349.042H55.0041C54.9644 349.124 54.8981 349.213 54.8053 349.308C54.7125 349.402 54.589 349.482 54.4349 349.549C54.2808 349.615 54.0927 349.648 53.8706 349.648ZM53.9601 349.121C54.1921 349.121 54.3877 349.076 54.5467 348.984C54.7075 348.893 54.8285 348.776 54.9097 348.631C54.9925 348.487 55.034 348.336 55.034 348.176V347.64C55.0091 347.669 54.9544 347.697 54.8699 347.722C54.787 347.745 54.6909 347.766 54.5815 347.784C54.4738 347.8 54.3686 347.815 54.2659 347.828C54.1648 347.84 54.0827 347.85 54.0198 347.858C53.8673 347.878 53.7248 347.911 53.5922 347.955C53.4613 347.998 53.3552 348.064 53.274 348.152C53.1945 348.238 53.1547 348.355 53.1547 348.505C53.1547 348.708 53.2301 348.863 53.3809 348.967C53.5334 349.07 53.7264 349.121 53.9601 349.121ZM58.3519 345.74V346.238H56.3732V345.74H58.3519ZM56.9499 344.826H57.5365V348.465C57.5365 348.631 57.5606 348.755 57.6086 348.838C57.6583 348.919 57.7213 348.974 57.7975 349.002C57.8754 349.028 57.9575 349.042 58.0436 349.042C58.1083 349.042 58.1613 349.038 58.2027 349.032C58.2442 349.023 58.2773 349.017 58.3022 349.012L58.4215 349.539C58.3817 349.554 58.3262 349.569 58.2549 349.583C58.1837 349.6 58.0934 349.608 57.984 349.608C57.8183 349.608 57.6559 349.573 57.4968 349.501C57.3393 349.43 57.2084 349.322 57.104 349.176C57.0013 349.03 56.9499 348.846 56.9499 348.624V344.826ZM60.7942 349.638C60.4263 349.638 60.1089 349.557 59.8421 349.395C59.577 349.23 59.3723 349.002 59.2281 348.708C59.0856 348.413 59.0143 348.07 59.0143 347.679C59.0143 347.288 59.0856 346.944 59.2281 346.645C59.3723 346.345 59.5728 346.112 59.8297 345.944C60.0882 345.775 60.3898 345.691 60.7345 345.691C60.9334 345.691 61.1298 345.724 61.3236 345.79C61.5175 345.856 61.694 345.964 61.8531 346.113C62.0122 346.261 62.139 346.456 62.2334 346.7C62.3279 346.944 62.3751 347.243 62.3751 347.6V347.848H59.432V347.341H61.7785C61.7785 347.126 61.7355 346.934 61.6493 346.765C61.5648 346.596 61.4438 346.462 61.2864 346.364C61.1306 346.267 60.9466 346.218 60.7345 346.218C60.5008 346.218 60.2987 346.276 60.128 346.392C59.9589 346.506 59.8289 346.655 59.7377 346.839C59.6466 347.023 59.601 347.22 59.601 347.431V347.769C59.601 348.057 59.6507 348.302 59.7501 348.502C59.8512 348.701 59.9913 348.853 60.1702 348.957C60.3492 349.06 60.5572 349.111 60.7942 349.111C60.9483 349.111 61.0875 349.09 61.2118 349.047C61.3377 349.002 61.4463 348.935 61.5374 348.848C61.6286 348.758 61.699 348.647 61.7487 348.515L62.3155 348.674C62.2558 348.866 62.1556 349.035 62.0147 349.181C61.8738 349.325 61.6998 349.438 61.4927 349.519C61.2855 349.598 61.0527 349.638 60.7942 349.638ZM64.7093 349.638C64.3911 349.638 64.1102 349.558 63.8666 349.397C63.623 349.235 63.4324 349.006 63.2949 348.711C63.1573 348.414 63.0886 348.064 63.0886 347.659C63.0886 347.258 63.1573 346.91 63.2949 346.615C63.4324 346.32 63.6238 346.093 63.8691 345.932C64.1144 345.771 64.3977 345.691 64.7192 345.691C64.9678 345.691 65.1642 345.732 65.3084 345.815C65.4542 345.896 65.5652 345.989 65.6415 346.093C65.7194 346.196 65.7798 346.281 65.8229 346.347H65.8727V344.468H66.4593V349.559H65.8925V348.972H65.8229C65.7798 349.042 65.7185 349.129 65.639 349.235C65.5594 349.34 65.4459 349.433 65.2984 349.516C65.1509 349.598 64.9546 349.638 64.7093 349.638ZM64.7888 349.111C65.0242 349.111 65.223 349.05 65.3854 348.927C65.5478 348.803 65.6713 348.631 65.7558 348.413C65.8403 348.192 65.8826 347.938 65.8826 347.65C65.8826 347.364 65.8412 347.115 65.7583 346.901C65.6754 346.686 65.5528 346.518 65.3904 346.399C65.228 346.278 65.0275 346.218 64.7888 346.218C64.5403 346.218 64.3331 346.281 64.1674 346.409C64.0033 346.535 63.8799 346.707 63.797 346.924C63.7158 347.139 63.6752 347.381 63.6752 347.65C63.6752 347.921 63.7166 348.168 63.7995 348.39C63.884 348.611 64.0083 348.786 64.1724 348.917C64.3381 349.047 64.5436 349.111 64.7888 349.111ZM71.2445 345.74V346.238H69.2658V345.74H71.2445ZM69.8425 344.826H70.4291V348.465C70.4291 348.631 70.4531 348.755 70.5012 348.838C70.5509 348.919 70.6139 348.974 70.6901 349.002C70.768 349.028 70.85 349.042 70.9362 349.042C71.0008 349.042 71.0539 349.038 71.0953 349.032C71.1367 349.023 71.1699 349.017 71.1947 349.012L71.3141 349.539C71.2743 349.554 71.2188 349.569 71.1475 349.583C71.0763 349.6 70.9859 349.608 70.8766 349.608C70.7108 349.608 70.5484 349.573 70.3893 349.501C70.2319 349.43 70.101 349.322 69.9966 349.176C69.8938 349.03 69.8425 348.846 69.8425 348.624V344.826ZM73.637 349.638C73.2923 349.638 72.9899 349.556 72.7297 349.392C72.4712 349.228 72.269 348.998 72.1232 348.703C71.979 348.408 71.9069 348.064 71.9069 347.669C71.9069 347.272 71.979 346.924 72.1232 346.628C72.269 346.331 72.4712 346.101 72.7297 345.937C72.9899 345.773 73.2923 345.691 73.637 345.691C73.9817 345.691 74.2833 345.773 74.5419 345.937C74.802 346.101 75.0042 346.331 75.1484 346.628C75.2942 346.924 75.3671 347.272 75.3671 347.669C75.3671 348.064 75.2942 348.408 75.1484 348.703C75.0042 348.998 74.802 349.228 74.5419 349.392C74.2833 349.556 73.9817 349.638 73.637 349.638ZM73.637 349.111C73.8989 349.111 74.1143 349.044 74.2833 348.91C74.4524 348.776 74.5775 348.599 74.6587 348.38C74.7399 348.162 74.7805 347.925 74.7805 347.669C74.7805 347.414 74.7399 347.176 74.6587 346.956C74.5775 346.736 74.4524 346.557 74.2833 346.422C74.1143 346.286 73.8989 346.218 73.637 346.218C73.3752 346.218 73.1598 346.286 72.9907 346.422C72.8217 346.557 72.6966 346.736 72.6154 346.956C72.5342 347.176 72.4936 347.414 72.4936 347.669C72.4936 347.925 72.5342 348.162 72.6154 348.38C72.6966 348.599 72.8217 348.776 72.9907 348.91C73.1598 349.044 73.3752 349.111 73.637 349.111ZM77.7044 349.638C77.3862 349.638 77.1053 349.558 76.8617 349.397C76.6181 349.235 76.4275 349.006 76.29 348.711C76.1525 348.414 76.0837 348.064 76.0837 347.659C76.0837 347.258 76.1525 346.91 76.29 346.615C76.4275 346.32 76.619 346.093 76.8642 345.932C77.1095 345.771 77.3929 345.691 77.7144 345.691C77.9629 345.691 78.1593 345.732 78.3035 345.815C78.4493 345.896 78.5604 345.989 78.6366 346.093C78.7145 346.196 78.775 346.281 78.8181 346.347H78.8678V344.468H79.4544V349.559H78.8877V348.972H78.8181C78.775 349.042 78.7136 349.129 78.6341 349.235C78.5546 349.34 78.441 349.433 78.2936 349.516C78.1461 349.598 77.9497 349.638 77.7044 349.638ZM77.784 349.111C78.0193 349.111 78.2181 349.05 78.3806 348.927C78.543 348.803 78.6664 348.631 78.7509 348.413C78.8355 348.192 78.8777 347.938 78.8777 347.65C78.8777 347.364 78.8363 347.115 78.7534 346.901C78.6706 346.686 78.5479 346.518 78.3855 346.399C78.2231 346.278 78.0226 346.218 77.784 346.218C77.5354 346.218 77.3282 346.281 77.1625 346.409C76.9985 346.535 76.875 346.707 76.7921 346.924C76.7109 347.139 76.6703 347.381 76.6703 347.65C76.6703 347.921 76.7118 348.168 76.7946 348.39C76.8791 348.611 77.0034 348.786 77.1675 348.917C77.3332 349.047 77.5387 349.111 77.784 349.111ZM81.7339 349.648C81.4919 349.648 81.2724 349.603 81.0752 349.511C80.8779 349.419 80.7213 349.285 80.6053 349.111C80.4893 348.935 80.4313 348.723 80.4313 348.475C80.4313 348.256 80.4744 348.079 80.5606 347.943C80.6468 347.805 80.7619 347.698 80.9061 347.62C81.0503 347.542 81.2094 347.484 81.3834 347.446C81.5591 347.406 81.7355 347.374 81.9129 347.351C82.1449 347.321 82.333 347.299 82.4771 347.284C82.623 347.268 82.729 347.24 82.7953 347.202C82.8633 347.164 82.8972 347.098 82.8972 347.003V346.983C82.8972 346.738 82.8301 346.547 82.6959 346.412C82.5633 346.276 82.362 346.208 82.0918 346.208C81.8118 346.208 81.5922 346.269 81.4331 346.392C81.274 346.514 81.1622 346.645 81.0975 346.784L80.5407 346.586C80.6401 346.354 80.7727 346.173 80.9384 346.044C81.1058 345.913 81.2881 345.822 81.4853 345.77C81.6842 345.717 81.8797 345.691 82.072 345.691C82.1946 345.691 82.3355 345.706 82.4945 345.735C82.6553 345.764 82.8102 345.822 82.9594 345.912C83.1102 346.001 83.2353 346.136 83.3347 346.317C83.4342 346.498 83.4839 346.74 83.4839 347.043V349.559H82.8972V349.042H82.8674C82.8276 349.124 82.7614 349.213 82.6686 349.308C82.5757 349.402 82.4523 349.482 82.2982 349.549C82.144 349.615 81.956 349.648 81.7339 349.648ZM81.8234 349.121C82.0554 349.121 82.2509 349.076 82.41 348.984C82.5708 348.893 82.6918 348.776 82.773 348.631C82.8558 348.487 82.8972 348.336 82.8972 348.176V347.64C82.8724 347.669 82.8177 347.697 82.7332 347.722C82.6503 347.745 82.5542 347.766 82.4448 347.784C82.3371 347.8 82.2319 347.815 82.1291 347.828C82.028 347.84 81.946 347.85 81.883 347.858C81.7306 347.878 81.5881 347.911 81.4555 347.955C81.3246 347.998 81.2185 348.064 81.1373 348.152C81.0578 348.238 81.018 348.355 81.018 348.505C81.018 348.708 81.0934 348.863 81.2442 348.967C81.3967 349.07 81.5897 349.121 81.8234 349.121ZM84.7958 350.99C84.6963 350.99 84.6077 350.982 84.5298 350.966C84.4519 350.951 84.398 350.936 84.3682 350.921L84.5174 350.404C84.6599 350.44 84.7858 350.453 84.8952 350.444C85.0046 350.434 85.1015 350.385 85.186 350.297C85.2722 350.211 85.3509 350.071 85.4222 349.877L85.5316 349.578L84.1196 345.74H84.756L85.81 348.783H85.8497L86.9037 345.74H87.5401L85.9193 350.115C85.8464 350.313 85.7561 350.476 85.6484 350.605C85.5407 350.736 85.4156 350.833 85.273 350.896C85.1322 350.959 84.9731 350.99 84.7958 350.99ZM91.4067 349.648C91.1648 349.648 90.9452 349.603 90.748 349.511C90.5508 349.419 90.3942 349.285 90.2782 349.111C90.1622 348.935 90.1042 348.723 90.1042 348.475C90.1042 348.256 90.1473 348.079 90.2334 347.943C90.3196 347.805 90.4348 347.698 90.579 347.62C90.7231 347.542 90.8822 347.484 91.0562 347.446C91.2319 347.406 91.4084 347.374 91.5857 347.351C91.8177 347.321 92.0058 347.299 92.15 347.284C92.2958 347.268 92.4019 347.24 92.4682 347.202C92.5361 347.164 92.5701 347.098 92.5701 347.003V346.983C92.5701 346.738 92.503 346.547 92.3687 346.412C92.2362 346.276 92.0348 346.208 91.7647 346.208C91.4846 346.208 91.2651 346.269 91.106 346.392C90.9469 346.514 90.835 346.645 90.7704 346.784L90.2136 346.586C90.313 346.354 90.4456 346.173 90.6113 346.044C90.7787 345.913 90.961 345.822 91.1582 345.77C91.357 345.717 91.5526 345.691 91.7448 345.691C91.8674 345.691 92.0083 345.706 92.1674 345.735C92.3281 345.764 92.4831 345.822 92.6322 345.912C92.783 346.001 92.9082 346.136 93.0076 346.317C93.107 346.498 93.1567 346.74 93.1567 347.043V349.559H92.5701V349.042H92.5403C92.5005 349.124 92.4342 349.213 92.3414 349.308C92.2486 349.402 92.1251 349.482 91.971 349.549C91.8169 349.615 91.6288 349.648 91.4067 349.648ZM91.4962 349.121C91.7282 349.121 91.9238 349.076 92.0829 348.984C92.2436 348.893 92.3646 348.776 92.4458 348.631C92.5287 348.487 92.5701 348.336 92.5701 348.176V347.64C92.5452 347.669 92.4905 347.697 92.406 347.722C92.3232 347.745 92.2271 347.766 92.1177 347.784C92.01 347.8 91.9047 347.815 91.802 347.828C91.7009 347.84 91.6189 347.85 91.5559 347.858C91.4034 347.878 91.2609 347.911 91.1283 347.955C90.9974 347.998 90.8914 348.064 90.8102 348.152C90.7306 348.238 90.6908 348.355 90.6908 348.505C90.6908 348.708 90.7662 348.863 90.917 348.967C91.0695 349.07 91.2626 349.121 91.4962 349.121ZM95.888 345.74V346.238H93.9093V345.74H95.888ZM94.486 344.826H95.0727V348.465C95.0727 348.631 95.0967 348.755 95.1448 348.838C95.1945 348.919 95.2574 348.974 95.3337 349.002C95.4116 349.028 95.4936 349.042 95.5798 349.042C95.6444 349.042 95.6974 349.038 95.7389 349.032C95.7803 349.023 95.8134 349.017 95.8383 349.012L95.9576 349.539C95.9178 349.554 95.8623 349.569 95.7911 349.583C95.7198 349.6 95.6295 349.608 95.5201 349.608C95.3544 349.608 95.192 349.573 95.0329 349.501C94.8755 349.43 94.7445 349.322 94.6401 349.176C94.5374 349.03 94.486 348.846 94.486 348.624V344.826ZM102.359 349.628C101.984 349.628 101.665 349.526 101.402 349.322C101.138 349.117 100.937 348.819 100.797 348.43C100.658 348.039 100.589 347.567 100.589 347.013C100.589 346.463 100.658 345.993 100.797 345.604C100.938 345.213 101.14 344.914 101.404 344.709C101.669 344.502 101.987 344.398 102.359 344.398C102.73 344.398 103.047 344.502 103.311 344.709C103.576 344.914 103.778 345.213 103.917 345.604C104.058 345.993 104.128 346.463 104.128 347.013C104.128 347.567 104.059 348.039 103.92 348.43C103.78 348.819 103.579 349.117 103.316 349.322C103.052 349.526 102.733 349.628 102.359 349.628ZM102.359 349.081C102.73 349.081 103.018 348.902 103.224 348.544C103.429 348.186 103.532 347.676 103.532 347.013C103.532 346.572 103.485 346.197 103.39 345.887C103.297 345.577 103.163 345.341 102.987 345.179C102.813 345.016 102.604 344.935 102.359 344.935C101.991 344.935 101.703 345.116 101.496 345.479C101.289 345.841 101.185 346.352 101.185 347.013C101.185 347.454 101.232 347.828 101.324 348.137C101.417 348.445 101.551 348.679 101.725 348.84C101.9 349.001 102.112 349.081 102.359 349.081ZM105.095 349.559L107.372 345.054V345.015H104.747V344.468H108.009V345.044L105.742 349.559H105.095ZM109.134 348.907C109.011 348.907 108.906 348.863 108.818 348.776C108.73 348.688 108.686 348.583 108.686 348.46C108.686 348.337 108.73 348.232 108.818 348.144C108.906 348.056 109.011 348.012 109.134 348.012C109.256 348.012 109.361 348.056 109.449 348.144C109.537 348.232 109.581 348.337 109.581 348.46C109.581 348.541 109.56 348.616 109.519 348.684C109.479 348.752 109.425 348.806 109.357 348.848C109.291 348.887 109.216 348.907 109.134 348.907ZM109.134 346.332C109.011 346.332 108.906 346.288 108.818 346.2C108.73 346.112 108.686 346.007 108.686 345.885C108.686 345.762 108.73 345.657 108.818 345.569C108.906 345.481 109.011 345.437 109.134 345.437C109.256 345.437 109.361 345.481 109.449 345.569C109.537 345.657 109.581 345.762 109.581 345.885C109.581 345.966 109.56 346.04 109.519 346.108C109.479 346.176 109.425 346.231 109.357 346.272C109.291 346.312 109.216 346.332 109.134 346.332ZM112.344 349.628C112.016 349.628 111.723 349.572 111.466 349.459C111.211 349.346 111.008 349.19 110.857 348.989C110.708 348.787 110.627 348.553 110.614 348.286H111.24C111.254 348.45 111.31 348.592 111.409 348.711C111.509 348.829 111.639 348.92 111.8 348.984C111.96 349.049 112.138 349.081 112.334 349.081C112.553 349.081 112.747 349.043 112.916 348.967C113.085 348.891 113.217 348.785 113.313 348.649C113.41 348.513 113.458 348.355 113.458 348.176C113.458 347.989 113.411 347.824 113.318 347.682C113.226 347.538 113.09 347.425 112.911 347.344C112.732 347.263 112.513 347.222 112.254 347.222H111.847V346.675H112.254C112.457 346.675 112.634 346.639 112.786 346.566C112.941 346.493 113.061 346.39 113.147 346.257C113.235 346.125 113.279 345.969 113.279 345.79C113.279 345.618 113.241 345.468 113.164 345.34C113.088 345.213 112.98 345.113 112.841 345.042C112.704 344.971 112.541 344.935 112.354 344.935C112.178 344.935 112.013 344.967 111.857 345.032C111.703 345.095 111.577 345.187 111.479 345.308C111.381 345.427 111.328 345.571 111.32 345.74H110.723C110.733 345.474 110.814 345.24 110.964 345.039C111.115 344.837 111.312 344.68 111.556 344.567C111.801 344.454 112.071 344.398 112.364 344.398C112.679 344.398 112.949 344.462 113.174 344.589C113.4 344.715 113.573 344.882 113.694 345.089C113.815 345.296 113.875 345.52 113.875 345.76C113.875 346.047 113.8 346.291 113.649 346.494C113.5 346.696 113.297 346.836 113.04 346.914V346.953C113.361 347.007 113.613 347.143 113.793 347.364C113.974 347.582 114.064 347.853 114.064 348.176C114.064 348.453 113.989 348.702 113.838 348.922C113.689 349.141 113.485 349.313 113.226 349.439C112.968 349.565 112.674 349.628 112.344 349.628ZM116.741 349.628C116.367 349.628 116.048 349.526 115.784 349.322C115.521 349.117 115.319 348.819 115.18 348.43C115.041 348.039 114.971 347.567 114.971 347.013C114.971 346.463 115.041 345.993 115.18 345.604C115.321 345.213 115.523 344.914 115.787 344.709C116.052 344.502 116.37 344.398 116.741 344.398C117.113 344.398 117.43 344.502 117.693 344.709C117.959 344.914 118.161 345.213 118.3 345.604C118.441 345.993 118.511 346.463 118.511 347.013C118.511 347.567 118.442 348.039 118.302 348.43C118.163 348.819 117.962 349.117 117.698 349.322C117.435 349.526 117.116 349.628 116.741 349.628ZM116.741 349.081C117.113 349.081 117.401 348.902 117.606 348.544C117.812 348.186 117.915 347.676 117.915 347.013C117.915 346.572 117.867 346.197 117.773 345.887C117.68 345.577 117.546 345.341 117.37 345.179C117.196 345.016 116.987 344.935 116.741 344.935C116.373 344.935 116.086 345.116 115.879 345.479C115.672 345.841 115.568 346.352 115.568 347.013C115.568 347.454 115.614 347.828 115.707 348.137C115.8 348.445 115.933 348.679 116.107 348.84C116.283 349.001 116.494 349.081 116.741 349.081Z" fill="#9D9D9D"/>
<line id="TenantsUnderline" x1="38.4083" y1="296.867" x2="380.592" y2="296.867" stroke="#D9D9D9" stroke-width="0.5"/>
<path id="TenantsTabTopNumber" d="M38.9353 131.09V130.643L40.6157 128.803C40.8129 128.588 40.9753 128.4 41.1029 128.241C41.2305 128.081 41.325 127.93 41.3863 127.789C41.4493 127.646 41.4808 127.497 41.4808 127.342C41.4808 127.163 41.4377 127.008 41.3515 126.877C41.267 126.746 41.151 126.645 41.0035 126.573C40.856 126.502 40.6903 126.467 40.5064 126.467C40.3108 126.467 40.1401 126.507 39.9943 126.588C39.8501 126.668 39.7382 126.78 39.6587 126.924C39.5808 127.068 39.5419 127.237 39.5419 127.431H38.9552C38.9552 127.133 39.024 126.871 39.1615 126.645C39.2991 126.42 39.4863 126.244 39.7233 126.118C39.962 125.993 40.2296 125.93 40.5262 125.93C40.8245 125.93 41.0889 125.993 41.3192 126.118C41.5496 126.244 41.7302 126.414 41.8611 126.628C41.992 126.842 42.0575 127.08 42.0575 127.342C42.0575 127.529 42.0235 127.712 41.9556 127.891C41.8893 128.068 41.7733 128.266 41.6076 128.485C41.4435 128.702 41.2156 128.967 40.924 129.28L39.7805 130.503V130.543H42.147V131.09H38.9353ZM44.7645 131.16C44.4729 131.16 44.2102 131.102 43.9765 130.986C43.7429 130.87 43.5556 130.711 43.4147 130.508C43.2739 130.306 43.1968 130.076 43.1836 129.817H43.7801C43.8033 130.048 43.9077 130.238 44.0934 130.389C44.2806 130.538 44.5043 130.613 44.7645 130.613C44.9733 130.613 45.1589 130.564 45.3213 130.466C45.4854 130.368 45.6138 130.234 45.7066 130.063C45.8011 129.891 45.8483 129.696 45.8483 129.479C45.8483 129.257 45.7994 129.059 45.7017 128.885C45.6055 128.71 45.473 128.571 45.3039 128.47C45.1349 128.369 44.9418 128.318 44.7247 128.316C44.569 128.314 44.4091 128.338 44.245 128.388C44.0809 128.436 43.9459 128.498 43.8398 128.574L43.2631 128.505L43.5713 125.999H46.2162V126.546H44.0884L43.9094 128.047H43.9392C44.0436 127.965 44.1746 127.896 44.332 127.841C44.4894 127.786 44.6535 127.759 44.8242 127.759C45.1357 127.759 45.4133 127.834 45.6569 127.983C45.9022 128.13 46.0944 128.333 46.2336 128.589C46.3745 128.846 46.4449 129.14 46.4449 129.469C46.4449 129.794 46.372 130.084 46.2262 130.339C46.082 130.593 45.8831 130.793 45.6296 130.941C45.376 131.087 45.0877 131.16 44.7645 131.16Z" fill="#9D9D9D"/>
<path id="TenantsTabBottomNumber" d="M40.5958 277.97C40.2213 277.97 39.9023 277.869 39.6388 277.665C39.3753 277.459 39.174 277.162 39.0348 276.772C38.8956 276.381 38.826 275.909 38.826 275.355C38.826 274.805 38.8956 274.335 39.0348 273.946C39.1756 273.555 39.3778 273.257 39.6413 273.051C39.9064 272.844 40.2246 272.74 40.5958 272.74C40.9671 272.74 41.2844 272.844 41.5479 273.051C41.8131 273.257 42.0152 273.555 42.1544 273.946C42.2953 274.335 42.3657 274.805 42.3657 275.355C42.3657 275.909 42.2961 276.381 42.1569 276.772C42.0177 277.162 41.8164 277.459 41.5529 277.665C41.2894 277.869 40.9704 277.97 40.5958 277.97ZM40.5958 277.424C40.9671 277.424 41.2554 277.245 41.4609 276.887C41.6664 276.529 41.7691 276.018 41.7691 275.355C41.7691 274.915 41.7219 274.539 41.6274 274.229C41.5346 273.919 41.4004 273.683 41.2247 273.521C41.0507 273.359 40.8411 273.277 40.5958 273.277C40.2279 273.277 39.9404 273.459 39.7333 273.822C39.5261 274.183 39.4225 274.694 39.4225 275.355C39.4225 275.796 39.4689 276.171 39.5617 276.479C39.6546 276.787 39.788 277.022 39.962 277.182C40.1376 277.343 40.3489 277.424 40.5958 277.424Z" fill="#9D9D9D"/>
<rect id="JanuaryBar" x="68.0875" y="181.766" width="10.475" height="103.117" rx="1" fill="#499FDD"/>
<rect id="JanuaryBarOld" x="83.8" y="152.054" width="10.475" height="132.829" rx="1" fill="#D9D9D9"/>
<rect id="FebruaryBar" x="132.683" y="136.324" width="10.475" height="148.559" rx="1" fill="#499FDD"/>
<rect id="FebruaryBarOld" x="148.396" y="187.009" width="10.475" height="97.8739" rx="1" fill="#D9D9D9"/>
<rect id="MarchBar" x="197.279" y="152.054" width="10.475" height="132.829" rx="1" fill="#499FDD"/>
<rect id="MarchBarOld" x="212.992" y="174.775" width="10.475" height="110.108" rx="1" fill="#D9D9D9"/>
<rect id="AprilBar" x="261.875" y="202.739" width="10.475" height="82.1441" rx="1" fill="#499FDD"/>
<rect id="AprilBarOld" x="277.587" y="232.45" width="10.475" height="52.4324" rx="1" fill="#D9D9D9"/>
<rect id="MayBar" x="326.471" y="152.054" width="10.475" height="132.829" rx="1" fill="#499FDD"/>
<rect id="MayBarOld" x="342.183" y="223.712" width="10.475" height="61.1712" rx="1" fill="#D9D9D9"/>
<path id="TenantNumberOld" d="M366.112 81.1032V87.6487H365.319V81.9342H365.281L363.683 82.9953V82.1899L365.319 81.1032H366.112ZM368.199 87.6487L371.127 81.8575V81.8064H367.752V81.1032H371.945V81.8447L369.03 87.6487H368.199Z" fill="#9D9D9D"/>
<path id="TenantsNumber" d="M39.3117 83.6577V82.8906L42.1924 79.7372C42.5305 79.3679 42.8089 79.0469 43.0277 78.7741C43.2464 78.4986 43.4083 78.24 43.5135 77.9986C43.6214 77.7542 43.6754 77.4986 43.6754 77.2315C43.6754 76.9247 43.6015 76.6591 43.4538 76.4346C43.3089 76.2102 43.11 76.0369 42.8572 75.9148C42.6044 75.7926 42.3203 75.7315 42.0049 75.7315C41.6697 75.7315 41.3771 75.8011 41.1271 75.9403C40.8799 76.0767 40.6882 76.2684 40.5518 76.5156C40.4183 76.7628 40.3515 77.0525 40.3515 77.3849H39.3458C39.3458 76.8736 39.4637 76.4247 39.6995 76.0383C39.9353 75.652 40.2564 75.3508 40.6626 75.1349C41.0717 74.919 41.5305 74.8111 42.039 74.8111C42.5504 74.8111 43.0035 74.919 43.3984 75.1349C43.7933 75.3508 44.1029 75.642 44.3274 76.0085C44.5518 76.375 44.664 76.7827 44.664 77.2315C44.664 77.5525 44.6058 77.8665 44.4893 78.1733C44.3757 78.4773 44.1768 78.8167 43.8927 79.1917C43.6115 79.5639 43.2208 80.0184 42.7208 80.5554L40.7606 82.652V82.7202H44.8174V83.6577H39.3117ZM49.5262 83.777C48.9637 83.777 48.4623 83.6804 48.022 83.4872C47.5845 83.294 47.2365 83.0256 46.9779 82.6818C46.7223 82.3352 46.5831 81.9332 46.5603 81.4758H47.6342C47.6569 81.7571 47.7535 82 47.924 82.2045C48.0944 82.4062 48.3174 82.5625 48.593 82.6733C48.8686 82.7841 49.174 82.8395 49.5092 82.8395C49.8842 82.8395 50.2166 82.7741 50.5064 82.6434C50.7961 82.5128 51.0234 82.3309 51.1882 82.098C51.3529 81.865 51.4353 81.5952 51.4353 81.2883C51.4353 80.9673 51.3558 80.6846 51.1967 80.4403C51.0376 80.1932 50.8046 80 50.4978 79.8608C50.191 79.7216 49.816 79.652 49.3728 79.652H48.674V78.7145H49.3728C49.7194 78.7145 50.0234 78.652 50.2848 78.527C50.549 78.402 50.7549 78.2258 50.9027 77.9986C51.0532 77.7713 51.1285 77.5042 51.1285 77.1974C51.1285 76.902 51.0632 76.6449 50.9325 76.4261C50.8018 76.2074 50.6171 76.0369 50.3785 75.9148C50.1427 75.7926 49.8643 75.7315 49.5433 75.7315C49.2421 75.7315 48.9581 75.7869 48.691 75.8977C48.4268 76.0057 48.2109 76.1633 48.0433 76.3707C47.8757 76.5753 47.7848 76.8224 47.7706 77.1122H46.7478C46.7649 76.6548 46.9027 76.2542 47.1612 75.9105C47.4197 75.5639 47.7578 75.294 48.1754 75.1008C48.5958 74.9077 49.0575 74.8111 49.5603 74.8111C50.1001 74.8111 50.5632 74.9204 50.9495 75.1392C51.3359 75.3551 51.6328 75.6406 51.8402 75.9957C52.0475 76.3508 52.1512 76.7344 52.1512 77.1463C52.1512 77.6378 52.022 78.0568 51.7635 78.4034C51.5078 78.75 51.1598 78.99 50.7194 79.1236V79.1917C51.2706 79.2827 51.701 79.517 52.0106 79.8949C52.3203 80.2699 52.4751 80.7344 52.4751 81.2883C52.4751 81.7628 52.3458 82.1889 52.0873 82.5667C51.8316 82.9417 51.4822 83.2372 51.039 83.4531C50.5958 83.669 50.0916 83.777 49.5262 83.777Z" fill="black"/>
<path id="YearlyChangeTenants" d="M327.291 51.5943V47.2733H328.151V51.5943H327.291ZM325.562 49.862V49.0055H329.883V49.862H325.562ZM331.211 51.4153V50.6163L334.04 46.1483H334.669V47.3244H334.27L332.247 50.5268V50.578H336.124V51.4153H331.211ZM334.315 52.6937V51.1724L334.321 50.8081V46.1483H335.257V52.6937H334.315ZM339.398 52.7832C338.997 52.7832 338.637 52.7065 338.318 52.5531C338 52.3976 337.747 52.1845 337.557 51.9139C337.367 51.6433 337.266 51.3344 337.253 50.987H338.212C338.236 51.2683 338.36 51.4995 338.586 51.6806C338.812 51.8617 339.083 51.9522 339.398 51.9522C339.649 51.9522 339.872 51.8947 340.066 51.7797C340.262 51.6625 340.415 51.5016 340.526 51.2971C340.639 51.0925 340.696 50.8592 340.696 50.5971C340.696 50.3308 340.638 50.0932 340.523 49.8844C340.408 49.6756 340.249 49.5116 340.047 49.3922C339.846 49.2729 339.616 49.2122 339.356 49.2101C339.158 49.2101 338.959 49.2442 338.759 49.3123C338.558 49.3805 338.397 49.47 338.273 49.5808L337.368 49.4466L337.736 46.1483H341.335V46.9952H338.557L338.35 48.8265H338.388C338.516 48.703 338.685 48.5996 338.896 48.5165C339.109 48.4334 339.337 48.3919 339.58 48.3919C339.979 48.3919 340.333 48.4867 340.644 48.6763C340.958 48.866 341.204 49.1248 341.383 49.453C341.564 49.779 341.653 50.154 341.651 50.578C341.653 51.002 341.557 51.3802 341.364 51.7125C341.172 52.0449 340.905 52.307 340.564 52.4988C340.226 52.6884 339.837 52.7832 339.398 52.7832ZM343.224 52.7545C343.049 52.7545 342.899 52.6927 342.773 52.5691C342.647 52.4434 342.584 52.2921 342.584 52.1152C342.584 51.9405 342.647 51.7914 342.773 51.6678C342.899 51.5421 343.049 51.4792 343.224 51.4792C343.398 51.4792 343.549 51.5421 343.674 51.6678C343.8 51.7914 343.863 51.9405 343.863 52.1152C343.863 52.2324 343.833 52.34 343.773 52.438C343.716 52.5339 343.639 52.6106 343.543 52.6682C343.447 52.7257 343.341 52.7545 343.224 52.7545ZM345.184 52.6937L348.041 47.0432V46.9952H344.736V46.1483H349.064V47.024L346.216 52.6937H345.184ZM353.591 51.4665V51.1213C353.591 50.8741 353.643 50.6483 353.745 50.4437C353.849 50.237 354.001 50.0719 354.199 49.9483C354.399 49.8226 354.641 49.7598 354.924 49.7598C355.214 49.7598 355.457 49.8216 355.653 49.9451C355.849 50.0687 355.997 50.2339 356.097 50.4405C356.199 50.6472 356.251 50.8741 356.251 51.1213V51.4665C356.251 51.7136 356.199 51.9405 356.097 52.1472C355.995 52.3518 355.845 52.5169 355.647 52.6426C355.451 52.7662 355.21 52.828 354.924 52.828C354.637 52.828 354.394 52.7662 354.196 52.6426C353.997 52.5169 353.847 52.3518 353.745 52.1472C353.643 51.9405 353.591 51.7136 353.591 51.4665ZM354.336 51.1213V51.4665C354.336 51.6497 354.38 51.8159 354.467 51.965C354.555 52.1142 354.707 52.1888 354.924 52.1888C355.139 52.1888 355.29 52.1142 355.375 51.965C355.46 51.8159 355.503 51.6497 355.503 51.4665V51.1213C355.503 50.938 355.461 50.7719 355.378 50.6227C355.297 50.4736 355.146 50.399 354.924 50.399C354.711 50.399 354.56 50.4736 354.47 50.6227C354.381 50.7719 354.336 50.938 354.336 51.1213ZM350.3 47.7207V47.3755C350.3 47.1284 350.351 46.9015 350.453 46.6948C350.557 46.4881 350.709 46.323 350.907 46.1994C351.107 46.0758 351.349 46.014 351.632 46.014C351.922 46.014 352.165 46.0758 352.361 46.1994C352.557 46.323 352.705 46.4881 352.805 46.6948C352.905 46.9015 352.955 47.1284 352.955 47.3755V47.7207C352.955 47.9679 352.904 48.1948 352.802 48.4015C352.702 48.606 352.553 48.7711 352.355 48.8969C352.159 49.0204 351.918 49.0822 351.632 49.0822C351.343 49.0822 351.099 49.0204 350.9 48.8969C350.704 48.7711 350.555 48.606 350.453 48.4015C350.351 48.1948 350.3 47.9679 350.3 47.7207ZM351.047 47.3755V47.7207C351.047 47.904 351.09 48.0701 351.175 48.2193C351.263 48.3684 351.415 48.443 351.632 48.443C351.845 48.443 351.995 48.3684 352.08 48.2193C352.167 48.0701 352.211 47.904 352.211 47.7207V47.3755C352.211 47.1923 352.169 47.0261 352.086 46.877C352.003 46.7278 351.852 46.6532 351.632 46.6532C351.419 46.6532 351.268 46.7278 351.178 46.877C351.091 47.0261 351.047 47.1923 351.047 47.3755ZM350.603 52.6937L355.103 46.1483H355.867L351.367 52.6937H350.603Z" fill="#28CB7D"/>
<path id="TenatnsByMonths" d="M106.753 50.3688L105.347 55.5932H104.886L106.293 50.3688H106.753ZM109.036 54.937V51.6642H109.522V52.1756H109.565C109.633 52.0009 109.743 51.8652 109.895 51.7686C110.047 51.6706 110.23 51.6216 110.443 51.6216C110.659 51.6216 110.838 51.6706 110.982 51.7686C111.127 51.8652 111.24 52.0009 111.32 52.1756H111.355C111.438 52.0066 111.564 51.8723 111.732 51.7729C111.899 51.672 112.1 51.6216 112.335 51.6216C112.627 51.6216 112.867 51.7132 113.053 51.8965C113.239 52.0783 113.332 52.3617 113.332 52.7466V54.937H112.829V52.7466C112.829 52.5051 112.763 52.3325 112.631 52.2289C112.499 52.1252 112.343 52.0733 112.164 52.0733C111.934 52.0733 111.756 52.1429 111.629 52.2821C111.503 52.4199 111.44 52.5946 111.44 52.8063V54.937H110.928V52.6955C110.928 52.5094 110.868 52.3595 110.747 52.2459C110.627 52.1308 110.471 52.0733 110.281 52.0733C110.15 52.0733 110.028 52.1081 109.914 52.1777C109.802 52.2473 109.711 52.3439 109.642 52.4675C109.573 52.5896 109.539 52.731 109.539 52.8915V54.937H109.036ZM115.581 55.0051C115.285 55.0051 115.026 54.9348 114.803 54.7942C114.581 54.6536 114.408 54.4568 114.283 54.204C114.16 53.9512 114.098 53.6557 114.098 53.3176C114.098 52.9767 114.16 52.6791 114.283 52.4249C114.408 52.1706 114.581 51.9732 114.803 51.8325C115.026 51.6919 115.285 51.6216 115.581 51.6216C115.876 51.6216 116.135 51.6919 116.356 51.8325C116.579 51.9732 116.753 52.1706 116.876 52.4249C117.001 52.6791 117.064 52.9767 117.064 53.3176C117.064 53.6557 117.001 53.9512 116.876 54.204C116.753 54.4568 116.579 54.6536 116.356 54.7942C116.135 54.9348 115.876 55.0051 115.581 55.0051ZM115.581 54.5534C115.805 54.5534 115.99 54.4959 116.135 54.3808C116.28 54.2658 116.387 54.1145 116.456 53.927C116.526 53.7395 116.561 53.5364 116.561 53.3176C116.561 53.0989 116.526 52.895 116.456 52.7061C116.387 52.5172 116.28 52.3645 116.135 52.248C115.99 52.1316 115.805 52.0733 115.581 52.0733C115.356 52.0733 115.172 52.1316 115.027 52.248C114.882 52.3645 114.775 52.5172 114.705 52.7061C114.635 52.895 114.601 53.0989 114.601 53.3176C114.601 53.5364 114.635 53.7395 114.705 53.927C114.775 54.1145 114.882 54.2658 115.027 54.3808C115.172 54.4959 115.356 54.5534 115.581 54.5534ZM118.334 52.9682V54.937H117.831V51.6642H118.317V52.1756H118.36C118.436 52.0094 118.553 51.8759 118.709 51.775C118.865 51.6727 119.067 51.6216 119.314 51.6216C119.536 51.6216 119.73 51.6671 119.896 51.758C120.062 51.8475 120.191 51.9838 120.284 52.1671C120.376 52.3489 120.422 52.579 120.422 52.8574V54.937H119.919V52.8915C119.919 52.6344 119.853 52.4341 119.719 52.2906C119.586 52.1458 119.402 52.0733 119.169 52.0733C119.009 52.0733 118.865 52.1081 118.739 52.1777C118.614 52.2473 118.515 52.3489 118.443 52.4824C118.37 52.6159 118.334 52.7779 118.334 52.9682ZM122.764 51.6642V52.0904H121.068V51.6642H122.764ZM121.563 50.8801H122.066V53.9995C122.066 54.1415 122.086 54.248 122.127 54.3191C122.17 54.3887 122.224 54.4355 122.289 54.4597C122.356 54.4824 122.426 54.4938 122.5 54.4938C122.556 54.4938 122.601 54.4909 122.637 54.4852C122.672 54.4781 122.7 54.4725 122.722 54.4682L122.824 54.9199C122.79 54.9327 122.742 54.9455 122.681 54.9583C122.62 54.9725 122.543 54.9796 122.449 54.9796C122.307 54.9796 122.168 54.949 122.031 54.8879C121.896 54.8269 121.784 54.7338 121.695 54.6088C121.607 54.4838 121.563 54.3262 121.563 54.1358V50.8801ZM124.094 52.9682V54.937H123.591V50.5733H124.094V52.1756H124.137C124.213 52.0066 124.328 51.8723 124.482 51.7729C124.637 51.672 124.843 51.6216 125.1 51.6216C125.323 51.6216 125.518 51.6664 125.686 51.7558C125.853 51.8439 125.983 51.9796 126.075 52.1628C126.169 52.3446 126.216 52.5762 126.216 52.8574V54.937H125.713V52.8915C125.713 52.6316 125.646 52.4306 125.511 52.2885C125.377 52.145 125.192 52.0733 124.955 52.0733C124.79 52.0733 124.642 52.1081 124.512 52.1777C124.382 52.2473 124.28 52.3489 124.205 52.4824C124.131 52.6159 124.094 52.7779 124.094 52.9682ZM129.454 52.3972L129.002 52.525C128.974 52.4497 128.932 52.3766 128.877 52.3056C128.823 52.2331 128.749 52.1735 128.655 52.1266C128.561 52.0797 128.441 52.0563 128.295 52.0563C128.095 52.0563 127.928 52.1024 127.794 52.1948C127.662 52.2857 127.596 52.4014 127.596 52.5421C127.596 52.6671 127.642 52.7658 127.733 52.8382C127.824 52.9107 127.966 52.971 128.159 53.0193L128.645 53.1387C128.937 53.2097 129.155 53.3183 129.299 53.4646C129.442 53.6095 129.514 53.7963 129.514 54.025C129.514 54.2125 129.46 54.3801 129.352 54.5279C129.245 54.6756 129.096 54.7921 128.904 54.8773C128.713 54.9625 128.49 55.0051 128.235 55.0051C127.902 55.0051 127.625 54.9327 127.407 54.7878C127.188 54.6429 127.049 54.4313 126.991 54.1529L127.468 54.0335C127.514 54.2097 127.6 54.3418 127.726 54.4298C127.854 54.5179 128.021 54.562 128.227 54.562C128.461 54.562 128.647 54.5122 128.785 54.4128C128.924 54.312 128.994 54.1912 128.994 54.0506C128.994 53.937 128.954 53.8418 128.875 53.7651C128.795 53.687 128.673 53.6287 128.508 53.5904L127.963 53.4625C127.663 53.3915 127.443 53.2814 127.302 53.1323C127.163 52.9817 127.093 52.7935 127.093 52.5676C127.093 52.383 127.145 52.2196 127.249 52.0776C127.354 51.9355 127.497 51.824 127.677 51.7431C127.859 51.6621 128.065 51.6216 128.295 51.6216C128.619 51.6216 128.873 51.6926 129.058 51.8347C129.244 51.9767 129.376 52.1642 129.454 52.3972Z" fill="#9D9D9D"/>
<path id="TenantsText" d="M38.843 46.8514V46.1483H43.7521V46.8514H41.6939V52.6937H40.9012V46.8514H38.843ZM46.2194 52.796C45.7464 52.796 45.3384 52.6916 44.9953 52.4828C44.6544 52.2719 44.3913 51.9778 44.2059 51.6007C44.0227 51.2214 43.9311 50.7804 43.9311 50.2775C43.9311 49.7747 44.0227 49.3315 44.2059 48.948C44.3913 48.5623 44.6491 48.2619 44.9794 48.0467C45.3117 47.8294 45.6995 47.7207 46.1427 47.7207C46.3984 47.7207 46.6509 47.7633 46.9002 47.8486C47.1495 47.9338 47.3764 48.0723 47.5809 48.264C47.7855 48.4537 47.9485 48.7051 48.0699 49.0183C48.1914 49.3315 48.2521 49.7172 48.2521 50.1753V50.4949H44.468V49.8429H47.485C47.485 49.5659 47.4296 49.3187 47.3189 49.1014C47.2102 48.8841 47.0546 48.7125 46.8522 48.5868C46.6519 48.4611 46.4154 48.3983 46.1427 48.3983C45.8423 48.3983 45.5823 48.4728 45.3629 48.622C45.1456 48.769 44.9783 48.9608 44.8611 49.1973C44.7439 49.4338 44.6853 49.6873 44.6853 49.9579V50.3926C44.6853 50.7633 44.7492 51.0776 44.8771 51.3354C45.0071 51.5911 45.1871 51.7861 45.4172 51.9203C45.6473 52.0524 45.9147 52.1184 46.2194 52.1184C46.4176 52.1184 46.5966 52.0907 46.7564 52.0353C46.9183 51.9778 47.0578 51.8926 47.175 51.7797C47.2922 51.6646 47.3828 51.5219 47.4467 51.3514L48.1754 51.5559C48.0987 51.8031 47.9698 52.0204 47.7887 52.2079C47.6076 52.3933 47.3838 52.5382 47.1175 52.6426C46.8512 52.7449 46.5518 52.796 46.2194 52.796ZM50.1537 49.7406V52.6937H49.3995V47.7846H50.1282V48.5517H50.1921C50.3071 48.3024 50.4818 48.1021 50.7162 47.9508C50.9506 47.7974 51.2532 47.7207 51.6239 47.7207C51.9563 47.7207 52.2471 47.7889 52.4964 47.9253C52.7457 48.0595 52.9396 48.264 53.0781 48.5389C53.2166 48.8116 53.2858 49.1568 53.2858 49.5744V52.6937H52.5316V49.6255C52.5316 49.2399 52.4314 48.9395 52.2311 48.7243C52.0309 48.5069 51.756 48.3983 51.4066 48.3983C51.1658 48.3983 50.9506 48.4505 50.761 48.5549C50.5735 48.6593 50.4254 48.8116 50.3167 49.0119C50.2081 49.2122 50.1537 49.4551 50.1537 49.7406ZM56.1087 52.8088C55.7976 52.8088 55.5153 52.7502 55.2618 52.633C55.0082 52.5137 54.8069 52.3422 54.6577 52.1184C54.5086 51.8926 54.434 51.6199 54.434 51.3003C54.434 51.019 54.4894 50.791 54.6002 50.6163C54.711 50.4395 54.8591 50.301 55.0444 50.2008C55.2298 50.1007 55.4344 50.0261 55.6581 49.9771C55.8839 49.926 56.1108 49.8855 56.3388 49.8557C56.6371 49.8173 56.879 49.7885 57.0643 49.7694C57.2518 49.7481 57.3882 49.7129 57.4734 49.6639C57.5608 49.6149 57.6045 49.5297 57.6045 49.4082V49.3826C57.6045 49.0673 57.5182 48.8223 57.3456 48.6476C57.1751 48.4728 56.9162 48.3855 56.5689 48.3855C56.2089 48.3855 55.9265 48.4643 55.722 48.622C55.5174 48.7797 55.3736 48.948 55.2905 49.127L54.5746 48.8713C54.7025 48.573 54.8729 48.3407 55.086 48.1745C55.3012 48.0062 55.5356 47.889 55.7891 47.823C56.0448 47.7548 56.2962 47.7207 56.5434 47.7207C56.701 47.7207 56.8822 47.7399 57.0867 47.7782C57.2934 47.8145 57.4926 47.8901 57.6844 48.0052C57.8782 48.1202 58.0391 48.2939 58.167 48.5261C58.2948 48.7584 58.3587 49.0694 58.3587 49.4594V52.6937H57.6045V52.029H57.5661C57.515 52.1355 57.4297 52.2495 57.3104 52.3709C57.1911 52.4924 57.0324 52.5957 56.8342 52.6809C56.6361 52.7662 56.3942 52.8088 56.1087 52.8088ZM56.2238 52.1312C56.5221 52.1312 56.7735 52.0726 56.978 51.9554C57.1847 51.8383 57.3402 51.687 57.4447 51.5016C57.5512 51.3162 57.6045 51.1213 57.6045 50.9167V50.2264C57.5725 50.2647 57.5022 50.2999 57.3935 50.3319C57.287 50.3617 57.1634 50.3883 57.0228 50.4118C56.8843 50.4331 56.749 50.4522 56.6169 50.4693C56.4869 50.4842 56.3814 50.497 56.3005 50.5076C56.1045 50.5332 55.9212 50.5748 55.7508 50.6323C55.5824 50.6877 55.4461 50.7719 55.3417 50.8848C55.2394 50.9956 55.1883 51.1469 55.1883 51.3386C55.1883 51.6007 55.2852 51.7988 55.4791 51.9331C55.6751 52.0652 55.9233 52.1312 56.2238 52.1312ZM60.4897 49.7406V52.6937H59.7354V47.7846H60.4641V48.5517H60.528C60.6431 48.3024 60.8178 48.1021 61.0522 47.9508C61.2865 47.7974 61.5891 47.7207 61.9598 47.7207C62.2922 47.7207 62.5831 47.7889 62.8323 47.9253C63.0816 48.0595 63.2755 48.264 63.414 48.5389C63.5525 48.8116 63.6218 49.1568 63.6218 49.5744V52.6937H62.8675V49.6255C62.8675 49.2399 62.7674 48.9395 62.5671 48.7243C62.3668 48.5069 62.0919 48.3983 61.7425 48.3983C61.5017 48.3983 61.2865 48.4505 61.0969 48.5549C60.9094 48.6593 60.7613 48.8116 60.6527 49.0119C60.544 49.2122 60.4897 49.4551 60.4897 49.7406ZM67.135 47.7846V48.4238H64.591V47.7846H67.135ZM65.3324 46.6085H66.0867V51.2875C66.0867 51.5005 66.1176 51.6603 66.1794 51.7669C66.2433 51.8713 66.3243 51.9416 66.4223 51.9778C66.5224 52.0119 66.6279 52.029 66.7387 52.029C66.8218 52.029 66.89 52.0247 66.9432 52.0162C66.9965 52.0055 67.0391 51.997 67.0711 51.9906L67.2245 52.6682C67.1733 52.6873 67.102 52.7065 67.0103 52.7257C66.9187 52.747 66.8026 52.7576 66.662 52.7576C66.4489 52.7576 66.2401 52.7118 66.0356 52.6202C65.8331 52.5286 65.6648 52.389 65.5306 52.2015C65.3985 52.014 65.3324 51.7775 65.3324 51.492V46.6085ZM71.659 48.8841L70.9814 49.0758C70.9388 48.9629 70.8759 48.8532 70.7928 48.7466C70.7119 48.638 70.6011 48.5485 70.4605 48.4782C70.3198 48.4079 70.1398 48.3727 69.9203 48.3727C69.6199 48.3727 69.3695 48.4419 69.1693 48.5804C68.9711 48.7168 68.872 48.8905 68.872 49.1014C68.872 49.2889 68.9402 49.437 69.0766 49.5456C69.2129 49.6543 69.426 49.7449 69.7158 49.8173L70.4445 49.9963C70.8834 50.1028 71.2105 50.2658 71.4257 50.4853C71.6409 50.7026 71.7485 50.9828 71.7485 51.3258C71.7485 51.6071 71.6675 51.8585 71.5056 52.0801C71.3458 52.3017 71.122 52.4764 70.8344 52.6042C70.5467 52.7321 70.2122 52.796 69.8308 52.796C69.3301 52.796 68.9157 52.6873 68.5876 52.47C68.2595 52.2527 68.0517 51.9352 67.9644 51.5176L68.6803 51.3386C68.7485 51.6028 68.8774 51.801 69.067 51.9331C69.2587 52.0652 69.5091 52.1312 69.8181 52.1312C70.1696 52.1312 70.4487 52.0567 70.6554 51.9075C70.8642 51.7562 70.9686 51.5751 70.9686 51.3642C70.9686 51.1937 70.909 51.051 70.7896 50.9359C70.6703 50.8187 70.4871 50.7314 70.2399 50.6738L69.4217 50.4821C68.9722 50.3755 68.6419 50.2104 68.431 49.9867C68.2222 49.7608 68.1178 49.4785 68.1178 49.1397C68.1178 48.8628 68.1955 48.6177 68.3511 48.4047C68.5087 48.1916 68.7229 48.0243 68.9935 47.9029C69.2662 47.7814 69.5752 47.7207 69.9203 47.7207C70.4061 47.7207 70.7875 47.8272 71.0645 48.0403C71.3436 48.2534 71.5418 48.5346 71.659 48.8841Z" fill="black"/>
</g>
</g>
<defs>
<clipPath id="clip0_14_18">
<rect width="419" height="388" fill="white"/>
</clipPath>
</defs>
</svg>
