<svg width="419" height="388" viewBox="0 0 419 388" fill="none" xmlns="http://www.w3.org/2000/svg">
<g id="MC7" clip-path="url(#clip0_151_75)">
<rect id="MC7Bcg" width="419" height="388" rx="10" fill="white"/>
<g id="MC7Content">
<path id="MC7Floor" d="M0 326H419V378C419 383.523 414.523 388 409 388H10C4.47716 388 0 383.523 0 378V326Z" fill="#D9D9D9"/>
<g id="MC7BroomHair">
<path d="M166.5 274L211.5 264.5L256.5 274L260.5 323H250H240.5H231.5H221.5H211.5H202.5H193H183H172.5H162.5L166.5 274Z" fill="#D9D9D9"/>
<path d="M172.5 323H162.5L166.5 274L211.5 264.5L256.5 274L260.5 323H250M172.5 323L173.5 297.5M172.5 323H183M183 323L184 289M183 323H193M193 323L194.5 297.5M193 323H202.5M202.5 323V290.5M202.5 323H211.5M211.5 323L212.5 299.5M211.5 323H221.5M221.5 323L222.5 289M221.5 323H231.5M231.5 323V296.5M231.5 323H240.5M240.5 323V290.5M240.5 323H250M250 323L249 299.5" stroke="black" stroke-width="2"/>
</g>
<path id="MC7BroomHandle" d="M217 54V258H205V54C205 50.6863 207.686 48 211 48C214.314 48 217 50.6863 217 54Z" fill="#222222" stroke="black" stroke-width="2"/>
<rect id="MC7BroomScrew" x="194" y="256" width="34" height="10" fill="#D9D9D9" stroke="black" stroke-width="2"/>
<g id="MC7Dust_2">
<circle id="MC7DustParticle_6" cx="204" cy="321" r="2" fill="#222222"/>
<circle id="MC7DustParticle_5" cx="208" cy="314" r="1" fill="#222222"/>
<circle id="MC7DustParticle_4" cx="212" cy="307" r="2" fill="#222222"/>
<circle id="MC7DustParticle_3" cx="216" cy="314" r="2" fill="#222222"/>
<circle id="MC7DustParticle_2" cx="211.5" cy="318.5" r="1.5" fill="#222222"/>
<path id="MC7DustParticle_1" d="M221 321C221 321.552 220.552 322 220 322C219.448 322 219 321.552 219 321C219 320.448 219.448 320 220 320C220.552 320 221 320.448 221 321Z" fill="#222222"/>
</g>
<g id="MC7Dust">
<circle id="MC7DustParticle_6_2" cx="204" cy="321" r="2" fill="#222222"/>
<circle id="MC7DustParticle_5_2" cx="208" cy="314" r="1" fill="#222222"/>
<circle id="MC7DustParticle_4_2" cx="212" cy="307" r="2" fill="#222222"/>
<circle id="MC7DustParticle_3_2" cx="216" cy="314" r="2" fill="#222222"/>
<circle id="MC7DustParticle_2_2" cx="211.5" cy="318.5" r="1.5" fill="#222222"/>
<path id="MC7DustParticle_1_2" d="M221 321C221 321.552 220.552 322 220 322C219.448 322 219 321.552 219 321C219 320.448 219.448 320 220 320C220.552 320 221 320.448 221 321Z" fill="#222222"/>
</g>
</g>
<defs>
<clipPath id="clip0_151_75">
<rect width="419" height="388" fill="white"/>
</clipPath>
</defs>
</svg>
