<svg width="300" height="278" viewBox="0 0 300 278" fill="none" xmlns="http://www.w3.org/2000/svg">
<g id="MobileCard" clip-path="url(#clip0_103_3)">
<g id="MobileBCG">
<rect id="MobileV2Background" width="300.211" height="278" rx="10" fill="white"/>
</g>
<g id="MS4">
<g id="MS4Paths">
<path id="MS4Path6" d="M168.19 139.476H187.294V176.989H206.398" stroke="#D6D6D6"/>
<path id="MS4Path5" d="M149.781 157.19V195.398" stroke="#D6D6D6"/>
<path id="MS4Path4" d="M131.373 139.476H112.269V214.501H93.1653" stroke="#D6D6D6"/>
<path id="MS4Path3" d="M131.373 139.476H93.1653" stroke="#D6D6D6"/>
<path id="MS4Path2" d="M149.782 120.373V101.964H112.269V82.1653" stroke="#D6D6D6"/>
<path id="MS4Path1" d="M149.781 120.373V101.964H206.398" stroke="#D6D6D6"/>
</g>
<g id="MS4Mail">
<rect id="MS4MailSquare" x="131.525" y="120.525" width="36.5126" height="36.5126" rx="7.5" stroke="#D6D6D6"/>
<rect id="MS4MailOuter" x="138.346" y="132.12" width="22.8717" height="13.323" rx="2.5" stroke="#D6D6D6"/>
<path id="MS4MailInner" d="M159.671 131.961C161.035 131.961 161.376 133.098 161.376 133.666L149.781 139.464C145.917 138.099 138.187 134.007 138.187 133.666C138.187 132.302 139.323 131.961 139.892 131.961H159.671Z" stroke="#D6D6D6"/>
</g>
<g id="MS4Customers">
<g id="MS4Customer1">
<rect id="FourCustomer1Square" x="206.55" y="83.0126" width="36.5126" height="36.5126" rx="7.5" stroke="#D6D6D6"/>
<path id="FourCustomer1Body" d="M222.776 103.158H226.838C230.427 103.158 233.338 106.068 233.338 109.658V111.884H216.276V109.658C216.276 106.068 219.186 103.158 222.776 103.158Z" stroke="#D6D6D6"/>
<circle id="FourCustomer1Head" cx="224.807" cy="95.7115" r="5.05742" stroke="#D6D6D6"/>
</g>
<g id="MS4Customer2">
<path id="FourCustomer2Square" d="M99.07 45.5H125.468C128.261 45.5 130.525 47.7643 130.525 50.5574V76.9552C130.525 79.7483 128.261 82.0126 125.468 82.0126H99.07C96.2769 82.0126 94.0126 79.7483 94.0126 76.9552V50.5574C94.0126 47.7643 96.2769 45.5 99.07 45.5Z" stroke="#D6D6D6"/>
<path id="FourCustomer2Body" d="M108.101 65.6457H116.437C118.846 65.6457 120.8 67.599 120.8 70.0084V74.3712H103.738V70.0084C103.738 67.599 105.691 65.6457 108.101 65.6457Z" stroke="#D6D6D6"/>
<circle id="FourCustomer2Head" cx="112.269" cy="58.1989" r="5.05742" stroke="#D6D6D6"/>
</g>
<g id="MS4Customer3">
<path id="FourCustomer3Square" d="M61.5574 120.525H87.9552C90.7483 120.525 93.0126 122.789 93.0126 125.583V151.98C93.0126 154.774 90.7483 157.038 87.9552 157.038H61.5574C58.7643 157.038 56.5 154.774 56.5 151.98V125.583C56.5 122.789 58.7643 120.525 61.5574 120.525Z" stroke="#D6D6D6"/>
<path id="FourCustomer3Body" d="M70.5882 140.671H78.9243C81.3338 140.671 83.2871 142.624 83.2871 145.034V149.396H66.2255V145.034C66.2255 142.624 68.1787 140.671 70.5882 140.671Z" stroke="#D6D6D6"/>
<circle id="FourCustomer3Head" cx="74.7563" cy="133.224" r="5.05742" stroke="#D6D6D6"/>
</g>
<g id="MS4Customer4">
<path id="FourCustomer4Square" d="M61.5574 195.55H87.9552C90.7483 195.55 93.0126 197.815 93.0126 200.608V227.006C93.0126 229.799 90.7483 232.063 87.9552 232.063H61.5574C58.7643 232.063 56.5 229.799 56.5 227.006V200.608C56.5 197.815 58.7643 195.55 61.5574 195.55Z" stroke="#D6D6D6"/>
<path id="FourCustomer4Body" d="M70.5882 215.696H78.9243C81.3338 215.696 83.2871 217.649 83.2871 220.059V224.422H66.2255V220.059C66.2255 217.649 68.1787 215.696 70.5882 215.696Z" stroke="#D6D6D6"/>
<circle id="FourCustomer4Head" cx="74.7563" cy="208.249" r="5.05742" stroke="#D6D6D6"/>
</g>
<g id="MS4Customer5">
<path id="FourCustomer5Square" d="M136.583 195.55H162.98C165.773 195.55 168.038 197.815 168.038 200.608V227.006C168.038 229.799 165.773 232.063 162.98 232.063H136.583C133.789 232.063 131.525 229.799 131.525 227.006V200.608C131.525 197.815 133.789 195.55 136.583 195.55Z" stroke="#D6D6D6"/>
<path id="FourCustomer5Body" d="M145.613 215.696H153.95C156.359 215.696 158.312 217.649 158.312 220.059V224.422H141.251V220.059C141.251 217.649 143.204 215.696 145.613 215.696Z" stroke="#D6D6D6"/>
<circle id="FourCustomer5Head" cx="149.782" cy="208.249" r="5.05742" stroke="#D6D6D6"/>
</g>
<g id="MS4Customer6">
<path id="FourCustomer6Square" d="M211.608 158.038H238.006C240.799 158.038 243.063 160.302 243.063 163.095V189.493C243.063 192.286 240.799 194.55 238.006 194.55H211.608C208.815 194.55 206.55 192.286 206.55 189.493V163.095C206.55 160.302 208.815 158.038 211.608 158.038Z" stroke="#D6D6D6"/>
<path id="FourCustomer6Body" d="M220.639 178.183H228.975C231.384 178.183 233.338 180.137 233.338 182.546V186.909H216.276V182.546C216.276 180.137 218.229 178.183 220.639 178.183Z" stroke="#D6D6D6"/>
<circle id="FourCustomer6Head" cx="224.807" cy="170.737" r="5.05742" stroke="#D6D6D6"/>
</g>
</g>
<g id="MS4Reviews">
<g id="MS4Review6">
<g id="MS4Review1Stars">
<path id="Star1" d="M226.004 65.0168L226.766 67.1818L229.247 67.1768L227.237 68.5099L228.009 70.6719L226.004 69.3307L224 70.6719L224.772 68.5099L222.761 67.1768L225.242 67.1818L226.004 65.0168Z" fill="#FFB800"/>
<path id="Star2" d="M233.393 65.0168L234.155 67.1818L236.636 67.1768L234.625 68.5099L235.397 70.6719L233.393 69.3307L231.388 70.6719L232.16 68.5099L230.15 67.1768L232.631 67.1818L233.393 65.0168Z" fill="#FFB800"/>
<path id="Star3" d="M240.782 65.0168L241.543 67.1818L244.025 67.1768L242.014 68.5099L242.786 70.6719L240.782 69.3307L238.777 70.6719L239.549 68.5099L237.538 67.1768L240.02 67.1818L240.782 65.0168Z" fill="#FFB800"/>
<path id="Star4" d="M248.171 65.0168L248.932 67.1818L251.414 67.1768L249.403 68.5099L250.175 70.6719L248.171 69.3307L246.166 70.6719L246.938 68.5099L244.927 67.1768L247.409 67.1818L248.171 65.0168Z" fill="#FFB800"/>
<path id="Star5" d="M255.559 65.0168L256.321 67.1818L258.803 67.1768L256.792 68.5099L257.564 70.6719L255.559 69.3307L253.555 70.6719L254.327 68.5099L252.316 67.1768L254.798 67.1818L255.559 65.0168Z" fill="#FFB800"/>
</g>
<path id="MS4Review1StarCount" d="M226.631 61.1193C226.131 61.1193 225.68 61.0199 225.28 60.821C224.879 60.6222 224.558 60.3494 224.317 60.0028C224.075 59.6562 223.943 59.2614 223.92 58.8182H224.943C224.983 59.2131 225.162 59.5398 225.48 59.7983C225.801 60.054 226.185 60.1818 226.631 60.1818C226.989 60.1818 227.307 60.098 227.585 59.9304C227.866 59.7628 228.087 59.5327 228.246 59.2401C228.408 58.9446 228.489 58.6108 228.489 58.2386C228.489 57.858 228.405 57.5185 228.237 57.2202C228.072 56.919 227.845 56.6818 227.555 56.5085C227.266 56.3352 226.935 56.2472 226.562 56.2443C226.295 56.2415 226.021 56.2827 225.74 56.3679C225.459 56.4503 225.227 56.5568 225.045 56.6875L224.057 56.5682L224.585 52.2727H229.119V53.2102H225.472L225.165 55.7841H225.216C225.395 55.642 225.619 55.5241 225.889 55.4304C226.159 55.3366 226.44 55.2898 226.733 55.2898C227.267 55.2898 227.743 55.4176 228.161 55.6733C228.581 55.9261 228.911 56.2727 229.149 56.7131C229.391 57.1534 229.511 57.6562 229.511 58.2216C229.511 58.7784 229.386 59.2756 229.136 59.7131C228.889 60.1477 228.548 60.4915 228.114 60.7443C227.679 60.9943 227.185 61.1193 226.631 61.1193ZM234.306 51.8636L231.494 62.3125H230.574L233.386 51.8636H234.306ZM238.209 61.1193C237.709 61.1193 237.259 61.0199 236.858 60.821C236.457 60.6222 236.136 60.3494 235.895 60.0028C235.653 59.6562 235.521 59.2614 235.499 58.8182H236.521C236.561 59.2131 236.74 59.5398 237.058 59.7983C237.379 60.054 237.763 60.1818 238.209 60.1818C238.567 60.1818 238.885 60.098 239.163 59.9304C239.445 59.7628 239.665 59.5327 239.824 59.2401C239.986 58.9446 240.067 58.6108 240.067 58.2386C240.067 57.858 239.983 57.5185 239.815 57.2202C239.651 56.919 239.423 56.6818 239.134 56.5085C238.844 56.3352 238.513 56.2472 238.141 56.2443C237.874 56.2415 237.599 56.2827 237.318 56.3679C237.037 56.4503 236.805 56.5568 236.624 56.6875L235.635 56.5682L236.163 52.2727H240.697V53.2102H237.05L236.743 55.7841H236.794C236.973 55.642 237.197 55.5241 237.467 55.4304C237.737 55.3366 238.018 55.2898 238.311 55.2898C238.845 55.2898 239.321 55.4176 239.739 55.6733C240.159 55.9261 240.489 56.2727 240.727 56.7131C240.969 57.1534 241.089 57.6562 241.089 58.2216C241.089 58.7784 240.964 59.2756 240.714 59.7131C240.467 60.1477 240.126 60.4915 239.692 60.7443C239.257 60.9943 238.763 61.1193 238.209 61.1193Z" fill="black"/>
</g>
<g id="MS4Review5">
<g id="MS4Review5Stars">
<path id="Star1_2" d="M226.004 140.737L226.766 142.902L229.247 142.897L227.237 144.23L228.009 146.392L226.004 145.051L224 146.392L224.772 144.23L222.761 142.897L225.242 142.902L226.004 140.737Z" fill="#FFB800"/>
<path id="Star2_2" d="M233.393 140.737L234.155 142.902L236.636 142.897L234.625 144.23L235.397 146.392L233.393 145.051L231.388 146.392L232.16 144.23L230.15 142.897L232.631 142.902L233.393 140.737Z" fill="#FFB800"/>
<path id="Star3_2" d="M240.782 140.737L241.543 142.902L244.025 142.897L242.014 144.23L242.786 146.392L240.782 145.051L238.777 146.392L239.549 144.23L237.538 142.897L240.02 142.902L240.782 140.737Z" fill="#FFB800"/>
<path id="Star4_2" d="M248.171 140.737L248.932 142.902L251.414 142.897L249.403 144.23L250.175 146.392L248.171 145.051L246.166 146.392L246.938 144.23L244.927 142.897L247.409 142.902L248.171 140.737Z" fill="#FFB800"/>
<path id="Star5_2" d="M255.559 140.737L256.321 142.902L258.803 142.897L256.792 144.23L257.564 146.392L255.559 145.051L253.555 146.392L254.327 144.23L252.316 142.897L254.798 142.902L255.559 140.737Z" fill="#FFB800"/>
</g>
<path id="MS4Review5StarCount" d="M226.631 138.119C226.131 138.119 225.68 138.02 225.28 137.821C224.879 137.622 224.558 137.349 224.317 137.003C224.075 136.656 223.943 136.261 223.92 135.818H224.943C224.983 136.213 225.162 136.54 225.48 136.798C225.801 137.054 226.185 137.182 226.631 137.182C226.989 137.182 227.307 137.098 227.585 136.93C227.866 136.763 228.087 136.533 228.246 136.24C228.408 135.945 228.489 135.611 228.489 135.239C228.489 134.858 228.405 134.518 228.237 134.22C228.072 133.919 227.845 133.682 227.555 133.509C227.266 133.335 226.935 133.247 226.562 133.244C226.295 133.241 226.021 133.283 225.74 133.368C225.459 133.45 225.227 133.557 225.045 133.688L224.057 133.568L224.585 129.273H229.119V130.21H225.472L225.165 132.784H225.216C225.395 132.642 225.619 132.524 225.889 132.43C226.159 132.337 226.44 132.29 226.733 132.29C227.267 132.29 227.743 132.418 228.161 132.673C228.581 132.926 228.911 133.273 229.149 133.713C229.391 134.153 229.511 134.656 229.511 135.222C229.511 135.778 229.386 136.276 229.136 136.713C228.889 137.148 228.548 137.491 228.114 137.744C227.679 137.994 227.185 138.119 226.631 138.119ZM234.306 128.864L231.494 139.312H230.574L233.386 128.864H234.306ZM238.209 138.119C237.709 138.119 237.259 138.02 236.858 137.821C236.457 137.622 236.136 137.349 235.895 137.003C235.653 136.656 235.521 136.261 235.499 135.818H236.521C236.561 136.213 236.74 136.54 237.058 136.798C237.379 137.054 237.763 137.182 238.209 137.182C238.567 137.182 238.885 137.098 239.163 136.93C239.445 136.763 239.665 136.533 239.824 136.24C239.986 135.945 240.067 135.611 240.067 135.239C240.067 134.858 239.983 134.518 239.815 134.22C239.651 133.919 239.423 133.682 239.134 133.509C238.844 133.335 238.513 133.247 238.141 133.244C237.874 133.241 237.599 133.283 237.318 133.368C237.037 133.45 236.805 133.557 236.624 133.688L235.635 133.568L236.163 129.273H240.697V130.21H237.05L236.743 132.784H236.794C236.973 132.642 237.197 132.524 237.467 132.43C237.737 132.337 238.018 132.29 238.311 132.29C238.845 132.29 239.321 132.418 239.739 132.673C240.159 132.926 240.489 133.273 240.727 133.713C240.969 134.153 241.089 134.656 241.089 135.222C241.089 135.778 240.964 136.276 240.714 136.713C240.467 137.148 240.126 137.491 239.692 137.744C239.257 137.994 238.763 138.119 238.209 138.119Z" fill="black"/>
</g>
<g id="MS4Review4">
<g id="MS4Review4Stars">
<path id="Star1_3" d="M188.491 237.992L189.253 240.157L191.735 240.152L189.724 241.485L190.496 243.647L188.491 242.306L186.487 243.647L187.259 241.485L185.248 240.152L187.73 240.157L188.491 237.992Z" fill="#FFB800"/>
<path id="Star2_3" d="M195.88 237.992L196.642 240.157L199.124 240.152L197.113 241.485L197.885 243.647L195.88 242.306L193.876 243.647L194.648 241.485L192.637 240.152L195.119 240.157L195.88 237.992Z" fill="#FFB800"/>
<path id="Star3_3" d="M203.269 237.992L204.031 240.157L206.512 240.152L204.501 241.485L205.273 243.647L203.269 242.306L201.265 243.647L202.037 241.485L200.026 240.152L202.507 240.157L203.269 237.992Z" fill="#FFB800"/>
<path id="Star4_3" d="M210.658 237.992L211.42 240.157L213.901 240.152L211.891 241.485L212.663 243.647L210.658 242.306L208.654 243.647L209.426 241.485L207.415 240.152L209.896 240.157L210.658 237.992Z" fill="#FFB800"/>
<path id="Star5_3" d="M218.047 237.992L218.809 240.157L221.29 240.152L219.279 241.485L220.051 243.647L218.047 242.306L216.042 243.647L216.814 241.485L214.804 240.152L217.285 240.157L218.047 237.992Z" fill="#FFB800"/>
</g>
<path id="MS4Review4StarCount" d="M188.631 235.119C188.131 235.119 187.68 235.02 187.28 234.821C186.879 234.622 186.558 234.349 186.317 234.003C186.075 233.656 185.943 233.261 185.92 232.818H186.943C186.983 233.213 187.162 233.54 187.48 233.798C187.801 234.054 188.185 234.182 188.631 234.182C188.989 234.182 189.307 234.098 189.585 233.93C189.866 233.763 190.087 233.533 190.246 233.24C190.408 232.945 190.489 232.611 190.489 232.239C190.489 231.858 190.405 231.518 190.237 231.22C190.072 230.919 189.845 230.682 189.555 230.509C189.266 230.335 188.935 230.247 188.562 230.244C188.295 230.241 188.021 230.283 187.74 230.368C187.459 230.45 187.227 230.557 187.045 230.688L186.057 230.568L186.585 226.273H191.119V227.21H187.472L187.165 229.784H187.216C187.395 229.642 187.619 229.524 187.889 229.43C188.159 229.337 188.44 229.29 188.733 229.29C189.267 229.29 189.743 229.418 190.161 229.673C190.581 229.926 190.911 230.273 191.149 230.713C191.391 231.153 191.511 231.656 191.511 232.222C191.511 232.778 191.386 233.276 191.136 233.713C190.889 234.148 190.548 234.491 190.114 234.744C189.679 234.994 189.185 235.119 188.631 235.119ZM196.306 225.864L193.494 236.312H192.574L195.386 225.864H196.306ZM200.209 235.119C199.709 235.119 199.259 235.02 198.858 234.821C198.457 234.622 198.136 234.349 197.895 234.003C197.653 233.656 197.521 233.261 197.499 232.818H198.521C198.561 233.213 198.74 233.54 199.058 233.798C199.379 234.054 199.763 234.182 200.209 234.182C200.567 234.182 200.885 234.098 201.163 233.93C201.445 233.763 201.665 233.533 201.824 233.24C201.986 232.945 202.067 232.611 202.067 232.239C202.067 231.858 201.983 231.518 201.815 231.22C201.651 230.919 201.423 230.682 201.134 230.509C200.844 230.335 200.513 230.247 200.141 230.244C199.874 230.241 199.599 230.283 199.318 230.368C199.037 230.45 198.805 230.557 198.624 230.688L197.635 230.568L198.163 226.273H202.697V227.21H199.05L198.743 229.784H198.794C198.973 229.642 199.197 229.524 199.467 229.43C199.737 229.337 200.018 229.29 200.311 229.29C200.845 229.29 201.321 229.418 201.739 229.673C202.159 229.926 202.489 230.273 202.727 230.713C202.969 231.153 203.089 231.656 203.089 232.222C203.089 232.778 202.964 233.276 202.714 233.713C202.467 234.148 202.126 234.491 201.692 234.744C201.257 234.994 200.763 235.119 200.209 235.119Z" fill="black"/>
</g>
<g id="MS4Review3">
<g id="MS4Review3Stars">
<path id="Star1_4" d="M34.273 177.555L35.0347 179.72L37.5164 179.715L35.5055 181.048L36.2775 183.21L34.273 181.869L32.2685 183.21L33.0406 181.048L31.0297 179.715L33.5113 179.72L34.273 177.555Z" fill="#FFB800"/>
<path id="Star2_4" d="M41.6618 177.555L42.4235 179.72L44.9052 179.715L42.8943 181.048L43.6663 183.21L41.6618 181.869L39.6573 183.21L40.4294 181.048L38.4185 179.715L40.9001 179.72L41.6618 177.555Z" fill="#FFB800"/>
<path id="Star3_4" d="M49.0506 177.555L49.8123 179.72L52.2939 179.715L50.2831 181.048L51.0551 183.21L49.0506 181.869L47.0461 183.21L47.8182 181.048L45.8073 179.715L48.2889 179.72L49.0506 177.555Z" fill="#FFB800"/>
<path id="Star4_4" d="M56.4395 177.555L57.2012 179.72L59.6829 179.715L57.672 181.048L58.444 183.21L56.4395 181.869L54.435 183.21L55.2071 181.048L53.1962 179.715L55.6778 179.72L56.4395 177.555Z" fill="#FFB800"/>
<path id="Star5_4" d="M63.8283 177.555L64.59 179.72L67.0717 179.715L65.0608 181.048L65.8328 183.21L63.8283 181.869L61.8238 183.21L62.5959 181.048L60.585 179.715L63.0666 179.72L63.8283 177.555Z" fill="#FFB800"/>
</g>
<path id="MS4Review3StarCount" d="M31.6989 173.21V172.341L35.5341 166.273H36.1648V167.619H35.7386L32.8409 172.205V172.273H38.0057V173.21H31.6989ZM35.8068 175V172.946V172.541V166.273H36.8125V175H35.8068ZM39.9425 175.068C39.7322 175.068 39.5518 174.993 39.4013 174.842C39.2507 174.692 39.1754 174.511 39.1754 174.301C39.1754 174.091 39.2507 173.911 39.4013 173.76C39.5518 173.609 39.7322 173.534 39.9425 173.534C40.1527 173.534 40.3331 173.609 40.4837 173.76C40.6342 173.911 40.7095 174.091 40.7095 174.301C40.7095 174.44 40.674 174.568 40.603 174.685C40.5348 174.801 40.4425 174.895 40.326 174.966C40.2124 175.034 40.0845 175.068 39.9425 175.068ZM45.0231 175.119C44.4379 175.119 43.9208 175.016 43.4719 174.808C43.0259 174.598 42.6779 174.31 42.4279 173.943C42.1779 173.574 42.0543 173.153 42.0572 172.682C42.0543 172.312 42.1268 171.972 42.2745 171.659C42.4222 171.344 42.6239 171.081 42.8796 170.871C43.1381 170.658 43.4265 170.523 43.7447 170.466V170.415C43.3271 170.307 42.9947 170.072 42.7475 169.712C42.5004 169.348 42.3782 168.935 42.381 168.472C42.3782 168.028 42.4904 167.632 42.7177 167.283C42.945 166.933 43.2575 166.658 43.6552 166.456C44.0558 166.254 44.5117 166.153 45.0231 166.153C45.5288 166.153 45.9805 166.254 46.3782 166.456C46.7759 166.658 47.0884 166.933 47.3157 167.283C47.5458 167.632 47.6623 168.028 47.6651 168.472C47.6623 168.935 47.5359 169.348 47.2859 169.712C47.0387 170.072 46.7106 170.307 46.3015 170.415V170.466C46.6168 170.523 46.9009 170.658 47.1538 170.871C47.4066 171.081 47.6083 171.344 47.7589 171.659C47.9094 171.972 47.9862 172.312 47.989 172.682C47.9862 173.153 47.8583 173.574 47.6055 173.943C47.3555 174.31 47.0075 174.598 46.5614 174.808C46.1183 175.016 45.6055 175.119 45.0231 175.119ZM45.0231 174.182C45.418 174.182 45.7589 174.118 46.0458 173.99C46.3327 173.862 46.5543 173.682 46.7106 173.449C46.8668 173.216 46.9464 172.943 46.9492 172.631C46.9464 172.301 46.8612 172.01 46.6935 171.757C46.5259 171.504 46.2972 171.305 46.0075 171.161C45.7205 171.016 45.3924 170.943 45.0231 170.943C44.6509 170.943 44.3185 171.016 44.0259 171.161C43.7362 171.305 43.5075 171.504 43.3398 171.757C43.1751 172.01 43.0941 172.301 43.0969 172.631C43.0941 172.943 43.1694 173.216 43.3228 173.449C43.479 173.682 43.7021 173.862 43.9918 173.99C44.2816 174.118 44.6254 174.182 45.0231 174.182ZM45.0231 170.04C45.3356 170.04 45.6126 169.977 45.854 169.852C46.0984 169.727 46.2901 169.553 46.4293 169.328C46.5685 169.104 46.6396 168.841 46.6424 168.54C46.6396 168.244 46.57 167.987 46.4336 167.768C46.2972 167.547 46.1083 167.376 45.8668 167.257C45.6254 167.135 45.3441 167.074 45.0231 167.074C44.6964 167.074 44.4109 167.135 44.1665 167.257C43.9222 167.376 43.7333 167.547 43.5998 167.768C43.4663 167.987 43.4009 168.244 43.4038 168.54C43.4009 168.841 43.4677 169.104 43.604 169.328C43.7433 169.553 43.935 169.727 44.1793 169.852C44.4237 169.977 44.7049 170.04 45.0231 170.04ZM52.7244 165.864L49.9119 176.312H48.9915L51.804 165.864H52.7244ZM56.6268 175.119C56.1268 175.119 55.6765 175.02 55.2759 174.821C54.8754 174.622 54.5543 174.349 54.3129 174.003C54.0714 173.656 53.9393 173.261 53.9165 172.818H54.9393C54.979 173.213 55.158 173.54 55.4762 173.798C55.7972 174.054 56.1808 174.182 56.6268 174.182C56.9847 174.182 57.3029 174.098 57.5813 173.93C57.8626 173.763 58.0827 173.533 58.2418 173.24C58.4038 172.945 58.4847 172.611 58.4847 172.239C58.4847 171.858 58.4009 171.518 58.2333 171.22C58.0685 170.919 57.8413 170.682 57.5515 170.509C57.2617 170.335 56.9308 170.247 56.5586 170.244C56.2915 170.241 56.0174 170.283 55.7362 170.368C55.4549 170.45 55.2234 170.557 55.0415 170.688L54.0529 170.568L54.5813 166.273H59.1154V167.21H55.4677L55.1609 169.784H55.212C55.391 169.642 55.6154 169.524 55.8853 169.43C56.1552 169.337 56.4364 169.29 56.729 169.29C57.2631 169.29 57.739 169.418 58.1566 169.673C58.5771 169.926 58.9066 170.273 59.1452 170.713C59.3867 171.153 59.5075 171.656 59.5075 172.222C59.5075 172.778 59.3825 173.276 59.1325 173.713C58.8853 174.148 58.5444 174.491 58.1097 174.744C57.6751 174.994 57.1808 175.119 56.6268 175.119Z" fill="black"/>
</g>
<g id="MS4Review2">
<g id="MS4Review2Stars">
<path id="Star1_5" d="M34.273 102.529L35.0347 104.694L37.5164 104.689L35.5055 106.022L36.2775 108.184L34.273 106.843L32.2685 108.184L33.0406 106.022L31.0297 104.689L33.5113 104.694L34.273 102.529Z" fill="#FFB800"/>
<path id="Star2_5" d="M41.6618 102.529L42.4235 104.694L44.9052 104.689L42.8943 106.022L43.6663 108.184L41.6618 106.843L39.6573 108.184L40.4294 106.022L38.4185 104.689L40.9001 104.694L41.6618 102.529Z" fill="#FFB800"/>
<path id="Star3_5" d="M49.0506 102.529L49.8123 104.694L52.2939 104.689L50.2831 106.022L51.0551 108.184L49.0506 106.843L47.0461 108.184L47.8182 106.022L45.8073 104.689L48.2889 104.694L49.0506 102.529Z" fill="#FFB800"/>
<path id="Star4_5" d="M56.4395 102.529L57.2012 104.694L59.6829 104.689L57.672 106.022L58.444 108.184L56.4395 106.843L54.435 108.184L55.2071 106.022L53.1962 104.689L55.6778 104.694L56.4395 102.529Z" fill="#FFB800"/>
<path id="Star5_5" d="M63.8283 102.529L64.59 104.694L67.0717 104.689L65.0608 106.022L65.8328 108.184L63.8283 106.843L61.8238 108.184L62.5959 106.022L60.585 104.689L63.0666 104.694L63.8283 102.529Z" fill="#FFB800"/>
</g>
<path id="MS4Review2StarCount" d="M31.6989 98.2102V97.3409L35.5341 91.2727H36.1648V92.6193H35.7386L32.8409 97.2045V97.2727H38.0057V98.2102H31.6989ZM35.8068 100V97.946V97.5412V91.2727H36.8125V100H35.8068ZM39.9425 100.068C39.7322 100.068 39.5518 99.9929 39.4013 99.8423C39.2507 99.6918 39.1754 99.5114 39.1754 99.3011C39.1754 99.0909 39.2507 98.9105 39.4013 98.7599C39.5518 98.6094 39.7322 98.5341 39.9425 98.5341C40.1527 98.5341 40.3331 98.6094 40.4837 98.7599C40.6342 98.9105 40.7095 99.0909 40.7095 99.3011C40.7095 99.4403 40.674 99.5682 40.603 99.6847C40.5348 99.8011 40.4425 99.8949 40.326 99.9659C40.2124 100.034 40.0845 100.068 39.9425 100.068ZM45.0487 100.119C44.5487 100.119 44.0984 100.02 43.6978 99.821C43.2972 99.6222 42.9762 99.3494 42.7347 99.0028C42.4933 98.6562 42.3612 98.2614 42.3384 97.8182H43.3612C43.4009 98.2131 43.5799 98.5398 43.8981 98.7983C44.2191 99.054 44.6026 99.1818 45.0487 99.1818C45.4066 99.1818 45.7248 99.098 46.0032 98.9304C46.2844 98.7628 46.5046 98.5327 46.6637 98.2401C46.8256 97.9446 46.9066 97.6108 46.9066 97.2386C46.9066 96.858 46.8228 96.5185 46.6552 96.2202C46.4904 95.919 46.2631 95.6818 45.9734 95.5085C45.6836 95.3352 45.3526 95.2472 44.9805 95.2443C44.7134 95.2415 44.4393 95.2827 44.158 95.3679C43.8768 95.4503 43.6452 95.5568 43.4634 95.6875L42.4748 95.5682L43.0032 91.2727H47.5373V92.2102H43.8896L43.5827 94.7841H43.6339C43.8129 94.642 44.0373 94.5241 44.3072 94.4304C44.5771 94.3366 44.8583 94.2898 45.1509 94.2898C45.685 94.2898 46.1609 94.4176 46.5785 94.6733C46.9989 94.9261 47.3285 95.2727 47.5671 95.7131C47.8086 96.1534 47.9293 96.6562 47.9293 97.2216C47.9293 97.7784 47.8043 98.2756 47.5543 98.7131C47.3072 99.1477 46.9663 99.4915 46.5316 99.7443C46.0969 99.9943 45.6026 100.119 45.0487 100.119ZM52.7244 90.8636L49.9119 101.312H48.9915L51.804 90.8636H52.7244ZM56.6268 100.119C56.1268 100.119 55.6765 100.02 55.2759 99.821C54.8754 99.6222 54.5543 99.3494 54.3129 99.0028C54.0714 98.6562 53.9393 98.2614 53.9165 97.8182H54.9393C54.979 98.2131 55.158 98.5398 55.4762 98.7983C55.7972 99.054 56.1808 99.1818 56.6268 99.1818C56.9847 99.1818 57.3029 99.098 57.5813 98.9304C57.8626 98.7628 58.0827 98.5327 58.2418 98.2401C58.4038 97.9446 58.4847 97.6108 58.4847 97.2386C58.4847 96.858 58.4009 96.5185 58.2333 96.2202C58.0685 95.919 57.8413 95.6818 57.5515 95.5085C57.2617 95.3352 56.9308 95.2472 56.5586 95.2443C56.2915 95.2415 56.0174 95.2827 55.7362 95.3679C55.4549 95.4503 55.2234 95.5568 55.0415 95.6875L54.0529 95.5682L54.5813 91.2727H59.1154V92.2102H55.4677L55.1609 94.7841H55.212C55.391 94.642 55.6154 94.5241 55.8853 94.4304C56.1552 94.3366 56.4364 94.2898 56.729 94.2898C57.2631 94.2898 57.739 94.4176 58.1566 94.6733C58.5771 94.9261 58.9066 95.2727 59.1452 95.7131C59.3867 96.1534 59.5075 96.6562 59.5075 97.2216C59.5075 97.7784 59.3825 98.2756 59.1325 98.7131C58.8853 99.1477 58.5444 99.4915 58.1097 99.7443C57.6751 99.9943 57.1808 100.119 56.6268 100.119Z" fill="black"/>
</g>
<g id="MS4Review1">
<g id="MS4Review1Stars_2">
<path id="Star1_6" d="M146.116 31.6722L146.878 33.8373L149.359 33.8323L147.349 35.1654L148.121 37.3273L146.116 35.9862L144.112 37.3273L144.884 35.1654L142.873 33.8323L145.354 33.8373L146.116 31.6722Z" fill="#FFB800"/>
<path id="Star2_6" d="M153.505 31.6722L154.267 33.8373L156.748 33.8323L154.737 35.1654L155.509 37.3273L153.505 35.9862L151.5 37.3273L152.272 35.1654L150.262 33.8323L152.743 33.8373L153.505 31.6722Z" fill="#FFB800"/>
<path id="Star3_6" d="M160.894 31.6722L161.655 33.8373L164.137 33.8323L162.126 35.1654L162.898 37.3273L160.894 35.9862L158.889 37.3273L159.661 35.1654L157.65 33.8323L160.132 33.8373L160.894 31.6722Z" fill="#FFB800"/>
<path id="Star4_6" d="M168.283 31.6722L169.044 33.8373L171.526 33.8323L169.515 35.1654L170.287 37.3273L168.283 35.9862L166.278 37.3273L167.05 35.1654L165.039 33.8323L167.521 33.8373L168.283 31.6722Z" fill="#FFB800"/>
<path id="Star5_6" d="M175.671 31.6722L176.433 33.8373L178.915 33.8323L176.904 35.1654L177.676 37.3273L175.671 35.9862L173.667 37.3273L174.439 35.1654L172.428 33.8323L174.91 33.8373L175.671 31.6722Z" fill="#FFB800"/>
</g>
<path id="MS4Review1StarCount_2" d="M146.631 28.1193C146.131 28.1193 145.68 28.0199 145.28 27.821C144.879 27.6222 144.558 27.3494 144.317 27.0028C144.075 26.6562 143.943 26.2614 143.92 25.8182H144.943C144.983 26.2131 145.162 26.5398 145.48 26.7983C145.801 27.054 146.185 27.1818 146.631 27.1818C146.989 27.1818 147.307 27.098 147.585 26.9304C147.866 26.7628 148.087 26.5327 148.246 26.2401C148.408 25.9446 148.489 25.6108 148.489 25.2386C148.489 24.858 148.405 24.5185 148.237 24.2202C148.072 23.919 147.845 23.6818 147.555 23.5085C147.266 23.3352 146.935 23.2472 146.562 23.2443C146.295 23.2415 146.021 23.2827 145.74 23.3679C145.459 23.4503 145.227 23.5568 145.045 23.6875L144.057 23.5682L144.585 19.2727H149.119V20.2102H145.472L145.165 22.7841H145.216C145.395 22.642 145.619 22.5241 145.889 22.4304C146.159 22.3366 146.44 22.2898 146.733 22.2898C147.267 22.2898 147.743 22.4176 148.161 22.6733C148.581 22.9261 148.911 23.2727 149.149 23.7131C149.391 24.1534 149.511 24.6562 149.511 25.2216C149.511 25.7784 149.386 26.2756 149.136 26.7131C148.889 27.1477 148.548 27.4915 148.114 27.7443C147.679 27.9943 147.185 28.1193 146.631 28.1193ZM154.306 18.8636L151.494 29.3125H150.574L153.386 18.8636H154.306ZM158.209 28.1193C157.709 28.1193 157.259 28.0199 156.858 27.821C156.457 27.6222 156.136 27.3494 155.895 27.0028C155.653 26.6562 155.521 26.2614 155.499 25.8182H156.521C156.561 26.2131 156.74 26.5398 157.058 26.7983C157.379 27.054 157.763 27.1818 158.209 27.1818C158.567 27.1818 158.885 27.098 159.163 26.9304C159.445 26.7628 159.665 26.5327 159.824 26.2401C159.986 25.9446 160.067 25.6108 160.067 25.2386C160.067 24.858 159.983 24.5185 159.815 24.2202C159.651 23.919 159.423 23.6818 159.134 23.5085C158.844 23.3352 158.513 23.2472 158.141 23.2443C157.874 23.2415 157.599 23.2827 157.318 23.3679C157.037 23.4503 156.805 23.5568 156.624 23.6875L155.635 23.5682L156.163 19.2727H160.697V20.2102H157.05L156.743 22.7841H156.794C156.973 22.642 157.197 22.5241 157.467 22.4304C157.737 22.3366 158.018 22.2898 158.311 22.2898C158.845 22.2898 159.321 22.4176 159.739 22.6733C160.159 22.9261 160.489 23.2727 160.727 23.7131C160.969 24.1534 161.089 24.6562 161.089 25.2216C161.089 25.7784 160.964 26.2756 160.714 26.7131C160.467 27.1477 160.126 27.4915 159.692 27.7443C159.257 27.9943 158.763 28.1193 158.209 28.1193Z" fill="black"/>
</g>
</g>
</g>
</g>
<defs>
<clipPath id="clip0_103_3">
<rect width="300" height="278" fill="white"/>
</clipPath>
</defs>
</svg>
