<svg width="45" height="45" viewBox="0 0 45 45" fill="none" xmlns="http://www.w3.org/2000/svg">
<g id="PricesIcon1" clip-path="url(#clip0_115_2)">
<rect id="PricesIconBcg3" x="0.5" y="0.5" width="44" height="44" rx="6.5" stroke="black"/>
<path id="ThreeIcon" d="M21.8617 28.0435C20.0303 28.0435 20.0303 26.5652 20.0303 25.8261H17.1001C16.7338 27.5507 17.1733 31 21.8617 31C26.9896 31 26.9896 28.413 26.9896 26.1957C26.9896 23.9783 24.7919 22.5 24.7919 22.5C24.7919 22.5 26.8895 21.7609 26.9896 19.1739C27.0896 16.587 26.55 14 21.8617 14C17.1733 14 16.7338 17.4493 17.1001 19.1739H20.0303C20.0303 18.4348 20.1035 16.9565 21.8617 16.9565C23.6198 16.9565 23.693 18.4348 23.693 19.1739C23.693 19.5435 23.693 21.0217 21.8617 21.0217H20.0303V23.9783H21.8617C23.6198 23.9783 23.693 25.4565 23.693 25.8261C23.693 26.5652 23.693 28.0435 21.8617 28.0435Z" stroke="black"/>
</g>
<defs>
<clipPath id="clip0_115_2">
<rect width="45" height="45" fill="white"/>
</clipPath>
</defs>
</svg>
