<svg width="20" height="20" viewBox="0 0 20 20" fill="none" xmlns="http://www.w3.org/2000/svg">
<g id="Translate" clip-path="url(#clip0_183_19)">
<path id="TranslateLanguage2" d="M15.36 2C15.86 2.74 16.58 4 16.96 4.74L15.36 5.42C14.94 4.6 14.32 3.42 13.78 2.64L15.36 2ZM17.74 1.1C18.26 1.84 19 3.12 19.34 3.82L17.76 4.5C17.34 3.66 16.7 2.5 16.16 1.74L17.74 1.1ZM10.24 2.18C10.18 2.64 10.12 3.48 10.1 3.96C9.88 11.92 8 15.96 3.58 19.12L1.24 17.24C2.08 16.78 3.08 16.1 3.88 15.28C6.5 12.68 7.42 9.28 7.44 4.02C7.44 3.56 7.36 2.66 7.28 2.18H10.24ZM17.02 6.46C16.96 6.78 16.9 7.3 16.9 7.52C16.82 9.68 16.56 15.26 15.7 17.3C15.28 18.32 14.5 18.84 13.14 18.84C11.98 18.84 10.8 18.76 9.82 18.68L9.5 16C10.5 16.18 11.52 16.28 12.32 16.28C12.96 16.28 13.24 16.06 13.44 15.58C14.02 14.32 14.3 10.32 14.3 8.16H4.54C3.86 8.16 2.74 8.16 1.9 8.24V5.62C2.74 5.7 3.76 5.76 4.52 5.76H13.78C14.3 5.76 14.82 5.7 15.3 5.62L17.02 6.46Z" fill="white"/>
</g>
<defs>
<clipPath id="clip0_183_19">
<rect width="20" height="20" fill="white" transform="matrix(-1 0 0 1 20 0)"/>
</clipPath>
</defs>
</svg>
