<svg width="20" height="20" viewBox="0 0 20 20" fill="none" xmlns="http://www.w3.org/2000/svg">
<g id="TranslateIcon" clip-path="url(#clip0_182_4)">
<path id="TranslateUpper" d="M11.3604 19.5L6.19371 4H18C18.8284 4 19.5 4.67157 19.5 5.5V18C19.5 18.8284 18.8284 19.5 18 19.5H11.3604Z" stroke="white"/>
<path id="TranslateLanguage2" d="M16.644 8.1C16.844 8.396 17.132 8.9 17.284 9.196L16.644 9.468C16.476 9.14 16.228 8.668 16.012 8.356L16.644 8.1ZM17.596 7.74C17.804 8.036 18.1 8.548 18.236 8.828L17.604 9.1C17.436 8.764 17.18 8.3 16.964 7.996L17.596 7.74ZM14.596 8.172C14.572 8.356 14.548 8.692 14.54 8.884C14.452 12.068 13.7 13.684 11.932 14.948L10.996 14.196C11.332 14.012 11.732 13.74 12.052 13.412C13.1 12.372 13.468 11.012 13.476 8.908C13.476 8.724 13.444 8.364 13.412 8.172H14.596ZM17.308 9.884C17.284 10.012 17.26 10.22 17.26 10.308C17.228 11.172 17.124 13.404 16.78 14.22C16.612 14.628 16.3 14.836 15.756 14.836C15.292 14.836 14.82 14.804 14.428 14.772L14.3 13.7C14.7 13.772 15.108 13.812 15.428 13.812C15.684 13.812 15.796 13.724 15.876 13.532C16.108 13.028 16.22 11.428 16.22 10.564H12.316C12.044 10.564 11.596 10.564 11.26 10.596V9.548C11.596 9.58 12.004 9.604 12.308 9.604H16.012C16.22 9.604 16.428 9.58 16.62 9.548L17.308 9.884Z" fill="white"/>
<path id="TranslateFold" d="M11.5 19.5L13.58 16.2" stroke="white"/>
<path id="TranslateUpper_2" d="M8.13962 0.5L13.3063 16H2C1.17157 16 0.5 15.3284 0.5 14.5V2C0.5 1.17157 1.17157 0.5 2 0.5H8.13962Z" fill="black" stroke="white"/>
<path id="TranslateLanguage1" d="M3.91335 12H2.74858L5.36577 4.72727H6.63352L9.25071 12H8.08594L6.02983 6.0483H5.97301L3.91335 12ZM4.10866 9.15199H7.88707V10.0753H4.10866V9.15199Z" fill="white"/>
</g>
<defs>
<clipPath id="clip0_182_4">
<rect width="20" height="20" fill="white" transform="matrix(-1 0 0 1 20 0)"/>
</clipPath>
</defs>
</svg>
